<?xml version="1.0" encoding="UTF-8"?>
<svg id="base" xmlns="http://www.w3.org/2000/svg" xmlns:xlink="http://www.w3.org/1999/xlink" viewBox="0 0 390 148">
  <defs>
    <style>
      .cls-1, .cls-2 {
        fill: none;
      }

      .cls-3 {
        clip-path: url(#clippath-17);
      }

      .cls-4 {
        clip-path: url(#clippath-19);
      }

      .cls-5 {
        clip-path: url(#clippath-11);
      }

      .cls-6 {
        clip-path: url(#clippath-16);
      }

      .cls-7 {
        clip-path: url(#clippath-18);
      }

      .cls-8 {
        clip-path: url(#clippath-10);
      }

      .cls-9 {
        clip-path: url(#clippath-15);
      }

      .cls-10 {
        clip-path: url(#clippath-13);
      }

      .cls-11 {
        clip-path: url(#clippath-14);
      }

      .cls-12 {
        clip-path: url(#clippath-12);
      }

      .cls-13 {
        clip-path: url(#clippath-31);
      }

      .cls-14 {
        clip-path: url(#clippath-32);
      }

      .cls-15 {
        clip-path: url(#clippath-33);
      }

      .cls-16 {
        clip-path: url(#clippath-34);
      }

      .cls-17 {
        clip-path: url(#clippath-35);
      }

      .cls-18 {
        clip-path: url(#clippath-30);
      }

      .cls-19 {
        clip-path: url(#clippath-27);
      }

      .cls-20 {
        clip-path: url(#clippath-29);
      }

      .cls-21 {
        clip-path: url(#clippath-26);
      }

      .cls-22 {
        clip-path: url(#clippath-28);
      }

      .cls-23 {
        clip-path: url(#clippath-20);
      }

      .cls-24 {
        clip-path: url(#clippath-21);
      }

      .cls-25 {
        clip-path: url(#clippath-22);
      }

      .cls-26 {
        clip-path: url(#clippath-23);
      }

      .cls-27 {
        clip-path: url(#clippath-24);
      }

      .cls-28 {
        clip-path: url(#clippath-25);
      }

      .cls-29 {
        clip-path: url(#clippath-1);
      }

      .cls-30 {
        clip-path: url(#clippath-3);
      }

      .cls-31 {
        clip-path: url(#clippath-4);
      }

      .cls-32 {
        clip-path: url(#clippath-2);
      }

      .cls-33 {
        clip-path: url(#clippath-7);
      }

      .cls-34 {
        clip-path: url(#clippath-6);
      }

      .cls-35 {
        clip-path: url(#clippath-9);
      }

      .cls-36 {
        clip-path: url(#clippath-8);
      }

      .cls-37 {
        clip-path: url(#clippath-5);
      }

      .cls-38 {
        fill: #fff;
      }

      .cls-2 {
        clip-rule: evenodd;
      }

      .cls-39 {
        fill: #fa5004;
      }

      .cls-40 {
        clip-path: url(#clippath);
      }
    </style>
    <clipPath id="clippath">
      <circle class="cls-1" cx="321.23" cy="31.24" r="3.86"/>
    </clipPath>
    <clipPath id="clippath-1">
      <circle class="cls-1" cx="321.23" cy="43.25" r="3.86"/>
    </clipPath>
    <clipPath id="clippath-2">
      <circle class="cls-1" cx="321.23" cy="55.25" r="3.86"/>
    </clipPath>
    <clipPath id="clippath-3">
      <circle class="cls-1" cx="321.23" cy="67.26" r="3.86"/>
    </clipPath>
    <clipPath id="clippath-4">
      <circle class="cls-1" cx="333.23" cy="31.24" r="3.86"/>
    </clipPath>
    <clipPath id="clippath-5">
      <circle class="cls-1" cx="333.23" cy="43.25" r="3.86"/>
    </clipPath>
    <clipPath id="clippath-6">
      <circle class="cls-1" cx="333.23" cy="55.25" r="3.86"/>
    </clipPath>
    <clipPath id="clippath-7">
      <circle class="cls-1" cx="333.23" cy="67.26" r="3.86"/>
    </clipPath>
    <clipPath id="clippath-8">
      <circle class="cls-1" cx="345.24" cy="31.24" r="3.86"/>
    </clipPath>
    <clipPath id="clippath-9">
      <circle class="cls-1" cx="345.24" cy="43.25" r="3.86"/>
    </clipPath>
    <clipPath id="clippath-10">
      <circle class="cls-1" cx="345.24" cy="55.25" r="3.86"/>
    </clipPath>
    <clipPath id="clippath-11">
      <circle class="cls-1" cx="345.24" cy="67.26" r="3.86"/>
    </clipPath>
    <clipPath id="clippath-12">
      <circle class="cls-1" cx="357.24" cy="31.24" r="3.86"/>
    </clipPath>
    <clipPath id="clippath-13">
      <circle class="cls-1" cx="357.24" cy="43.25" r="3.86"/>
    </clipPath>
    <clipPath id="clippath-14">
      <circle class="cls-1" cx="357.24" cy="55.25" r="3.86"/>
    </clipPath>
    <clipPath id="clippath-15">
      <circle class="cls-1" cx="357.24" cy="67.26" r="3.86"/>
    </clipPath>
    <clipPath id="clippath-16">
      <circle class="cls-1" cx="33.72" cy="31.24" r="3.86"/>
    </clipPath>
    <clipPath id="clippath-17">
      <circle class="cls-1" cx="33.72" cy="43.25" r="3.86"/>
    </clipPath>
    <clipPath id="clippath-18">
      <circle class="cls-1" cx="33.72" cy="55.25" r="3.86"/>
    </clipPath>
    <clipPath id="clippath-19">
      <circle class="cls-1" cx="33.72" cy="67.26" r="3.86"/>
    </clipPath>
    <clipPath id="clippath-20">
      <circle class="cls-1" cx="45.73" cy="31.24" r="3.86"/>
    </clipPath>
    <clipPath id="clippath-21">
      <circle class="cls-1" cx="45.73" cy="43.25" r="3.86"/>
    </clipPath>
    <clipPath id="clippath-22">
      <circle class="cls-1" cx="45.73" cy="55.25" r="3.86"/>
    </clipPath>
    <clipPath id="clippath-23">
      <circle class="cls-1" cx="45.73" cy="67.26" r="3.86"/>
    </clipPath>
    <clipPath id="clippath-24">
      <circle class="cls-1" cx="57.73" cy="31.24" r="3.86"/>
    </clipPath>
    <clipPath id="clippath-25">
      <circle class="cls-1" cx="57.73" cy="43.25" r="3.86"/>
    </clipPath>
    <clipPath id="clippath-26">
      <circle class="cls-1" cx="57.73" cy="55.25" r="3.86"/>
    </clipPath>
    <clipPath id="clippath-27">
      <circle class="cls-1" cx="57.73" cy="67.26" r="3.86"/>
    </clipPath>
    <clipPath id="clippath-28">
      <circle class="cls-1" cx="69.74" cy="31.24" r="3.86"/>
    </clipPath>
    <clipPath id="clippath-29">
      <circle class="cls-1" cx="69.74" cy="43.25" r="3.86"/>
    </clipPath>
    <clipPath id="clippath-30">
      <circle class="cls-1" cx="69.74" cy="55.25" r="3.86"/>
    </clipPath>
    <clipPath id="clippath-31">
      <circle class="cls-1" cx="69.74" cy="67.26" r="3.86"/>
    </clipPath>
    <clipPath id="clippath-32">
      <rect class="cls-1" x="80" y="21.75" width="116" height="55" rx="7" ry="7"/>
    </clipPath>
    <clipPath id="clippath-33">
      <path class="cls-2" d="M22.46,28.75c0-3.87,3.11-7,6.94-7h44.65c3.84,0,6.94,3.13,6.94,7v41c0,3.87-3.11,7-6.94,7H29.41c-3.84,0-6.94-3.13-6.94-7V28.75Z"/>
    </clipPath>
    <clipPath id="clippath-34">
      <rect class="cls-1" x="195" y="21.75" width="116" height="55" rx="7" ry="7"/>
    </clipPath>
    <clipPath id="clippath-35">
      <path class="cls-2" d="M310,28.75c0-3.87,3.16-7,7.06-7h44.36c3.9,0,7.06,3.13,7.06,7v41c0,3.87-3.16,7-7.06,7h-44.36c-3.9,0-7.06-3.13-7.06-7V28.75Z"/>
    </clipPath>
  </defs>
  <g>
    <path class="cls-39" d="M.5,147.5V22C.5,10.15,10.15.5,22,.5h346c11.86,0,21.5,9.65,21.5,21.5v125.5H.5Z"/>
    <path class="cls-38" d="M368,1c11.6,0,21,9.4,21,21v125H1V22C1,10.4,10.4,1,22,1h346M368,0H22C9.87,0,0,9.87,0,22v126h390V22c0-12.13-9.87-22-22-22h0Z"/>
  </g>
  <g id="pallini-dx">
    <g class="cls-40">
      <path class="cls-38" d="M321.23,27.38v1c1.58,0,2.86,1.28,2.86,2.86h2c0-2.68-2.18-4.86-4.86-4.86v1ZM317.37,31.24h1c0-1.58,1.28-2.86,2.86-2.86v-2c-2.68,0-4.86,2.18-4.86,4.86h1ZM321.23,35.1v-1c-1.58,0-2.86-1.28-2.86-2.86h-2c0,2.68,2.18,4.86,4.86,4.86v-1ZM325.09,31.24h-1c0,1.58-1.28,2.86-2.86,2.86v2c2.68,0,4.86-2.18,4.86-4.86h-1Z"/>
    </g>
    <g class="cls-29">
      <path class="cls-38" d="M321.23,39.39v1c1.58,0,2.86,1.28,2.86,2.86h2c0-2.68-2.18-4.86-4.86-4.86v1ZM317.37,43.25h1c0-1.58,1.28-2.86,2.86-2.86v-2c-2.68,0-4.86,2.18-4.86,4.86h1ZM321.23,47.11v-1c-1.58,0-2.86-1.28-2.86-2.86h-2c0,2.68,2.18,4.86,4.86,4.86v-1ZM325.09,43.25h-1c0,1.58-1.28,2.86-2.86,2.86v2c2.68,0,4.86-2.18,4.86-4.86h-1Z"/>
    </g>
    <g class="cls-32">
      <path class="cls-38" d="M321.23,51.39v1c1.58,0,2.86,1.28,2.86,2.86h2c0-2.68-2.18-4.86-4.86-4.86v1ZM317.37,55.25h1c0-1.58,1.28-2.86,2.86-2.86v-2c-2.68,0-4.86,2.18-4.86,4.86h1ZM321.23,59.11v-1c-1.58,0-2.86-1.28-2.86-2.86h-2c0,2.68,2.18,4.86,4.86,4.86v-1ZM325.09,55.25h-1c0,1.58-1.28,2.86-2.86,2.86v2c2.68,0,4.86-2.18,4.86-4.86h-1Z"/>
    </g>
    <g class="cls-30">
      <path class="cls-38" d="M321.23,63.4v1c1.58,0,2.86,1.28,2.86,2.86h2c0-2.68-2.18-4.86-4.86-4.86v1ZM317.37,67.26h1c0-1.58,1.28-2.86,2.86-2.86v-2c-2.68,0-4.86,2.18-4.86,4.86h1ZM321.23,71.12v-1c-1.58,0-2.86-1.28-2.86-2.86h-2c0,2.68,2.18,4.86,4.86,4.86v-1ZM325.09,67.26h-1c0,1.58-1.28,2.86-2.86,2.86v2c2.68,0,4.86-2.18,4.86-4.86h-1Z"/>
    </g>
    <g class="cls-31">
      <path class="cls-38" d="M333.23,27.38v1c1.58,0,2.86,1.28,2.86,2.86h2c0-2.68-2.18-4.86-4.86-4.86v1ZM329.37,31.24h1c0-1.58,1.28-2.86,2.86-2.86v-2c-2.68,0-4.86,2.18-4.86,4.86h1ZM333.23,35.1v-1c-1.58,0-2.86-1.28-2.86-2.86h-2c0,2.68,2.18,4.86,4.86,4.86v-1ZM337.09,31.24h-1c0,1.58-1.28,2.86-2.86,2.86v2c2.68,0,4.86-2.18,4.86-4.86h-1Z"/>
    </g>
    <g class="cls-37">
      <path class="cls-38" d="M333.23,39.39v1c1.58,0,2.86,1.28,2.86,2.86h2c0-2.68-2.18-4.86-4.86-4.86v1ZM329.37,43.25h1c0-1.58,1.28-2.86,2.86-2.86v-2c-2.68,0-4.86,2.18-4.86,4.86h1ZM333.23,47.11v-1c-1.58,0-2.86-1.28-2.86-2.86h-2c0,2.68,2.18,4.86,4.86,4.86v-1ZM337.09,43.25h-1c0,1.58-1.28,2.86-2.86,2.86v2c2.68,0,4.86-2.18,4.86-4.86h-1Z"/>
    </g>
    <g class="cls-34">
      <path class="cls-38" d="M333.23,51.39v1c1.58,0,2.86,1.28,2.86,2.86h2c0-2.68-2.18-4.86-4.86-4.86v1ZM329.37,55.25h1c0-1.58,1.28-2.86,2.86-2.86v-2c-2.68,0-4.86,2.18-4.86,4.86h1ZM333.23,59.11v-1c-1.58,0-2.86-1.28-2.86-2.86h-2c0,2.68,2.18,4.86,4.86,4.86v-1ZM337.09,55.25h-1c0,1.58-1.28,2.86-2.86,2.86v2c2.68,0,4.86-2.18,4.86-4.86h-1Z"/>
    </g>
    <g class="cls-33">
      <path class="cls-38" d="M333.23,63.4v1c1.58,0,2.86,1.28,2.86,2.86h2c0-2.68-2.18-4.86-4.86-4.86v1ZM329.37,67.26h1c0-1.58,1.28-2.86,2.86-2.86v-2c-2.68,0-4.86,2.18-4.86,4.86h1ZM333.23,71.12v-1c-1.58,0-2.86-1.28-2.86-2.86h-2c0,2.68,2.18,4.86,4.86,4.86v-1ZM337.09,67.26h-1c0,1.58-1.28,2.86-2.86,2.86v2c2.68,0,4.86-2.18,4.86-4.86h-1Z"/>
    </g>
    <g class="cls-36">
      <path class="cls-38" d="M345.24,27.38v1c1.58,0,2.86,1.28,2.86,2.86h2c0-2.68-2.18-4.86-4.86-4.86v1ZM341.38,31.24h1c0-1.58,1.28-2.86,2.86-2.86v-2c-2.68,0-4.86,2.18-4.86,4.86h1ZM345.24,35.1v-1c-1.58,0-2.86-1.28-2.86-2.86h-2c0,2.68,2.18,4.86,4.86,4.86v-1ZM349.1,31.24h-1c0,1.58-1.28,2.86-2.86,2.86v2c2.68,0,4.86-2.18,4.86-4.86h-1Z"/>
    </g>
    <g class="cls-35">
      <path class="cls-38" d="M345.24,39.39v1c1.58,0,2.86,1.28,2.86,2.86h2c0-2.68-2.18-4.86-4.86-4.86v1ZM341.38,43.25h1c0-1.58,1.28-2.86,2.86-2.86v-2c-2.68,0-4.86,2.18-4.86,4.86h1ZM345.24,47.11v-1c-1.58,0-2.86-1.28-2.86-2.86h-2c0,2.68,2.18,4.86,4.86,4.86v-1ZM349.1,43.25h-1c0,1.58-1.28,2.86-2.86,2.86v2c2.68,0,4.86-2.18,4.86-4.86h-1Z"/>
    </g>
    <g class="cls-8">
      <path class="cls-38" d="M345.24,51.39v1c1.58,0,2.86,1.28,2.86,2.86h2c0-2.68-2.18-4.86-4.86-4.86v1ZM341.38,55.25h1c0-1.58,1.28-2.86,2.86-2.86v-2c-2.68,0-4.86,2.18-4.86,4.86h1ZM345.24,59.11v-1c-1.58,0-2.86-1.28-2.86-2.86h-2c0,2.68,2.18,4.86,4.86,4.86v-1ZM349.1,55.25h-1c0,1.58-1.28,2.86-2.86,2.86v2c2.68,0,4.86-2.18,4.86-4.86h-1Z"/>
    </g>
    <g class="cls-5">
      <path class="cls-38" d="M345.24,63.4v1c1.58,0,2.86,1.28,2.86,2.86h2c0-2.68-2.18-4.86-4.86-4.86v1ZM341.38,67.26h1c0-1.58,1.28-2.86,2.86-2.86v-2c-2.68,0-4.86,2.18-4.86,4.86h1ZM345.24,71.12v-1c-1.58,0-2.86-1.28-2.86-2.86h-2c0,2.68,2.18,4.86,4.86,4.86v-1ZM349.1,67.26h-1c0,1.58-1.28,2.86-2.86,2.86v2c2.68,0,4.86-2.18,4.86-4.86h-1Z"/>
    </g>
    <g class="cls-12">
      <path class="cls-38" d="M357.24,27.38v1c1.58,0,2.86,1.28,2.86,2.86h2c0-2.68-2.18-4.86-4.86-4.86v1ZM353.39,31.24h1c0-1.58,1.28-2.86,2.86-2.86v-2c-2.68,0-4.86,2.18-4.86,4.86h1ZM357.24,35.1v-1c-1.58,0-2.86-1.28-2.86-2.86h-2c0,2.68,2.18,4.86,4.86,4.86v-1ZM361.1,31.24h-1c0,1.58-1.28,2.86-2.86,2.86v2c2.68,0,4.86-2.18,4.86-4.86h-1Z"/>
    </g>
    <g class="cls-10">
      <path class="cls-38" d="M357.24,39.39v1c1.58,0,2.86,1.28,2.86,2.86h2c0-2.68-2.18-4.86-4.86-4.86v1ZM353.39,43.25h1c0-1.58,1.28-2.86,2.86-2.86v-2c-2.68,0-4.86,2.18-4.86,4.86h1ZM357.24,47.11v-1c-1.58,0-2.86-1.28-2.86-2.86h-2c0,2.68,2.18,4.86,4.86,4.86v-1ZM361.1,43.25h-1c0,1.58-1.28,2.86-2.86,2.86v2c2.68,0,4.86-2.18,4.86-4.86h-1Z"/>
    </g>
    <g class="cls-11">
      <path class="cls-38" d="M357.24,51.39v1c1.58,0,2.86,1.28,2.86,2.86h2c0-2.68-2.18-4.86-4.86-4.86v1ZM353.39,55.25h1c0-1.58,1.28-2.86,2.86-2.86v-2c-2.68,0-4.86,2.18-4.86,4.86h1ZM357.24,59.11v-1c-1.58,0-2.86-1.28-2.86-2.86h-2c0,2.68,2.18,4.86,4.86,4.86v-1ZM361.1,55.25h-1c0,1.58-1.28,2.86-2.86,2.86v2c2.68,0,4.86-2.18,4.86-4.86h-1Z"/>
    </g>
    <g class="cls-9">
      <path class="cls-38" d="M357.24,63.4v1c1.58,0,2.86,1.28,2.86,2.86h2c0-2.68-2.18-4.86-4.86-4.86v1ZM353.39,67.26h1c0-1.58,1.28-2.86,2.86-2.86v-2c-2.68,0-4.86,2.18-4.86,4.86h1ZM357.24,71.12v-1c-1.58,0-2.86-1.28-2.86-2.86h-2c0,2.68,2.18,4.86,4.86,4.86v-1ZM361.1,67.26h-1c0,1.58-1.28,2.86-2.86,2.86v2c2.68,0,4.86-2.18,4.86-4.86h-1Z"/>
    </g>
  </g>
  <g id="pallini-sx">
    <g class="cls-6">
      <path class="cls-38" d="M33.72,27.38v1c1.58,0,2.86,1.28,2.86,2.86h2c0-2.68-2.18-4.86-4.86-4.86v1ZM29.87,31.24h1c0-1.58,1.28-2.86,2.86-2.86v-2c-2.68,0-4.86,2.18-4.86,4.86h1ZM33.72,35.1v-1c-1.58,0-2.86-1.28-2.86-2.86h-2c0,2.68,2.18,4.86,4.86,4.86v-1ZM37.58,31.24h-1c0,1.58-1.28,2.86-2.86,2.86v2c2.68,0,4.86-2.18,4.86-4.86h-1Z"/>
    </g>
    <g class="cls-3">
      <path class="cls-38" d="M33.72,39.39v1c1.58,0,2.86,1.28,2.86,2.86h2c0-2.68-2.18-4.86-4.86-4.86v1ZM29.87,43.25h1c0-1.58,1.28-2.86,2.86-2.86v-2c-2.68,0-4.86,2.18-4.86,4.86h1ZM33.72,47.11v-1c-1.58,0-2.86-1.28-2.86-2.86h-2c0,2.68,2.18,4.86,4.86,4.86v-1ZM37.58,43.25h-1c0,1.58-1.28,2.86-2.86,2.86v2c2.68,0,4.86-2.18,4.86-4.86h-1Z"/>
    </g>
    <g class="cls-7">
      <path class="cls-38" d="M33.72,51.39v1c1.58,0,2.86,1.28,2.86,2.86h2c0-2.68-2.18-4.86-4.86-4.86v1ZM29.87,55.25h1c0-1.58,1.28-2.86,2.86-2.86v-2c-2.68,0-4.86,2.18-4.86,4.86h1ZM33.72,59.11v-1c-1.58,0-2.86-1.28-2.86-2.86h-2c0,2.68,2.18,4.86,4.86,4.86v-1ZM37.58,55.25h-1c0,1.58-1.28,2.86-2.86,2.86v2c2.68,0,4.86-2.18,4.86-4.86h-1Z"/>
    </g>
    <g class="cls-4">
      <path class="cls-38" d="M33.72,63.4v1c1.58,0,2.86,1.28,2.86,2.86h2c0-2.68-2.18-4.86-4.86-4.86v1ZM29.87,67.26h1c0-1.58,1.28-2.86,2.86-2.86v-2c-2.68,0-4.86,2.18-4.86,4.86h1ZM33.72,71.12v-1c-1.58,0-2.86-1.28-2.86-2.86h-2c0,2.68,2.18,4.86,4.86,4.86v-1ZM37.58,67.26h-1c0,1.58-1.28,2.86-2.86,2.86v2c2.68,0,4.86-2.18,4.86-4.86h-1Z"/>
    </g>
    <g class="cls-23">
      <path class="cls-38" d="M45.73,27.38v1c1.58,0,2.86,1.28,2.86,2.86h2c0-2.68-2.18-4.86-4.86-4.86v1ZM41.87,31.24h1c0-1.58,1.28-2.86,2.86-2.86v-2c-2.68,0-4.86,2.18-4.86,4.86h1ZM45.73,35.1v-1c-1.58,0-2.86-1.28-2.86-2.86h-2c0,2.68,2.18,4.86,4.86,4.86v-1ZM49.59,31.24h-1c0,1.58-1.28,2.86-2.86,2.86v2c2.68,0,4.86-2.18,4.86-4.86h-1Z"/>
    </g>
    <g class="cls-24">
      <path class="cls-38" d="M45.73,39.39v1c1.58,0,2.86,1.28,2.86,2.86h2c0-2.68-2.18-4.86-4.86-4.86v1ZM41.87,43.25h1c0-1.58,1.28-2.86,2.86-2.86v-2c-2.68,0-4.86,2.18-4.86,4.86h1ZM45.73,47.11v-1c-1.58,0-2.86-1.28-2.86-2.86h-2c0,2.68,2.18,4.86,4.86,4.86v-1ZM49.59,43.25h-1c0,1.58-1.28,2.86-2.86,2.86v2c2.68,0,4.86-2.18,4.86-4.86h-1Z"/>
    </g>
    <g class="cls-25">
      <path class="cls-38" d="M45.73,51.39v1c1.58,0,2.86,1.28,2.86,2.86h2c0-2.68-2.18-4.86-4.86-4.86v1ZM41.87,55.25h1c0-1.58,1.28-2.86,2.86-2.86v-2c-2.68,0-4.86,2.18-4.86,4.86h1ZM45.73,59.11v-1c-1.58,0-2.86-1.28-2.86-2.86h-2c0,2.68,2.18,4.86,4.86,4.86v-1ZM49.59,55.25h-1c0,1.58-1.28,2.86-2.86,2.86v2c2.68,0,4.86-2.18,4.86-4.86h-1Z"/>
    </g>
    <g class="cls-26">
      <path class="cls-38" d="M45.73,63.4v1c1.58,0,2.86,1.28,2.86,2.86h2c0-2.68-2.18-4.86-4.86-4.86v1ZM41.87,67.26h1c0-1.58,1.28-2.86,2.86-2.86v-2c-2.68,0-4.86,2.18-4.86,4.86h1ZM45.73,71.12v-1c-1.58,0-2.86-1.28-2.86-2.86h-2c0,2.68,2.18,4.86,4.86,4.86v-1ZM49.59,67.26h-1c0,1.58-1.28,2.86-2.86,2.86v2c2.68,0,4.86-2.18,4.86-4.86h-1Z"/>
    </g>
    <g class="cls-27">
      <path class="cls-38" d="M57.73,27.38v1c1.58,0,2.86,1.28,2.86,2.86h2c0-2.68-2.18-4.86-4.86-4.86v1ZM53.88,31.24h1c0-1.58,1.28-2.86,2.86-2.86v-2c-2.68,0-4.86,2.18-4.86,4.86h1ZM57.73,35.1v-1c-1.58,0-2.86-1.28-2.86-2.86h-2c0,2.68,2.18,4.86,4.86,4.86v-1ZM61.59,31.24h-1c0,1.58-1.28,2.86-2.86,2.86v2c2.68,0,4.86-2.18,4.86-4.86h-1Z"/>
    </g>
    <g class="cls-28">
      <path class="cls-38" d="M57.73,39.39v1c1.58,0,2.86,1.28,2.86,2.86h2c0-2.68-2.18-4.86-4.86-4.86v1ZM53.88,43.25h1c0-1.58,1.28-2.86,2.86-2.86v-2c-2.68,0-4.86,2.18-4.86,4.86h1ZM57.73,47.11v-1c-1.58,0-2.86-1.28-2.86-2.86h-2c0,2.68,2.18,4.86,4.86,4.86v-1ZM61.59,43.25h-1c0,1.58-1.28,2.86-2.86,2.86v2c2.68,0,4.86-2.18,4.86-4.86h-1Z"/>
    </g>
    <g class="cls-21">
      <path class="cls-38" d="M57.73,51.39v1c1.58,0,2.86,1.28,2.86,2.86h2c0-2.68-2.18-4.86-4.86-4.86v1ZM53.88,55.25h1c0-1.58,1.28-2.86,2.86-2.86v-2c-2.68,0-4.86,2.18-4.86,4.86h1ZM57.73,59.11v-1c-1.58,0-2.86-1.28-2.86-2.86h-2c0,2.68,2.18,4.86,4.86,4.86v-1ZM61.59,55.25h-1c0,1.58-1.28,2.86-2.86,2.86v2c2.68,0,4.86-2.18,4.86-4.86h-1Z"/>
    </g>
    <g class="cls-19">
      <path class="cls-38" d="M57.73,63.4v1c1.58,0,2.86,1.28,2.86,2.86h2c0-2.68-2.18-4.86-4.86-4.86v1ZM53.88,67.26h1c0-1.58,1.28-2.86,2.86-2.86v-2c-2.68,0-4.86,2.18-4.86,4.86h1ZM57.73,71.12v-1c-1.58,0-2.86-1.28-2.86-2.86h-2c0,2.68,2.18,4.86,4.86,4.86v-1ZM61.59,67.26h-1c0,1.58-1.28,2.86-2.86,2.86v2c2.68,0,4.86-2.18,4.86-4.86h-1Z"/>
    </g>
    <g class="cls-22">
      <path class="cls-38" d="M69.74,27.38v1c1.58,0,2.86,1.28,2.86,2.86h2c0-2.68-2.18-4.86-4.86-4.86v1ZM65.88,31.24h1c0-1.58,1.28-2.86,2.86-2.86v-2c-2.68,0-4.86,2.18-4.86,4.86h1ZM69.74,35.1v-1c-1.58,0-2.86-1.28-2.86-2.86h-2c0,2.68,2.18,4.86,4.86,4.86v-1ZM73.6,31.24h-1c0,1.58-1.28,2.86-2.86,2.86v2c2.68,0,4.86-2.18,4.86-4.86h-1Z"/>
    </g>
    <g class="cls-20">
      <path class="cls-38" d="M69.74,39.39v1c1.58,0,2.86,1.28,2.86,2.86h2c0-2.68-2.18-4.86-4.86-4.86v1ZM65.88,43.25h1c0-1.58,1.28-2.86,2.86-2.86v-2c-2.68,0-4.86,2.18-4.86,4.86h1ZM69.74,47.11v-1c-1.58,0-2.86-1.28-2.86-2.86h-2c0,2.68,2.18,4.86,4.86,4.86v-1ZM73.6,43.25h-1c0,1.58-1.28,2.86-2.86,2.86v2c2.68,0,4.86-2.18,4.86-4.86h-1Z"/>
    </g>
    <g class="cls-18">
      <path class="cls-38" d="M69.74,51.39v1c1.58,0,2.86,1.28,2.86,2.86h2c0-2.68-2.18-4.86-4.86-4.86v1ZM65.88,55.25h1c0-1.58,1.28-2.86,2.86-2.86v-2c-2.68,0-4.86,2.18-4.86,4.86h1ZM69.74,59.11v-1c-1.58,0-2.86-1.28-2.86-2.86h-2c0,2.68,2.18,4.86,4.86,4.86v-1ZM73.6,55.25h-1c0,1.58-1.28,2.86-2.86,2.86v2c2.68,0,4.86-2.18,4.86-4.86h-1Z"/>
    </g>
    <g class="cls-13">
      <path class="cls-38" d="M69.74,63.4v1c1.58,0,2.86,1.28,2.86,2.86h2c0-2.68-2.18-4.86-4.86-4.86v1ZM65.88,67.26h1c0-1.58,1.28-2.86,2.86-2.86v-2c-2.68,0-4.86,2.18-4.86,4.86h1ZM69.74,71.12v-1c-1.58,0-2.86-1.28-2.86-2.86h-2c0,2.68,2.18,4.86,4.86,4.86v-1ZM73.6,67.26h-1c0,1.58-1.28,2.86-2.86,2.86v2c2.68,0,4.86-2.18,4.86-4.86h-1Z"/>
    </g>
  </g>
  <path id="txt-beat" class="cls-38" d="M260.83,45.33v-1.08h8.48v1.08h-3.62v9.42h-1.24v-9.42h-3.61ZM257.37,45.57l-2.02,5.4h4.05l-2.02-5.4ZM258.15,44.25l3.87,10.5h-1.3l-.99-2.7h-4.71l-.99,2.7h-1.27l3.89-10.5h1.51ZM245.38,54.75v-10.5h6.78v1.08h-5.54v3.61h4.79v1.08h-4.79v3.64h5.54v1.08h-6.78ZM242.41,47.74v-1.22c0-.74-.46-1.2-1.2-1.2h-3.92v3.61h3.92c.74,0,1.2-.46,1.2-1.2ZM242.49,52.45v-1.22c0-.75-.46-1.21-1.2-1.21h-3.99v3.64h3.99c.74,0,1.2-.48,1.2-1.21ZM243.65,46.48v.96c0,.99-.51,1.74-1.29,2.04.82.28,1.36,1.03,1.36,2.06v.97c0,1.33-.9,2.24-2.24,2.24h-5.44v-10.5h5.37c1.34,0,2.24.89,2.24,2.24Z"/>
  <g class="cls-14">
    <path class="cls-38" d="M87,21.75v-1c-4.42,0-8,3.58-8,8h2c0-3.31,2.69-6,6-6v-1ZM189,21.75v1c3.31,0,6,2.69,6,6h2c0-4.42-3.58-8-8-8v1ZM196,69.75h-1c0,3.31-2.69,6-6,6v2c4.42,0,8-3.58,8-8h-1ZM87,76.75v-1c-3.31,0-6-2.69-6-6h-2c0,4.42,3.58,8,8,8v-1ZM80,69.75h1V28.75h-2v41h1ZM189,76.75v-1h-102v2h102v-1ZM196,28.75h-1v41h2V28.75h-1ZM87,21.75v1h102v-2h-102v1Z"/>
  </g>
  <g class="cls-15">
    <path class="cls-38" d="M29.41,21.75v-1c-4.38,0-7.94,3.58-7.94,8h1.98c0-3.31,2.67-6,5.95-6v-1ZM74.06,21.75v1c3.29,0,5.95,2.69,5.95,6h1.98c0-4.42-3.55-8-7.94-8v1ZM81,69.75h-.99c0,3.31-2.67,6-5.95,6v2c4.38,0,7.94-3.58,7.94-8h-.99ZM29.41,76.75v-1c-3.29,0-5.95-2.69-5.95-6h-1.98c0,4.42,3.55,8,7.94,8v-1ZM22.46,69.75h.99V28.75h-1.98v41h.99ZM74.06,76.75v-1H29.41v2h44.65v-1ZM81,28.75h-.99v41h1.98V28.75h-.99ZM29.41,21.75v1h44.65v-2H29.41v1Z"/>
  </g>
  <g class="cls-16">
    <path class="cls-38" d="M202,21.75v-1c-4.42,0-8,3.58-8,8h2c0-3.31,2.69-6,6-6v-1ZM304,21.75v1c3.31,0,6,2.69,6,6h2c0-4.42-3.58-8-8-8v1ZM311,69.75h-1c0,3.31-2.69,6-6,6v2c4.42,0,8-3.58,8-8h-1ZM202,76.75v-1c-3.31,0-6-2.69-6-6h-2c0,4.42,3.58,8,8,8v-1ZM195,69.75h1V28.75h-2v41h1ZM304,76.75v-1h-102v2h102v-1ZM311,28.75h-1v41h2V28.75h-1ZM202,21.75v1h102v-2h-102v1Z"/>
  </g>
  <g class="cls-17">
    <path class="cls-38" d="M317.06,21.75v-1c-4.45,0-8.07,3.58-8.07,8h2.02c0-3.31,2.71-6,6.05-6v-1ZM361.42,21.75v1c3.34,0,6.05,2.69,6.05,6h2.02c0-4.42-3.61-8-8.07-8v1ZM368.47,69.75h-1.01c0,3.31-2.71,6-6.05,6v2c4.45,0,8.07-3.58,8.07-8h-1.01ZM317.06,76.75v-1c-3.34,0-6.05-2.69-6.05-6h-2.02c0,4.42,3.61,8,8.07,8v-1ZM310,69.75h1.01V28.75h-2.02v41h1.01ZM361.42,76.75v-1h-44.36v2h44.36v-1ZM368.47,28.75h-1.01v41h2.02V28.75h-1.01ZM317.06,21.75v1h44.36v-2h-44.36v1Z"/>
  </g>
  <g>
    <path class="cls-38" d="M118.66,51.18v1.33c0,1.33-.9,2.23-2.23,2.23h-3.21c-1.33,0-2.23-.9-2.23-2.23v-.92h1.25v.85c0,.75.46,1.21,1.2,1.21h2.79c.73,0,1.2-.46,1.2-1.21v-1.21c0-.73-.47-1.21-1.2-1.21h-3c-1.33,0-2.23-.9-2.23-2.24v-1.3c0-1.35.9-2.23,2.23-2.23h3.21c1.33,0,2.23.88,2.23,2.23v.92h-1.24v-.87c0-.73-.47-1.2-1.2-1.2h-2.79c-.73,0-1.2.46-1.2,1.2v1.21c0,.74.46,1.2,1.2,1.2h3c1.33,0,2.23.9,2.23,2.23Z"/>
    <path class="cls-38" d="M128.98,54.75h-1.3l-.99-2.7h-4.71l-.99,2.7h-1.27l3.88-10.5h1.52l3.87,10.5ZM122.3,50.97h4.05l-2.02-5.4-2.02,5.4Z"/>
    <path class="cls-38" d="M137.83,46.69l-3.28,6.13-3.27-6.13v8.05h-1.25v-10.5h1.2l3.31,6.21,3.31-6.21h1.2v10.5h-1.23v-8.05Z"/>
    <path class="cls-38" d="M146.3,50.77h-3.9v3.97h-1.25v-10.5h5.15c1.33,0,2.23.88,2.23,2.23v2.05c0,1.33-.9,2.24-2.23,2.24ZM147.29,46.53c0-.73-.46-1.2-1.2-1.2h-3.69v4.36h3.69c.73,0,1.2-.46,1.2-1.2v-1.96Z"/>
    <path class="cls-38" d="M150.11,44.25h1.25v9.42h5.54v1.08h-6.78v-10.5Z"/>
    <path class="cls-38" d="M158.24,44.25h6.78v1.08h-5.54v3.61h4.79v1.08h-4.79v3.64h5.54v1.08h-6.78v-10.5Z"/>
  </g>
</svg>