<?xml version="1.0" encoding="UTF-8"?>
<svg id="base" xmlns="http://www.w3.org/2000/svg" xmlns:xlink="http://www.w3.org/1999/xlink" viewBox="0 0 390 148">
  <defs>
    <style>
      .cls-1, .cls-2 {
        fill: none;
      }

      .cls-3 {
        clip-path: url(#clippath-17);
      }

      .cls-4 {
        clip-path: url(#clippath-19);
      }

      .cls-5 {
        clip-path: url(#clippath-11);
      }

      .cls-6 {
        clip-path: url(#clippath-16);
      }

      .cls-7 {
        clip-path: url(#clippath-18);
      }

      .cls-8 {
        clip-path: url(#clippath-10);
      }

      .cls-9 {
        clip-path: url(#clippath-15);
      }

      .cls-10 {
        clip-path: url(#clippath-13);
      }

      .cls-11 {
        clip-path: url(#clippath-14);
      }

      .cls-12 {
        clip-path: url(#clippath-12);
      }

      .cls-13 {
        clip-path: url(#clippath-31);
      }

      .cls-14 {
        clip-path: url(#clippath-32);
      }

      .cls-15 {
        clip-path: url(#clippath-33);
      }

      .cls-16 {
        clip-path: url(#clippath-34);
      }

      .cls-17 {
        clip-path: url(#clippath-35);
      }

      .cls-18 {
        clip-path: url(#clippath-30);
      }

      .cls-19 {
        clip-path: url(#clippath-27);
      }

      .cls-20 {
        clip-path: url(#clippath-29);
      }

      .cls-21 {
        clip-path: url(#clippath-26);
      }

      .cls-22 {
        clip-path: url(#clippath-28);
      }

      .cls-23 {
        clip-path: url(#clippath-20);
      }

      .cls-24 {
        clip-path: url(#clippath-21);
      }

      .cls-25 {
        clip-path: url(#clippath-22);
      }

      .cls-26 {
        clip-path: url(#clippath-23);
      }

      .cls-27 {
        clip-path: url(#clippath-24);
      }

      .cls-28 {
        clip-path: url(#clippath-25);
      }

      .cls-29 {
        clip-path: url(#clippath-1);
      }

      .cls-30 {
        clip-path: url(#clippath-3);
      }

      .cls-31 {
        clip-path: url(#clippath-4);
      }

      .cls-32 {
        clip-path: url(#clippath-2);
      }

      .cls-33 {
        clip-path: url(#clippath-7);
      }

      .cls-34 {
        clip-path: url(#clippath-6);
      }

      .cls-35 {
        clip-path: url(#clippath-9);
      }

      .cls-36 {
        clip-path: url(#clippath-8);
      }

      .cls-37 {
        clip-path: url(#clippath-5);
      }

      .cls-38 {
        fill: #fff;
      }

      .cls-2 {
        clip-rule: evenodd;
      }

      .cls-39 {
        fill: #fa5004;
      }

      .cls-40 {
        clip-path: url(#clippath);
      }
    </style>
    <clipPath id="clippath">
      <circle class="cls-1" cx="320.86" cy="31.86" r="3.86"/>
    </clipPath>
    <clipPath id="clippath-1">
      <circle class="cls-1" cx="320.86" cy="43.86" r="3.86"/>
    </clipPath>
    <clipPath id="clippath-2">
      <circle class="cls-1" cx="320.86" cy="55.87" r="3.86"/>
    </clipPath>
    <clipPath id="clippath-3">
      <circle class="cls-1" cx="320.86" cy="67.88" r="3.86"/>
    </clipPath>
    <clipPath id="clippath-4">
      <circle class="cls-1" cx="332.86" cy="31.86" r="3.86"/>
    </clipPath>
    <clipPath id="clippath-5">
      <circle class="cls-1" cx="332.86" cy="43.86" r="3.86"/>
    </clipPath>
    <clipPath id="clippath-6">
      <circle class="cls-1" cx="332.86" cy="55.87" r="3.86"/>
    </clipPath>
    <clipPath id="clippath-7">
      <circle class="cls-1" cx="332.86" cy="67.88" r="3.86"/>
    </clipPath>
    <clipPath id="clippath-8">
      <circle class="cls-1" cx="344.87" cy="31.86" r="3.86"/>
    </clipPath>
    <clipPath id="clippath-9">
      <circle class="cls-1" cx="344.87" cy="43.86" r="3.86"/>
    </clipPath>
    <clipPath id="clippath-10">
      <circle class="cls-1" cx="344.87" cy="55.87" r="3.86"/>
    </clipPath>
    <clipPath id="clippath-11">
      <circle class="cls-1" cx="344.87" cy="67.88" r="3.86"/>
    </clipPath>
    <clipPath id="clippath-12">
      <circle class="cls-1" cx="356.88" cy="31.86" r="3.86"/>
    </clipPath>
    <clipPath id="clippath-13">
      <circle class="cls-1" cx="356.88" cy="43.86" r="3.86"/>
    </clipPath>
    <clipPath id="clippath-14">
      <circle class="cls-1" cx="356.88" cy="55.87" r="3.86"/>
    </clipPath>
    <clipPath id="clippath-15">
      <circle class="cls-1" cx="356.88" cy="67.88" r="3.86"/>
    </clipPath>
    <clipPath id="clippath-16">
      <circle class="cls-1" cx="33.86" cy="31.86" r="3.86"/>
    </clipPath>
    <clipPath id="clippath-17">
      <circle class="cls-1" cx="33.86" cy="43.86" r="3.86"/>
    </clipPath>
    <clipPath id="clippath-18">
      <circle class="cls-1" cx="33.86" cy="55.87" r="3.86"/>
    </clipPath>
    <clipPath id="clippath-19">
      <circle class="cls-1" cx="33.86" cy="67.88" r="3.86"/>
    </clipPath>
    <clipPath id="clippath-20">
      <circle class="cls-1" cx="45.86" cy="31.86" r="3.86"/>
    </clipPath>
    <clipPath id="clippath-21">
      <circle class="cls-1" cx="45.86" cy="43.86" r="3.86"/>
    </clipPath>
    <clipPath id="clippath-22">
      <circle class="cls-1" cx="45.86" cy="55.87" r="3.86"/>
    </clipPath>
    <clipPath id="clippath-23">
      <circle class="cls-1" cx="45.86" cy="67.88" r="3.86"/>
    </clipPath>
    <clipPath id="clippath-24">
      <circle class="cls-1" cx="57.87" cy="31.86" r="3.86"/>
    </clipPath>
    <clipPath id="clippath-25">
      <circle class="cls-1" cx="57.87" cy="43.86" r="3.86"/>
    </clipPath>
    <clipPath id="clippath-26">
      <circle class="cls-1" cx="57.87" cy="55.87" r="3.86"/>
    </clipPath>
    <clipPath id="clippath-27">
      <circle class="cls-1" cx="57.87" cy="67.88" r="3.86"/>
    </clipPath>
    <clipPath id="clippath-28">
      <circle class="cls-1" cx="69.88" cy="31.86" r="3.86"/>
    </clipPath>
    <clipPath id="clippath-29">
      <circle class="cls-1" cx="69.88" cy="43.86" r="3.86"/>
    </clipPath>
    <clipPath id="clippath-30">
      <circle class="cls-1" cx="69.88" cy="55.87" r="3.86"/>
    </clipPath>
    <clipPath id="clippath-31">
      <circle class="cls-1" cx="69.88" cy="67.88" r="3.86"/>
    </clipPath>
    <clipPath id="clippath-32">
      <rect class="cls-1" x="80" y="22" width="116" height="55" rx="7" ry="7"/>
    </clipPath>
    <clipPath id="clippath-33">
      <path class="cls-2" d="M22.46,29c0-3.87,3.11-7,6.94-7h44.65c3.84,0,6.94,3.13,6.94,7v41c0,3.87-3.11,7-6.94,7H29.41c-3.84,0-6.94-3.13-6.94-7V29Z"/>
    </clipPath>
    <clipPath id="clippath-34">
      <rect class="cls-1" x="195" y="22" width="116" height="55" rx="7" ry="7"/>
    </clipPath>
    <clipPath id="clippath-35">
      <path class="cls-2" d="M310,29c0-3.87,3.16-7,7.06-7h44.36c3.9,0,7.06,3.13,7.06,7v41c0,3.87-3.16,7-7.06,7h-44.36c-3.9,0-7.06-3.13-7.06-7V29Z"/>
    </clipPath>
  </defs>
  <g>
    <path class="cls-39" d="M.5,147.5V22C.5,10.15,10.15.5,22,.5h346c11.86,0,21.5,9.65,21.5,21.5v125.5H.5Z"/>
    <path class="cls-38" d="M368,1c11.6,0,21,9.4,21,21v125H1V22C1,10.4,10.4,1,22,1h346M368,0H22C9.87,0,0,9.87,0,22v126h390V22c0-12.13-9.87-22-22-22h0Z"/>
  </g>
  <g id="pallini-dx">
    <g class="cls-40">
      <path class="cls-38" d="M320.86,28v1c1.58,0,2.86,1.28,2.86,2.86h2c0-2.68-2.18-4.86-4.86-4.86v1ZM317,31.86h1c0-1.58,1.28-2.86,2.86-2.86v-2c-2.68,0-4.86,2.18-4.86,4.86h1ZM320.86,35.72v-1c-1.58,0-2.86-1.28-2.86-2.86h-2c0,2.68,2.18,4.86,4.86,4.86v-1ZM324.72,31.86h-1c0,1.58-1.28,2.86-2.86,2.86v2c2.68,0,4.86-2.18,4.86-4.86h-1Z"/>
    </g>
    <g class="cls-29">
      <path class="cls-38" d="M320.86,40.01v1c1.58,0,2.86,1.28,2.86,2.86h2c0-2.68-2.18-4.86-4.86-4.86v1ZM317,43.86h1c0-1.58,1.28-2.86,2.86-2.86v-2c-2.68,0-4.86,2.18-4.86,4.86h1ZM320.86,47.72v-1c-1.58,0-2.86-1.28-2.86-2.86h-2c0,2.68,2.18,4.86,4.86,4.86v-1ZM324.72,43.86h-1c0,1.58-1.28,2.86-2.86,2.86v2c2.68,0,4.86-2.18,4.86-4.86h-1Z"/>
    </g>
    <g class="cls-32">
      <path class="cls-38" d="M320.86,52.01v1c1.58,0,2.86,1.28,2.86,2.86h2c0-2.68-2.18-4.86-4.86-4.86v1ZM317,55.87h1c0-1.58,1.28-2.86,2.86-2.86v-2c-2.68,0-4.86,2.18-4.86,4.86h1ZM320.86,59.73v-1c-1.58,0-2.86-1.28-2.86-2.86h-2c0,2.68,2.18,4.86,4.86,4.86v-1ZM324.72,55.87h-1c0,1.58-1.28,2.86-2.86,2.86v2c2.68,0,4.86-2.18,4.86-4.86h-1Z"/>
    </g>
    <g class="cls-30">
      <path class="cls-38" d="M320.86,64.02v1c1.58,0,2.86,1.28,2.86,2.86h2c0-2.68-2.18-4.86-4.86-4.86v1ZM317,67.88h1c0-1.58,1.28-2.86,2.86-2.86v-2c-2.68,0-4.86,2.18-4.86,4.86h1ZM320.86,71.73v-1c-1.58,0-2.86-1.28-2.86-2.86h-2c0,2.68,2.18,4.86,4.86,4.86v-1ZM324.72,67.88h-1c0,1.58-1.28,2.86-2.86,2.86v2c2.68,0,4.86-2.18,4.86-4.86h-1Z"/>
    </g>
    <g class="cls-31">
      <path class="cls-38" d="M332.86,28v1c1.58,0,2.86,1.28,2.86,2.86h2c0-2.68-2.18-4.86-4.86-4.86v1ZM329,31.86h1c0-1.58,1.28-2.86,2.86-2.86v-2c-2.68,0-4.86,2.18-4.86,4.86h1ZM332.86,35.72v-1c-1.58,0-2.86-1.28-2.86-2.86h-2c0,2.68,2.18,4.86,4.86,4.86v-1ZM336.72,31.86h-1c0,1.58-1.28,2.86-2.86,2.86v2c2.68,0,4.86-2.18,4.86-4.86h-1Z"/>
    </g>
    <g class="cls-37">
      <path class="cls-38" d="M332.86,40.01v1c1.58,0,2.86,1.28,2.86,2.86h2c0-2.68-2.18-4.86-4.86-4.86v1ZM329,43.86h1c0-1.58,1.28-2.86,2.86-2.86v-2c-2.68,0-4.86,2.18-4.86,4.86h1ZM332.86,47.72v-1c-1.58,0-2.86-1.28-2.86-2.86h-2c0,2.68,2.18,4.86,4.86,4.86v-1ZM336.72,43.86h-1c0,1.58-1.28,2.86-2.86,2.86v2c2.68,0,4.86-2.18,4.86-4.86h-1Z"/>
    </g>
    <g class="cls-34">
      <path class="cls-38" d="M332.86,52.01v1c1.58,0,2.86,1.28,2.86,2.86h2c0-2.68-2.18-4.86-4.86-4.86v1ZM329,55.87h1c0-1.58,1.28-2.86,2.86-2.86v-2c-2.68,0-4.86,2.18-4.86,4.86h1ZM332.86,59.73v-1c-1.58,0-2.86-1.28-2.86-2.86h-2c0,2.68,2.18,4.86,4.86,4.86v-1ZM336.72,55.87h-1c0,1.58-1.28,2.86-2.86,2.86v2c2.68,0,4.86-2.18,4.86-4.86h-1Z"/>
    </g>
    <g class="cls-33">
      <path class="cls-38" d="M332.86,64.02v1c1.58,0,2.86,1.28,2.86,2.86h2c0-2.68-2.18-4.86-4.86-4.86v1ZM329,67.88h1c0-1.58,1.28-2.86,2.86-2.86v-2c-2.68,0-4.86,2.18-4.86,4.86h1ZM332.86,71.73v-1c-1.58,0-2.86-1.28-2.86-2.86h-2c0,2.68,2.18,4.86,4.86,4.86v-1ZM336.72,67.88h-1c0,1.58-1.28,2.86-2.86,2.86v2c2.68,0,4.86-2.18,4.86-4.86h-1Z"/>
    </g>
    <g class="cls-36">
      <path class="cls-38" d="M344.87,28v1c1.58,0,2.86,1.28,2.86,2.86h2c0-2.68-2.18-4.86-4.86-4.86v1ZM341.01,31.86h1c0-1.58,1.28-2.86,2.86-2.86v-2c-2.68,0-4.86,2.18-4.86,4.86h1ZM344.87,35.72v-1c-1.58,0-2.86-1.28-2.86-2.86h-2c0,2.68,2.18,4.86,4.86,4.86v-1ZM348.73,31.86h-1c0,1.58-1.28,2.86-2.86,2.86v2c2.68,0,4.86-2.18,4.86-4.86h-1Z"/>
    </g>
    <g class="cls-35">
      <path class="cls-38" d="M344.87,40.01v1c1.58,0,2.86,1.28,2.86,2.86h2c0-2.68-2.18-4.86-4.86-4.86v1ZM341.01,43.86h1c0-1.58,1.28-2.86,2.86-2.86v-2c-2.68,0-4.86,2.18-4.86,4.86h1ZM344.87,47.72v-1c-1.58,0-2.86-1.28-2.86-2.86h-2c0,2.68,2.18,4.86,4.86,4.86v-1ZM348.73,43.86h-1c0,1.58-1.28,2.86-2.86,2.86v2c2.68,0,4.86-2.18,4.86-4.86h-1Z"/>
    </g>
    <g class="cls-8">
      <path class="cls-38" d="M344.87,52.01v1c1.58,0,2.86,1.28,2.86,2.86h2c0-2.68-2.18-4.86-4.86-4.86v1ZM341.01,55.87h1c0-1.58,1.28-2.86,2.86-2.86v-2c-2.68,0-4.86,2.18-4.86,4.86h1ZM344.87,59.73v-1c-1.58,0-2.86-1.28-2.86-2.86h-2c0,2.68,2.18,4.86,4.86,4.86v-1ZM348.73,55.87h-1c0,1.58-1.28,2.86-2.86,2.86v2c2.68,0,4.86-2.18,4.86-4.86h-1Z"/>
    </g>
    <g class="cls-5">
      <path class="cls-38" d="M344.87,64.02v1c1.58,0,2.86,1.28,2.86,2.86h2c0-2.68-2.18-4.86-4.86-4.86v1ZM341.01,67.88h1c0-1.58,1.28-2.86,2.86-2.86v-2c-2.68,0-4.86,2.18-4.86,4.86h1ZM344.87,71.73v-1c-1.58,0-2.86-1.28-2.86-2.86h-2c0,2.68,2.18,4.86,4.86,4.86v-1ZM348.73,67.88h-1c0,1.58-1.28,2.86-2.86,2.86v2c2.68,0,4.86-2.18,4.86-4.86h-1Z"/>
    </g>
    <g class="cls-12">
      <path class="cls-38" d="M356.88,28v1c1.58,0,2.86,1.28,2.86,2.86h2c0-2.68-2.18-4.86-4.86-4.86v1ZM353.02,31.86h1c0-1.58,1.28-2.86,2.86-2.86v-2c-2.68,0-4.86,2.18-4.86,4.86h1ZM356.88,35.72v-1c-1.58,0-2.86-1.28-2.86-2.86h-2c0,2.68,2.18,4.86,4.86,4.86v-1ZM360.73,31.86h-1c0,1.58-1.28,2.86-2.86,2.86v2c2.68,0,4.86-2.18,4.86-4.86h-1Z"/>
    </g>
    <g class="cls-10">
      <path class="cls-38" d="M356.88,40.01v1c1.58,0,2.86,1.28,2.86,2.86h2c0-2.68-2.18-4.86-4.86-4.86v1ZM353.02,43.86h1c0-1.58,1.28-2.86,2.86-2.86v-2c-2.68,0-4.86,2.18-4.86,4.86h1ZM356.88,47.72v-1c-1.58,0-2.86-1.28-2.86-2.86h-2c0,2.68,2.18,4.86,4.86,4.86v-1ZM360.73,43.86h-1c0,1.58-1.28,2.86-2.86,2.86v2c2.68,0,4.86-2.18,4.86-4.86h-1Z"/>
    </g>
    <g class="cls-11">
      <path class="cls-38" d="M356.88,52.01v1c1.58,0,2.86,1.28,2.86,2.86h2c0-2.68-2.18-4.86-4.86-4.86v1ZM353.02,55.87h1c0-1.58,1.28-2.86,2.86-2.86v-2c-2.68,0-4.86,2.18-4.86,4.86h1ZM356.88,59.73v-1c-1.58,0-2.86-1.28-2.86-2.86h-2c0,2.68,2.18,4.86,4.86,4.86v-1ZM360.73,55.87h-1c0,1.58-1.28,2.86-2.86,2.86v2c2.68,0,4.86-2.18,4.86-4.86h-1Z"/>
    </g>
    <g class="cls-9">
      <path class="cls-38" d="M356.88,64.02v1c1.58,0,2.86,1.28,2.86,2.86h2c0-2.68-2.18-4.86-4.86-4.86v1ZM353.02,67.88h1c0-1.58,1.28-2.86,2.86-2.86v-2c-2.68,0-4.86,2.18-4.86,4.86h1ZM356.88,71.73v-1c-1.58,0-2.86-1.28-2.86-2.86h-2c0,2.68,2.18,4.86,4.86,4.86v-1ZM360.73,67.88h-1c0,1.58-1.28,2.86-2.86,2.86v2c2.68,0,4.86-2.18,4.86-4.86h-1Z"/>
    </g>
  </g>
  <g id="pallini-sx">
    <g class="cls-6">
      <path class="cls-38" d="M33.86,28v1c1.58,0,2.86,1.28,2.86,2.86h2c0-2.68-2.18-4.86-4.86-4.86v1ZM30,31.86h1c0-1.58,1.28-2.86,2.86-2.86v-2c-2.68,0-4.86,2.18-4.86,4.86h1ZM33.86,35.72v-1c-1.58,0-2.86-1.28-2.86-2.86h-2c0,2.68,2.18,4.86,4.86,4.86v-1ZM37.72,31.86h-1c0,1.58-1.28,2.86-2.86,2.86v2c2.68,0,4.86-2.18,4.86-4.86h-1Z"/>
    </g>
    <g class="cls-3">
      <path class="cls-38" d="M33.86,40.01v1c1.58,0,2.86,1.28,2.86,2.86h2c0-2.68-2.18-4.86-4.86-4.86v1ZM30,43.86h1c0-1.58,1.28-2.86,2.86-2.86v-2c-2.68,0-4.86,2.18-4.86,4.86h1ZM33.86,47.72v-1c-1.58,0-2.86-1.28-2.86-2.86h-2c0,2.68,2.18,4.86,4.86,4.86v-1ZM37.72,43.86h-1c0,1.58-1.28,2.86-2.86,2.86v2c2.68,0,4.86-2.18,4.86-4.86h-1Z"/>
    </g>
    <g class="cls-7">
      <path class="cls-38" d="M33.86,52.01v1c1.58,0,2.86,1.28,2.86,2.86h2c0-2.68-2.18-4.86-4.86-4.86v1ZM30,55.87h1c0-1.58,1.28-2.86,2.86-2.86v-2c-2.68,0-4.86,2.18-4.86,4.86h1ZM33.86,59.73v-1c-1.58,0-2.86-1.28-2.86-2.86h-2c0,2.68,2.18,4.86,4.86,4.86v-1ZM37.72,55.87h-1c0,1.58-1.28,2.86-2.86,2.86v2c2.68,0,4.86-2.18,4.86-4.86h-1Z"/>
    </g>
    <g class="cls-4">
      <path class="cls-38" d="M33.86,64.02v1c1.58,0,2.86,1.28,2.86,2.86h2c0-2.68-2.18-4.86-4.86-4.86v1ZM30,67.88h1c0-1.58,1.28-2.86,2.86-2.86v-2c-2.68,0-4.86,2.18-4.86,4.86h1ZM33.86,71.73v-1c-1.58,0-2.86-1.28-2.86-2.86h-2c0,2.68,2.18,4.86,4.86,4.86v-1ZM37.72,67.88h-1c0,1.58-1.28,2.86-2.86,2.86v2c2.68,0,4.86-2.18,4.86-4.86h-1Z"/>
    </g>
    <g class="cls-23">
      <path class="cls-38" d="M45.86,28v1c1.58,0,2.86,1.28,2.86,2.86h2c0-2.68-2.18-4.86-4.86-4.86v1ZM42,31.86h1c0-1.58,1.28-2.86,2.86-2.86v-2c-2.68,0-4.86,2.18-4.86,4.86h1ZM45.86,35.72v-1c-1.58,0-2.86-1.28-2.86-2.86h-2c0,2.68,2.18,4.86,4.86,4.86v-1ZM49.72,31.86h-1c0,1.58-1.28,2.86-2.86,2.86v2c2.68,0,4.86-2.18,4.86-4.86h-1Z"/>
    </g>
    <g class="cls-24">
      <path class="cls-38" d="M45.86,40.01v1c1.58,0,2.86,1.28,2.86,2.86h2c0-2.68-2.18-4.86-4.86-4.86v1ZM42,43.86h1c0-1.58,1.28-2.86,2.86-2.86v-2c-2.68,0-4.86,2.18-4.86,4.86h1ZM45.86,47.72v-1c-1.58,0-2.86-1.28-2.86-2.86h-2c0,2.68,2.18,4.86,4.86,4.86v-1ZM49.72,43.86h-1c0,1.58-1.28,2.86-2.86,2.86v2c2.68,0,4.86-2.18,4.86-4.86h-1Z"/>
    </g>
    <g class="cls-25">
      <path class="cls-38" d="M45.86,52.01v1c1.58,0,2.86,1.28,2.86,2.86h2c0-2.68-2.18-4.86-4.86-4.86v1ZM42,55.87h1c0-1.58,1.28-2.86,2.86-2.86v-2c-2.68,0-4.86,2.18-4.86,4.86h1ZM45.86,59.73v-1c-1.58,0-2.86-1.28-2.86-2.86h-2c0,2.68,2.18,4.86,4.86,4.86v-1ZM49.72,55.87h-1c0,1.58-1.28,2.86-2.86,2.86v2c2.68,0,4.86-2.18,4.86-4.86h-1Z"/>
    </g>
    <g class="cls-26">
      <path class="cls-38" d="M45.86,64.02v1c1.58,0,2.86,1.28,2.86,2.86h2c0-2.68-2.18-4.86-4.86-4.86v1ZM42,67.88h1c0-1.58,1.28-2.86,2.86-2.86v-2c-2.68,0-4.86,2.18-4.86,4.86h1ZM45.86,71.73v-1c-1.58,0-2.86-1.28-2.86-2.86h-2c0,2.68,2.18,4.86,4.86,4.86v-1ZM49.72,67.88h-1c0,1.58-1.28,2.86-2.86,2.86v2c2.68,0,4.86-2.18,4.86-4.86h-1Z"/>
    </g>
    <g class="cls-27">
      <path class="cls-38" d="M57.87,28v1c1.58,0,2.86,1.28,2.86,2.86h2c0-2.68-2.18-4.86-4.86-4.86v1ZM54.01,31.86h1c0-1.58,1.28-2.86,2.86-2.86v-2c-2.68,0-4.86,2.18-4.86,4.86h1ZM57.87,35.72v-1c-1.58,0-2.86-1.28-2.86-2.86h-2c0,2.68,2.18,4.86,4.86,4.86v-1ZM61.73,31.86h-1c0,1.58-1.28,2.86-2.86,2.86v2c2.68,0,4.86-2.18,4.86-4.86h-1Z"/>
    </g>
    <g class="cls-28">
      <path class="cls-38" d="M57.87,40.01v1c1.58,0,2.86,1.28,2.86,2.86h2c0-2.68-2.18-4.86-4.86-4.86v1ZM54.01,43.86h1c0-1.58,1.28-2.86,2.86-2.86v-2c-2.68,0-4.86,2.18-4.86,4.86h1ZM57.87,47.72v-1c-1.58,0-2.86-1.28-2.86-2.86h-2c0,2.68,2.18,4.86,4.86,4.86v-1ZM61.73,43.86h-1c0,1.58-1.28,2.86-2.86,2.86v2c2.68,0,4.86-2.18,4.86-4.86h-1Z"/>
    </g>
    <g class="cls-21">
      <path class="cls-38" d="M57.87,52.01v1c1.58,0,2.86,1.28,2.86,2.86h2c0-2.68-2.18-4.86-4.86-4.86v1ZM54.01,55.87h1c0-1.58,1.28-2.86,2.86-2.86v-2c-2.68,0-4.86,2.18-4.86,4.86h1ZM57.87,59.73v-1c-1.58,0-2.86-1.28-2.86-2.86h-2c0,2.68,2.18,4.86,4.86,4.86v-1ZM61.73,55.87h-1c0,1.58-1.28,2.86-2.86,2.86v2c2.68,0,4.86-2.18,4.86-4.86h-1Z"/>
    </g>
    <g class="cls-19">
      <path class="cls-38" d="M57.87,64.02v1c1.58,0,2.86,1.28,2.86,2.86h2c0-2.68-2.18-4.86-4.86-4.86v1ZM54.01,67.88h1c0-1.58,1.28-2.86,2.86-2.86v-2c-2.68,0-4.86,2.18-4.86,4.86h1ZM57.87,71.73v-1c-1.58,0-2.86-1.28-2.86-2.86h-2c0,2.68,2.18,4.86,4.86,4.86v-1ZM61.73,67.88h-1c0,1.58-1.28,2.86-2.86,2.86v2c2.68,0,4.86-2.18,4.86-4.86h-1Z"/>
    </g>
    <g class="cls-22">
      <path class="cls-38" d="M69.88,28v1c1.58,0,2.86,1.28,2.86,2.86h2c0-2.68-2.18-4.86-4.86-4.86v1ZM66.02,31.86h1c0-1.58,1.28-2.86,2.86-2.86v-2c-2.68,0-4.86,2.18-4.86,4.86h1ZM69.88,35.72v-1c-1.58,0-2.86-1.28-2.86-2.86h-2c0,2.68,2.18,4.86,4.86,4.86v-1ZM73.73,31.86h-1c0,1.58-1.28,2.86-2.86,2.86v2c2.68,0,4.86-2.18,4.86-4.86h-1Z"/>
    </g>
    <g class="cls-20">
      <path class="cls-38" d="M69.88,40.01v1c1.58,0,2.86,1.28,2.86,2.86h2c0-2.68-2.18-4.86-4.86-4.86v1ZM66.02,43.86h1c0-1.58,1.28-2.86,2.86-2.86v-2c-2.68,0-4.86,2.18-4.86,4.86h1ZM69.88,47.72v-1c-1.58,0-2.86-1.28-2.86-2.86h-2c0,2.68,2.18,4.86,4.86,4.86v-1ZM73.73,43.86h-1c0,1.58-1.28,2.86-2.86,2.86v2c2.68,0,4.86-2.18,4.86-4.86h-1Z"/>
    </g>
    <g class="cls-18">
      <path class="cls-38" d="M69.88,52.01v1c1.58,0,2.86,1.28,2.86,2.86h2c0-2.68-2.18-4.86-4.86-4.86v1ZM66.02,55.87h1c0-1.58,1.28-2.86,2.86-2.86v-2c-2.68,0-4.86,2.18-4.86,4.86h1ZM69.88,59.73v-1c-1.58,0-2.86-1.28-2.86-2.86h-2c0,2.68,2.18,4.86,4.86,4.86v-1ZM73.73,55.87h-1c0,1.58-1.28,2.86-2.86,2.86v2c2.68,0,4.86-2.18,4.86-4.86h-1Z"/>
    </g>
    <g class="cls-13">
      <path class="cls-38" d="M69.88,64.02v1c1.58,0,2.86,1.28,2.86,2.86h2c0-2.68-2.18-4.86-4.86-4.86v1ZM66.02,67.88h1c0-1.58,1.28-2.86,2.86-2.86v-2c-2.68,0-4.86,2.18-4.86,4.86h1ZM69.88,71.73v-1c-1.58,0-2.86-1.28-2.86-2.86h-2c0,2.68,2.18,4.86,4.86,4.86v-1ZM73.73,67.88h-1c0,1.58-1.28,2.86-2.86,2.86v2c2.68,0,4.86-2.18,4.86-4.86h-1Z"/>
    </g>
  </g>
  <path id="txt-beat" class="cls-38" d="M260.83,45.58v-1.08h8.48v1.08h-3.62v9.42h-1.24v-9.42h-3.61ZM257.37,45.82l-2.02,5.4h4.05l-2.02-5.4ZM258.15,44.5l3.87,10.5h-1.3l-.99-2.7h-4.71l-.99,2.7h-1.27l3.89-10.5h1.51ZM245.38,55v-10.5h6.78v1.08h-5.54v3.61h4.79v1.08h-4.79v3.64h5.54v1.08h-6.78ZM242.41,48v-1.22c0-.74-.46-1.2-1.2-1.2h-3.92v3.61h3.92c.74,0,1.2-.46,1.2-1.2ZM242.49,52.71v-1.22c0-.75-.46-1.21-1.2-1.21h-3.99v3.64h3.99c.74,0,1.2-.48,1.2-1.21ZM243.65,46.74v.96c0,.99-.51,1.74-1.29,2.04.82.28,1.36,1.03,1.36,2.06v.97c0,1.33-.9,2.24-2.24,2.24h-5.44v-10.5h5.37c1.34,0,2.24.89,2.24,2.24Z"/>
  <g class="cls-14">
    <path class="cls-38" d="M87,22v-1c-4.42,0-8,3.58-8,8h2c0-3.31,2.69-6,6-6v-1ZM189,22v1c3.31,0,6,2.69,6,6h2c0-4.42-3.58-8-8-8v1ZM196,70h-1c0,3.31-2.69,6-6,6v2c4.42,0,8-3.58,8-8h-1ZM87,77v-1c-3.31,0-6-2.69-6-6h-2c0,4.42,3.58,8,8,8v-1ZM80,70h1V29h-2v41h1ZM189,77v-1h-102v2h102v-1ZM196,29h-1v41h2V29h-1ZM87,22v1h102v-2h-102v1Z"/>
  </g>
  <g class="cls-15">
    <path class="cls-38" d="M29.41,22v-1c-4.38,0-7.94,3.58-7.94,8h1.98c0-3.31,2.67-6,5.95-6v-1ZM74.06,22v1c3.29,0,5.95,2.69,5.95,6h1.98c0-4.42-3.55-8-7.94-8v1ZM81,70h-.99c0,3.31-2.67,6-5.95,6v2c4.38,0,7.94-3.58,7.94-8h-.99ZM29.41,77v-1c-3.29,0-5.95-2.69-5.95-6h-1.98c0,4.42,3.55,8,7.94,8v-1ZM22.46,70h.99V29h-1.98v41h.99ZM74.06,77v-1H29.41v2h44.65v-1ZM81,29h-.99v41h1.98V29h-.99ZM29.41,22v1h44.65v-2H29.41v1Z"/>
  </g>
  <g class="cls-16">
    <path class="cls-38" d="M202,22v-1c-4.42,0-8,3.58-8,8h2c0-3.31,2.69-6,6-6v-1ZM304,22v1c3.31,0,6,2.69,6,6h2c0-4.42-3.58-8-8-8v1ZM311,70h-1c0,3.31-2.69,6-6,6v2c4.42,0,8-3.58,8-8h-1ZM202,77v-1c-3.31,0-6-2.69-6-6h-2c0,4.42,3.58,8,8,8v-1ZM195,70h1V29h-2v41h1ZM304,77v-1h-102v2h102v-1ZM311,29h-1v41h2V29h-1ZM202,22v1h102v-2h-102v1Z"/>
  </g>
  <g class="cls-17">
    <path class="cls-38" d="M317.06,22v-1c-4.45,0-8.07,3.58-8.07,8h2.02c0-3.31,2.71-6,6.05-6v-1ZM361.42,22v1c3.34,0,6.05,2.69,6.05,6h2.02c0-4.42-3.61-8-8.07-8v1ZM368.47,70h-1.01c0,3.31-2.71,6-6.05,6v2c4.45,0,8.07-3.58,8.07-8h-1.01ZM317.06,77v-1c-3.34,0-6.05-2.69-6.05-6h-2.02c0,4.42,3.61,8,8.07,8v-1ZM310,70h1.01V29h-2.02v41h1.01ZM361.42,77v-1h-44.36v2h44.36v-1ZM368.47,29h-1.01v41h2.02V29h-1.01ZM317.06,22v1h44.36v-2h-44.36v1Z"/>
  </g>
  <g>
    <path class="cls-38" d="M118.66,51.43v1.33c0,1.33-.9,2.23-2.23,2.23h-3.21c-1.33,0-2.23-.9-2.23-2.23v-.92h1.25v.85c0,.75.46,1.21,1.2,1.21h2.79c.73,0,1.2-.46,1.2-1.21v-1.21c0-.73-.47-1.21-1.2-1.21h-3c-1.33,0-2.23-.9-2.23-2.24v-1.3c0-1.35.9-2.23,2.23-2.23h3.21c1.33,0,2.23.88,2.23,2.23v.92h-1.24v-.87c0-.73-.47-1.2-1.2-1.2h-2.79c-.73,0-1.2.46-1.2,1.2v1.21c0,.74.46,1.2,1.2,1.2h3c1.33,0,2.23.9,2.23,2.23Z"/>
    <path class="cls-38" d="M128.98,55h-1.3l-.99-2.7h-4.71l-.99,2.7h-1.27l3.88-10.5h1.52l3.87,10.5ZM122.3,51.22h4.05l-2.02-5.4-2.02,5.4Z"/>
    <path class="cls-38" d="M137.83,46.95l-3.28,6.13-3.27-6.13v8.05h-1.25v-10.5h1.2l3.31,6.21,3.31-6.21h1.2v10.5h-1.23v-8.05Z"/>
    <path class="cls-38" d="M146.3,51.03h-3.9v3.97h-1.25v-10.5h5.15c1.33,0,2.23.88,2.23,2.23v2.05c0,1.33-.9,2.24-2.23,2.24ZM147.29,46.78c0-.73-.46-1.2-1.2-1.2h-3.69v4.36h3.69c.73,0,1.2-.46,1.2-1.2v-1.96Z"/>
    <path class="cls-38" d="M150.11,44.5h1.25v9.42h5.54v1.08h-6.78v-10.5Z"/>
    <path class="cls-38" d="M158.24,44.5h6.78v1.08h-5.54v3.61h4.79v1.08h-4.79v3.64h5.54v1.08h-6.78v-10.5Z"/>
  </g>
</svg>