<?xml version="1.0" encoding="UTF-8"?>
<svg xmlns="http://www.w3.org/2000/svg" viewBox="0 0 390 148">
  <g id="mobileBtn1">
    <rect id="base1" x="22.97" y="76.5" width="57.5" height="57.5" rx="10" ry="10" style="fill: #fa5004; stroke: #fff; stroke-miterlimit: 10;"/>
    <g id="cerchio1">
      <path d="M51.72,126.7c-11.83,0-21.45-9.62-21.45-21.44s9.62-21.45,21.45-21.45,21.44,9.62,21.44,21.45-9.62,21.44-21.44,21.44Z" style="fill: #fa5004;"/>
      <path d="M51.72,84.31c11.57,0,20.94,9.38,20.94,20.94s-9.38,20.94-20.94,20.94-20.94-9.38-20.94-20.94,9.38-20.94,20.94-20.94M51.72,83.31c-12.1,0-21.94,9.84-21.94,21.94s9.84,21.94,21.94,21.94,21.94-9.84,21.94-21.94-9.84-21.94-21.94-21.94h0Z" style="fill: #fff;"/>
    </g>
    <g id="next1">
      <path d="M51.37,104.39c-.67.38-.67,1.35,0,1.73l9.59,5.54c.67.38,1.5-.1,1.5-.87v-11.08c0-.77-.83-1.25-1.5-.87l-9.59,5.54Z" style="fill: #fff;"/>
      <path d="M40.65,104.39c-.67.38-.67,1.35,0,1.73l9.59,5.54c.67.38,1.5-.1,1.5-.87v-11.08c0-.77-.83-1.25-1.5-.87l-9.59,5.54Z" style="fill: #fff;"/>
    </g>
  </g>
  <g id="mobileBtn2">
    <rect id="base2" x="80.47" y="76.5" width="57.5" height="57.5" rx="10" ry="10" style="fill: #fa5004; stroke: #fff; stroke-miterlimit: 10;"/>
    <g id="cerchio2">
      <path d="M109.22,126.7c-11.83,0-21.45-9.62-21.45-21.44s9.62-21.45,21.45-21.45,21.44,9.62,21.44,21.45-9.62,21.44-21.44,21.44Z" style="fill: #fff;"/>
      <path d="M109.22,84.31c11.57,0,20.94,9.38,20.94,20.94s-9.38,20.94-20.94,20.94-20.94-9.38-20.94-20.94,9.38-20.94,20.94-20.94M109.22,83.31c-12.1,0-21.94,9.84-21.94,21.94s9.84,21.94,21.94,21.94,21.94-9.84,21.94-21.94-9.84-21.94-21.94-21.94h0Z" style="fill: #fa5004;"/>
    </g>
    <path id="play2" d="M117.42,104.61c.67.38.67,1.35,0,1.73l-12.11,6.99c-.67.38-1.5-.1-1.5-.87v-13.98c0-.77.83-1.25,1.5-.87l12.11,6.99Z" style="fill: #fa5004;"/>
  </g>
  <g id="mobileBtn3">
    <rect id="base3" x="137.97" y="76.5" width="57.5" height="57.5" rx="10" ry="10" style="fill: #fa5004; stroke: #fff; stroke-miterlimit: 10;"/>
    <g id="cerchio3">
      <path d="M166.72,126.7c-11.83,0-21.45-9.62-21.45-21.44s9.62-21.45,21.45-21.45,21.44,9.62,21.44,21.45-9.62,21.44-21.44,21.44Z" style="fill: #fff;"/>
      <path d="M166.72,84.31c11.57,0,20.94,9.38,20.94,20.94s-9.38,20.94-20.94,20.94-20.94-9.38-20.94-20.94,9.38-20.94,20.94-20.94M166.72,83.31c-12.1,0-21.94,9.84-21.94,21.94s9.84,21.94,21.94,21.94,21.94-9.84,21.94-21.94-9.84-21.94-21.94-21.94h0Z" style="fill: #fa5004;"/>
    </g>
    <g id="pausa3">
      <path d="M161.21,99.54c0-.96.78-1.74,1.74-1.74s1.74.78,1.74,1.74v11.43c0,.96-.78,1.74-1.74,1.74s-1.74-.78-1.74-1.74v-11.43Z" style="fill: #fa5004;"/>
      <path d="M168.75,99.54c0-.96.78-1.74,1.74-1.74s1.74.78,1.74,1.74v11.43c0,.96-.78,1.74-1.74,1.74s-1.74-.78-1.74-1.74v-11.43Z" style="fill: #fa5004;"/>
    </g>
  </g>
  <g id="mobileBtn4">
    <rect id="base4" x="195.47" y="76.5" width="57.5" height="57.5" rx="10" ry="10" style="fill: #fa5004; stroke: #fff; stroke-miterlimit: 10;"/>
    <g id="cerchio4">
      <path d="M224.22,126.7c-11.83,0-21.45-9.62-21.45-21.44s9.62-21.45,21.45-21.45,21.44,9.62,21.44,21.45-9.62,21.44-21.44,21.44Z" style="fill: #fff;"/>
      <path d="M224.22,84.31c11.57,0,20.94,9.38,20.94,20.94s-9.38,20.94-20.94,20.94-20.94-9.38-20.94-20.94,9.38-20.94,20.94-20.94M224.22,83.31c-12.1,0-21.94,9.84-21.94,21.94s9.84,21.94,21.94,21.94,21.94-9.84,21.94-21.94-9.84-21.94-21.94-21.94h0Z" style="fill: #fa5004;"/>
    </g>
    <path id="play4" d="M232.42,104.61c.67.38.67,1.35,0,1.73l-12.11,6.99c-.67.38-1.5-.1-1.5-.87v-13.98c0-.77.83-1.25,1.5-.87l12.11,6.99Z" style="fill: #fa5004;"/>
  </g>
  <g id="mobileBtn5">
    <rect id="base5" x="252.97" y="76.5" width="57.5" height="57.5" rx="10" ry="10" style="fill: #fa5004; stroke: #fff; stroke-miterlimit: 10;"/>
    <g id="cerchio5">
      <path d="M281.72,126.7c-11.83,0-21.45-9.62-21.45-21.44s9.62-21.45,21.45-21.45,21.44,9.62,21.44,21.45-9.62,21.44-21.44,21.44Z" style="fill: #fff;"/>
      <path d="M281.72,84.31c11.57,0,20.94,9.38,20.94,20.94s-9.38,20.94-20.94,20.94-20.94-9.38-20.94-20.94,9.38-20.94,20.94-20.94M281.72,83.31c-12.1,0-21.94,9.84-21.94,21.94s9.84,21.94,21.94,21.94,21.94-9.84,21.94-21.94-9.84-21.94-21.94-21.94h0Z" style="fill: #fa5004;"/>
    </g>
    <g id="pausa5">
      <path d="M276.21,99.54c0-.96.78-1.74,1.74-1.74s1.74.78,1.74,1.74v11.43c0,.96-.78,1.74-1.74,1.74s-1.74-.78-1.74-1.74v-11.43Z" style="fill: #fa5004;"/>
      <path d="M283.75,99.54c0-.96.78-1.74,1.74-1.74s1.74.78,1.74,1.74v11.43c0,.96-.78,1.74-1.74,1.74s-1.74-.78-1.74-1.74v-11.43Z" style="fill: #fa5004;"/>
    </g>
  </g>
  <g id="mobileBtn6">
    <rect id="base6" x="310.47" y="76.5" width="57.5" height="57.5" rx="10" ry="10" style="fill: #fa5004; stroke: #fff; stroke-miterlimit: 10;"/>
    <g id="cerchio6">
      <path d="M339.22,126.7c-11.83,0-21.45-9.62-21.45-21.44s9.62-21.45,21.45-21.45,21.44,9.62,21.44,21.45-9.62,21.44-21.44,21.44Z" style="fill: #fa5004;"/>
      <path d="M339.22,84.31c11.57,0,20.94,9.38,20.94,20.94s-9.38,20.94-20.94,20.94-20.94-9.38-20.94-20.94,9.38-20.94,20.94-20.94M339.22,83.31c-12.1,0-21.94,9.84-21.94,21.94s9.84,21.94,21.94,21.94,21.94-9.84,21.94-21.94-9.84-21.94-21.94-21.94h0Z" style="fill: #fff;"/>
    </g>
    <g id="next6">
      <path d="M340.09,104.39c.67.38.67,1.35,0,1.73l-9.59,5.54c-.67.38-1.5-.1-1.5-.87v-11.08c0-.77.83-1.25,1.5-.87l9.59,5.54Z" style="fill: #fff;"/>
      <path d="M350.81,104.39c.67.38.67,1.35,0,1.73l-9.59,5.54c-.67.38-1.5-.1-1.5-.87v-11.08c0-.77.83-1.25,1.5-.87l9.59,5.54Z" style="fill: #fff;"/>
    </g>
  </g>
</svg>