<?xml version="1.0" encoding="UTF-8"?>
<svg xmlns="http://www.w3.org/2000/svg" viewBox="0 0 390 148">
  <defs>
    <style>
      .cls-1 {
        fill: #fff;
      }

      .cls-2 {
        stroke: #fff;
        stroke-miterlimit: 10;
      }

      .cls-2, .cls-3 {
        fill: #fa5004;
      }
    </style>
  </defs>
  <g id="mobileBtn1">
    <rect id="base1" class="cls-2" x="22.97" y="76.5" width="57.5" height="57.5" rx="10" ry="10"/>
    <g id="cerchio1">
      <path class="cls-3" d="M50.81,126.73c-11.82,0-21.44-9.62-21.44-21.44s9.62-21.45,21.44-21.45,21.44,9.62,21.44,21.45-9.62,21.44-21.44,21.44Z"/>
      <path class="cls-1" d="M50.81,84.34c11.57,0,20.94,9.38,20.94,20.94s-9.38,20.94-20.94,20.94-20.94-9.38-20.94-20.94,9.38-20.94,20.94-20.94M50.81,83.34c-12.1,0-21.94,9.84-21.94,21.94s9.84,21.94,21.94,21.94,21.94-9.84,21.94-21.94-9.84-21.94-21.94-21.94h0Z"/>
    </g>
    <g id="next1">
      <path class="cls-1" d="M50.45,104.42c-.67.38-.67,1.35,0,1.73l9.59,5.54c.67.38,1.5-.1,1.5-.87v-11.08c0-.77-.83-1.25-1.5-.87l-9.59,5.54Z"/>
      <path class="cls-1" d="M39.74,104.42c-.67.38-.67,1.35,0,1.73l9.59,5.54c.67.38,1.5-.1,1.5-.87v-11.08c0-.77-.83-1.25-1.5-.87l-9.59,5.54Z"/>
    </g>
  </g>
  <g id="mobileBtn2">
    <rect id="base2" class="cls-2" x="80.47" y="76.5" width="57.5" height="57.5" rx="10" ry="10"/>
    <g>
      <g id="cerchio1-2" data-name="cerchio1">
        <path class="cls-1" d="M109.22,126.95c-11.83,0-21.45-9.62-21.45-21.44s9.62-21.45,21.45-21.45,21.44,9.62,21.44,21.45-9.62,21.44-21.44,21.44Z"/>
        <path class="cls-3" d="M109.22,84.56c11.57,0,20.94,9.38,20.94,20.94s-9.38,20.94-20.94,20.94-20.94-9.38-20.94-20.94,9.38-20.94,20.94-20.94M109.22,83.56c-12.1,0-21.94,9.84-21.94,21.94s9.84,21.94,21.94,21.94,21.94-9.84,21.94-21.94-9.84-21.94-21.94-21.94h0Z"/>
      </g>
      <path id="play2" class="cls-3" d="M117.42,104.87c.67.38.67,1.35,0,1.73l-12.11,6.99c-.67.38-1.5-.1-1.5-.87v-13.98c0-.77.83-1.25,1.5-.87l12.11,6.99Z"/>
    </g>
  </g>
  <g id="mobileBtn3">
    <rect id="base3" class="cls-2" x="137.97" y="76.5" width="57.5" height="57.5" rx="10" ry="10"/>
    <g id="cerchio1-3" data-name="cerchio1">
      <path class="cls-1" d="M166.72,126.95c-11.83,0-21.45-9.62-21.45-21.44s9.62-21.45,21.45-21.45,21.44,9.62,21.44,21.45-9.62,21.44-21.44,21.44Z"/>
      <path class="cls-3" d="M166.72,84.56c11.57,0,20.94,9.38,20.94,20.94s-9.38,20.94-20.94,20.94-20.94-9.38-20.94-20.94,9.38-20.94,20.94-20.94M166.72,83.56c-12.1,0-21.94,9.84-21.94,21.94s9.84,21.94,21.94,21.94,21.94-9.84,21.94-21.94-9.84-21.94-21.94-21.94h0Z"/>
    </g>
    <g id="pausa5">
      <path class="cls-3" d="M161.21,99.79c0-.96.78-1.74,1.74-1.74s1.74.78,1.74,1.74v11.43c0,.96-.78,1.74-1.74,1.74s-1.74-.78-1.74-1.74v-11.43Z"/>
      <path class="cls-3" d="M168.75,99.79c0-.96.78-1.74,1.74-1.74s1.74.78,1.74,1.74v11.43c0,.96-.78,1.74-1.74,1.74s-1.74-.78-1.74-1.74v-11.43Z"/>
    </g>
  </g>
  <g id="mobileBtn4">
    <rect id="base4" class="cls-2" x="195.47" y="76.5" width="57.5" height="57.5" rx="10" ry="10"/>
    <g>
      <g id="cerchio1-4" data-name="cerchio1">
        <path class="cls-1" d="M224.22,126.95c-11.83,0-21.45-9.62-21.45-21.44s9.62-21.45,21.45-21.45,21.44,9.62,21.44,21.45-9.62,21.44-21.44,21.44Z"/>
        <path class="cls-3" d="M224.22,84.56c11.57,0,20.94,9.38,20.94,20.94s-9.38,20.94-20.94,20.94-20.94-9.38-20.94-20.94,9.38-20.94,20.94-20.94M224.22,83.56c-12.1,0-21.94,9.84-21.94,21.94s9.84,21.94,21.94,21.94,21.94-9.84,21.94-21.94-9.84-21.94-21.94-21.94h0Z"/>
      </g>
      <path id="play2-2" data-name="play2" class="cls-3" d="M232.42,104.87c.67.38.67,1.35,0,1.73l-12.11,6.99c-.67.38-1.5-.1-1.5-.87v-13.98c0-.77.83-1.25,1.5-.87l12.11,6.99Z"/>
    </g>
  </g>
  <g id="mobileBtn5">
    <rect id="base5" class="cls-2" x="252.97" y="76.5" width="57.5" height="57.5" rx="10" ry="10"/>
    <g>
      <g id="cerchio1-5" data-name="cerchio1">
        <path class="cls-1" d="M281.72,126.95c-11.83,0-21.45-9.62-21.45-21.44s9.62-21.45,21.45-21.45,21.44,9.62,21.44,21.45-9.62,21.44-21.44,21.44Z"/>
        <path class="cls-3" d="M281.72,84.56c11.57,0,20.94,9.38,20.94,20.94s-9.38,20.94-20.94,20.94-20.94-9.38-20.94-20.94,9.38-20.94,20.94-20.94M281.72,83.56c-12.1,0-21.94,9.84-21.94,21.94s9.84,21.94,21.94,21.94,21.94-9.84,21.94-21.94-9.84-21.94-21.94-21.94h0Z"/>
      </g>
      <g id="pausa5-2" data-name="pausa5">
        <path class="cls-3" d="M276.21,99.79c0-.96.78-1.74,1.74-1.74s1.74.78,1.74,1.74v11.43c0,.96-.78,1.74-1.74,1.74s-1.74-.78-1.74-1.74v-11.43Z"/>
        <path class="cls-3" d="M283.75,99.79c0-.96.78-1.74,1.74-1.74s1.74.78,1.74,1.74v11.43c0,.96-.78,1.74-1.74,1.74s-1.74-.78-1.74-1.74v-11.43Z"/>
      </g>
    </g>
  </g>
  <g id="mobileBtn6">
    <rect id="base6" class="cls-2" x="310.47" y="76.5" width="57.5" height="57.5" rx="10" ry="10"/>
    <g id="cerchio1-6" data-name="cerchio1">
      <path class="cls-3" d="M338.72,126.95c-11.83,0-21.45-9.62-21.45-21.44s9.62-21.45,21.45-21.45,21.44,9.62,21.44,21.45-9.62,21.44-21.44,21.44Z"/>
      <path class="cls-1" d="M338.72,84.56c11.57,0,20.94,9.38,20.94,20.94s-9.38,20.94-20.94,20.94-20.94-9.38-20.94-20.94,9.38-20.94,20.94-20.94M338.72,83.56c-12.1,0-21.94,9.84-21.94,21.94s9.84,21.94,21.94,21.94,21.94-9.84,21.94-21.94-9.84-21.94-21.94-21.94h0Z"/>
    </g>
    <g id="next2">
      <path class="cls-1" d="M339.59,104.64c.67.38.67,1.35,0,1.73l-9.59,5.54c-.67.38-1.5-.1-1.5-.87v-11.08c0-.77.83-1.25,1.5-.87l9.59,5.54Z"/>
      <path class="cls-1" d="M350.31,104.64c.67.38.67,1.35,0,1.73l-9.59,5.54c-.67.38-1.5-.1-1.5-.87v-11.08c0-.77.83-1.25,1.5-.87l9.59,5.54Z"/>
    </g>
  </g>
</svg>