<?xml version="1.0" encoding="UTF-8"?>
<svg xmlns="http://www.w3.org/2000/svg" viewBox="0 0 390 147">
  <defs>
    <style>
      .cls-1 {
        fill: #fff;
      }

      .cls-2 {
        fill: #fa5004;
      }
    </style>
  </defs>
  <g id="bottone1">
    <g id="base1">
      <rect class="cls-2" x="22.47" y="76.51" width="58.5" height="57.99" rx="10.5" ry="10.5"/>
      <path class="cls-1" d="M70.47,77.01c5.52,0,10,4.48,10,10v36.99c0,5.52-4.48,10-10,10h-37.5c-5.52,0-10-4.48-10-10v-36.99c0-5.52,4.48-10,10-10h37.5M70.47,76.01h-37.5c-6.07,0-11,4.93-11,11v36.99c0,6.07,4.93,11,11,11h37.5c6.07,0,11-4.93,11-11v-36.99c0-6.07-4.93-11-11-11h0Z"/>
    </g>
    <g id="cerchio1">
      <path class="cls-2" d="M50.81,126.73c-11.82,0-21.44-9.62-21.44-21.44s9.62-21.45,21.44-21.45,21.44,9.62,21.44,21.45-9.62,21.44-21.44,21.44Z"/>
      <path class="cls-1" d="M50.81,84.34c11.57,0,20.94,9.38,20.94,20.94s-9.38,20.94-20.94,20.94-20.94-9.38-20.94-20.94,9.38-20.94,20.94-20.94M50.81,83.34c-12.1,0-21.94,9.84-21.94,21.94s9.84,21.94,21.94,21.94,21.94-9.84,21.94-21.94-9.84-21.94-21.94-21.94h0Z"/>
    </g>
    <g id="next1">
      <path class="cls-1" d="M50.45,104.42c-.67.38-.67,1.35,0,1.73l9.59,5.54c.67.38,1.5-.1,1.5-.87v-11.08c0-.77-.83-1.25-1.5-.87l-9.59,5.54Z"/>
      <path class="cls-1" d="M39.74,104.42c-.67.38-.67,1.35,0,1.73l9.59,5.54c.67.38,1.5-.1,1.5-.87v-11.08c0-.77-.83-1.25-1.5-.87l-9.59,5.54Z"/>
    </g>
  </g>
  <g id="bottone2">
    <g id="base2">
      <rect class="cls-2" x="79.97" y="76.51" width="58.5" height="57.99" rx="10.5" ry="10.5"/>
      <path class="cls-1" d="M127.97,77.01c5.52,0,10,4.48,10,10v36.99c0,5.52-4.48,10-10,10h-37.5c-5.52,0-10-4.48-10-10v-36.99c0-5.52,4.48-10,10-10h37.5M127.97,76.01h-37.5c-6.07,0-11,4.93-11,11v36.99c0,6.07,4.93,11,11,11h37.5c6.07,0,11-4.93,11-11v-36.99c0-6.07-4.93-11-11-11h0Z"/>
    </g>
    <g>
      <g id="cerchio1-2" data-name="cerchio1">
        <path class="cls-1" d="M109.22,126.95c-11.83,0-21.45-9.62-21.45-21.44s9.62-21.45,21.45-21.45,21.44,9.62,21.44,21.45-9.62,21.44-21.44,21.44Z"/>
        <path class="cls-2" d="M109.22,84.56c11.57,0,20.94,9.38,20.94,20.94s-9.38,20.94-20.94,20.94-20.94-9.38-20.94-20.94,9.38-20.94,20.94-20.94M109.22,83.56c-12.1,0-21.94,9.84-21.94,21.94s9.84,21.94,21.94,21.94,21.94-9.84,21.94-21.94-9.84-21.94-21.94-21.94h0Z"/>
      </g>
      <path id="play2" class="cls-2" d="M117.42,104.87c.67.38.67,1.35,0,1.73l-12.11,6.99c-.67.38-1.5-.1-1.5-.87v-13.98c0-.77.83-1.25,1.5-.87l12.11,6.99Z"/>
    </g>
  </g>
  <g id="bottone3">
    <g id="base3">
      <rect class="cls-2" x="137.47" y="76.51" width="58.5" height="57.99" rx="10.5" ry="10.5"/>
      <path class="cls-1" d="M185.47,77.01c5.52,0,10,4.48,10,10v36.99c0,5.52-4.48,10-10,10h-37.5c-5.52,0-10-4.48-10-10v-36.99c0-5.52,4.48-10,10-10h37.5M185.47,76.01h-37.5c-6.07,0-11,4.93-11,11v36.99c0,6.07,4.93,11,11,11h37.5c6.07,0,11-4.93,11-11v-36.99c0-6.07-4.93-11-11-11h0Z"/>
    </g>
    <g id="cerchio1-3" data-name="cerchio1">
      <path class="cls-1" d="M166.72,126.95c-11.83,0-21.45-9.62-21.45-21.44s9.62-21.45,21.45-21.45,21.44,9.62,21.44,21.45-9.62,21.44-21.44,21.44Z"/>
      <path class="cls-2" d="M166.72,84.56c11.57,0,20.94,9.38,20.94,20.94s-9.38,20.94-20.94,20.94-20.94-9.38-20.94-20.94,9.38-20.94,20.94-20.94M166.72,83.56c-12.1,0-21.94,9.84-21.94,21.94s9.84,21.94,21.94,21.94,21.94-9.84,21.94-21.94-9.84-21.94-21.94-21.94h0Z"/>
    </g>
    <g id="pausa5">
      <path class="cls-2" d="M161.21,99.79c0-.96.78-1.74,1.74-1.74s1.74.78,1.74,1.74v11.43c0,.96-.78,1.74-1.74,1.74s-1.74-.78-1.74-1.74v-11.43Z"/>
      <path class="cls-2" d="M168.75,99.79c0-.96.78-1.74,1.74-1.74s1.74.78,1.74,1.74v11.43c0,.96-.78,1.74-1.74,1.74s-1.74-.78-1.74-1.74v-11.43Z"/>
    </g>
  </g>
  <g id="bottone4">
    <g id="base4">
      <rect class="cls-2" x="194.97" y="76.51" width="58.5" height="57.99" rx="10.5" ry="10.5"/>
      <path class="cls-1" d="M242.97,77.01c5.52,0,10,4.48,10,10v36.99c0,5.52-4.48,10-10,10h-37.5c-5.52,0-10-4.48-10-10v-36.99c0-5.52,4.48-10,10-10h37.5M242.97,76.01h-37.5c-6.07,0-11,4.93-11,11v36.99c0,6.07,4.93,11,11,11h37.5c6.07,0,11-4.93,11-11v-36.99c0-6.07-4.93-11-11-11h0Z"/>
    </g>
    <g>
      <g id="cerchio1-4" data-name="cerchio1">
        <path class="cls-1" d="M224.22,126.95c-11.83,0-21.45-9.62-21.45-21.44s9.62-21.45,21.45-21.45,21.44,9.62,21.44,21.45-9.62,21.44-21.44,21.44Z"/>
        <path class="cls-2" d="M224.22,84.56c11.57,0,20.94,9.38,20.94,20.94s-9.38,20.94-20.94,20.94-20.94-9.38-20.94-20.94,9.38-20.94,20.94-20.94M224.22,83.56c-12.1,0-21.94,9.84-21.94,21.94s9.84,21.94,21.94,21.94,21.94-9.84,21.94-21.94-9.84-21.94-21.94-21.94h0Z"/>
      </g>
      <path id="play2-2" data-name="play2" class="cls-2" d="M232.42,104.87c.67.38.67,1.35,0,1.73l-12.11,6.99c-.67.38-1.5-.1-1.5-.87v-13.98c0-.77.83-1.25,1.5-.87l12.11,6.99Z"/>
    </g>
  </g>
  <g id="bottone5">
    <g id="base5">
      <rect class="cls-2" x="252.47" y="76.51" width="58.5" height="57.99" rx="10.5" ry="10.5"/>
      <path class="cls-1" d="M300.47,77.01c5.52,0,10,4.48,10,10v36.99c0,5.52-4.48,10-10,10h-37.5c-5.52,0-10-4.48-10-10v-36.99c0-5.52,4.48-10,10-10h37.5M300.47,76.01h-37.5c-6.07,0-11,4.93-11,11v36.99c0,6.07,4.93,11,11,11h37.5c6.07,0,11-4.93,11-11v-36.99c0-6.07-4.93-11-11-11h0Z"/>
    </g>
    <g>
      <g id="cerchio1-5" data-name="cerchio1">
        <path class="cls-1" d="M281.72,126.95c-11.83,0-21.45-9.62-21.45-21.44s9.62-21.45,21.45-21.45,21.44,9.62,21.44,21.45-9.62,21.44-21.44,21.44Z"/>
        <path class="cls-2" d="M281.72,84.56c11.57,0,20.94,9.38,20.94,20.94s-9.38,20.94-20.94,20.94-20.94-9.38-20.94-20.94,9.38-20.94,20.94-20.94M281.72,83.56c-12.1,0-21.94,9.84-21.94,21.94s9.84,21.94,21.94,21.94,21.94-9.84,21.94-21.94-9.84-21.94-21.94-21.94h0Z"/>
      </g>
      <g id="pausa5-2" data-name="pausa5">
        <path class="cls-2" d="M276.21,99.79c0-.96.78-1.74,1.74-1.74s1.74.78,1.74,1.74v11.43c0,.96-.78,1.74-1.74,1.74s-1.74-.78-1.74-1.74v-11.43Z"/>
        <path class="cls-2" d="M283.75,99.79c0-.96.78-1.74,1.74-1.74s1.74.78,1.74,1.74v11.43c0,.96-.78,1.74-1.74,1.74s-1.74-.78-1.74-1.74v-11.43Z"/>
      </g>
    </g>
  </g>
  <g id="bottone6">
    <g id="base6">
      <rect class="cls-2" x="309.97" y="76.51" width="58.5" height="57.99" rx="10.5" ry="10.5"/>
      <path class="cls-1" d="M357.97,77.01c5.52,0,10,4.48,10,10v36.99c0,5.52-4.48,10-10,10h-37.5c-5.52,0-10-4.48-10-10v-36.99c0-5.52,4.48-10,10-10h37.5M357.97,76.01h-37.5c-6.07,0-11,4.93-11,11v36.99c0,6.07,4.93,11,11,11h37.5c6.07,0,11-4.93,11-11v-36.99c0-6.07-4.93-11-11-11h0Z"/>
    </g>
    <g id="cerchio1-6" data-name="cerchio1">
      <path class="cls-2" d="M338.72,126.95c-11.83,0-21.45-9.62-21.45-21.44s9.62-21.45,21.45-21.45,21.44,9.62,21.44,21.45-9.62,21.44-21.44,21.44Z"/>
      <path class="cls-1" d="M338.72,84.56c11.57,0,20.94,9.38,20.94,20.94s-9.38,20.94-20.94,20.94-20.94-9.38-20.94-20.94,9.38-20.94,20.94-20.94M338.72,83.56c-12.1,0-21.94,9.84-21.94,21.94s9.84,21.94,21.94,21.94,21.94-9.84,21.94-21.94-9.84-21.94-21.94-21.94h0Z"/>
    </g>
    <g id="next2">
      <path class="cls-1" d="M339.59,104.64c.67.38.67,1.35,0,1.73l-9.59,5.54c-.67.38-1.5-.1-1.5-.87v-11.08c0-.77.83-1.25,1.5-.87l9.59,5.54Z"/>
      <path class="cls-1" d="M350.31,104.64c.67.38.67,1.35,0,1.73l-9.59,5.54c-.67.38-1.5-.1-1.5-.87v-11.08c0-.77.83-1.25,1.5-.87l9.59,5.54Z"/>
    </g>
  </g>
</svg>