<?xml version="1.0" encoding="UTF-8"?>
<svg xmlns="http://www.w3.org/2000/svg" viewBox="0 0 464 215">
  <defs>
    <style>
      .cls-1 {
        fill: #fff;
      }

      .cls-2 {
        stroke: #fff;
        stroke-miterlimit: 10;
      }

      .cls-2, .cls-3 {
        fill: #fa5004;
      }
    </style>
  </defs>
  <g id="bottone-1">
    <rect id="BASE1" class="cls-2" x="153.5" y="100.5" width="73" height="73" rx="10" ry="10"/>
    <g id="CERCHIO1">
      <path class="cls-1" d="M190,160.5c-12.96,0-23.5-10.54-23.5-23.5s10.54-23.5,23.5-23.5,23.5,10.54,23.5,23.5-10.54,23.5-23.5,23.5Z"/>
      <path class="cls-3" d="M190,114c12.7,0,23,10.3,23,23s-10.3,23-23,23-23-10.3-23-23,10.3-23,23-23M190,113c-13.23,0-24,10.77-24,24s10.77,24,24,24,24-10.77,24-24-10.77-24-24-24h0Z"/>
    </g>
    <g id="PLAY1">
      <path class="cls-3" d="M185.59,145.47c-.83,0-1.5-.67-1.5-1.5v-13.94c0-.83.67-1.5,1.5-1.5.26,0,.52.07.75.2l12.07,6.97c.47.27.75.76.75,1.3s-.28,1.03-.75,1.3l-12.07,6.97c-.23.13-.49.2-.75.2Z"/>
      <path class="cls-1" d="M185.59,129.03c.17,0,.34.04.5.14l12.07,6.97c.67.38.67,1.35,0,1.73l-12.07,6.97c-.16.09-.33.14-.5.14-.52,0-1-.42-1-1v-13.94c0-.58.48-1,1-1M185.59,128.03h0c-1.1,0-2,.9-2,2v13.94c0,1.1.9,2,2,2,.35,0,.69-.09,1-.27l12.07-6.97c.63-.36,1-1.01,1-1.73s-.37-1.37-1-1.73l-12.07-6.97c-.31-.18-.65-.27-1-.27h0Z"/>
    </g>
  </g>
  <g id="bottone-2">
    <rect id="BASE2" class="cls-2" x="226.5" y="100.5" width="73" height="73" rx="10" ry="10"/>
    <g id="CERCHIO2">
      <path class="cls-1" d="M263,160.5c-12.96,0-23.5-10.54-23.5-23.5s10.54-23.5,23.5-23.5,23.5,10.54,23.5,23.5-10.54,23.5-23.5,23.5Z"/>
      <path class="cls-3" d="M263,114c12.7,0,23,10.3,23,23s-10.3,23-23,23-23-10.3-23-23,10.3-23,23-23M263,113c-13.23,0-24,10.77-24,24s10.77,24,24,24,24-10.77,24-24-10.77-24-24-24h0Z"/>
    </g>
    <g id="PAUSA2">
      <g>
        <path class="cls-3" d="M259.24,145.47c-1.23,0-2.24-1.06-2.24-2.36v-12.22c0-1.3,1-2.36,2.24-2.36s2.24,1.06,2.24,2.36v12.22c0,1.3-1,2.36-2.24,2.36Z"/>
        <path class="cls-1" d="M259.24,129.03c.96,0,1.74.83,1.74,1.86v12.22c0,1.03-.78,1.86-1.74,1.86s-1.74-.83-1.74-1.86v-12.22c0-1.03.78-1.86,1.74-1.86M259.24,128.03c-1.51,0-2.74,1.28-2.74,2.86v12.22c0,1.58,1.23,2.86,2.74,2.86s2.74-1.28,2.74-2.86v-12.22c0-1.58-1.23-2.86-2.74-2.86h0Z"/>
      </g>
      <g>
        <path class="cls-3" d="M266.76,145.47c-1.23,0-2.24-1.06-2.24-2.36v-12.22c0-1.3,1-2.36,2.24-2.36s2.24,1.06,2.24,2.36v12.22c0,1.3-1,2.36-2.24,2.36Z"/>
        <path class="cls-1" d="M266.76,129.03c.96,0,1.74.83,1.74,1.86v12.22c0,1.03-.78,1.86-1.74,1.86s-1.74-.83-1.74-1.86v-12.22c0-1.03.78-1.86,1.74-1.86M266.76,128.03c-1.51,0-2.74,1.28-2.74,2.86v12.22c0,1.58,1.23,2.86,2.74,2.86s2.74-1.28,2.74-2.86v-12.22c0-1.58-1.23-2.86-2.74-2.86h0Z"/>
      </g>
    </g>
  </g>
  <g id="bottone-3">
    <rect id="BASE3" class="cls-2" x="299.5" y="100.5" width="73" height="73" rx="10" ry="10"/>
    <g id="CERCHIO3">
      <path class="cls-1" d="M336,160.5c-12.96,0-23.5-10.54-23.5-23.5s10.54-23.5,23.5-23.5,23.5,10.54,23.5,23.5-10.54,23.5-23.5,23.5Z"/>
      <path class="cls-3" d="M336,114c12.7,0,23,10.3,23,23s-10.3,23-23,23-23-10.3-23-23,10.3-23,23-23M336,113c-13.23,0-24,10.77-24,24s10.77,24,24,24,24-10.77,24-24-10.77-24-24-24h0Z"/>
    </g>
    <g id="PLAY3">
      <path class="cls-3" d="M331.59,145.47c-.83,0-1.5-.67-1.5-1.5v-13.94c0-.83.67-1.5,1.5-1.5.26,0,.52.07.75.2l12.07,6.97c.47.27.75.76.75,1.3s-.28,1.03-.75,1.3l-12.07,6.97c-.23.13-.49.2-.75.2Z"/>
      <path class="cls-1" d="M331.59,129.03c.17,0,.34.04.5.14l12.07,6.97c.67.38.67,1.35,0,1.73l-12.07,6.97c-.16.09-.33.14-.5.14-.52,0-1-.42-1-1v-13.94c0-.58.48-1,1-1M331.59,128.03h0c-1.1,0-2,.9-2,2v13.94c0,1.1.9,2,2,2,.35,0,.69-.09,1-.27l12.07-6.97c.63-.36,1-1.01,1-1.73s-.37-1.37-1-1.73l-12.07-6.97c-.31-.18-.65-.27-1-.27h0Z"/>
    </g>
  </g>
  <g id="bottone-4">
    <rect id="BASE4" class="cls-2" x="372.5" y="100.5" width="73" height="73" rx="10" ry="10"/>
    <g id="CERCHIO4">
      <path class="cls-1" d="M409,160.5c-12.96,0-23.5-10.54-23.5-23.5s10.54-23.5,23.5-23.5,23.5,10.54,23.5,23.5-10.54,23.5-23.5,23.5Z"/>
      <path class="cls-3" d="M409,114c12.7,0,23,10.3,23,23s-10.3,23-23,23-23-10.3-23-23,10.3-23,23-23M409,113c-13.23,0-24,10.77-24,24s10.77,24,24,24,24-10.77,24-24-10.77-24-24-24h0Z"/>
    </g>
    <g id="PAUSA4">
      <g>
        <path class="cls-3" d="M405.24,145.47c-1.23,0-2.24-1.06-2.24-2.36v-12.22c0-1.3,1-2.36,2.24-2.36s2.24,1.06,2.24,2.36v12.22c0,1.3-1,2.36-2.24,2.36Z"/>
        <path class="cls-1" d="M405.24,129.03c.96,0,1.74.83,1.74,1.86v12.22c0,1.03-.78,1.86-1.74,1.86s-1.74-.83-1.74-1.86v-12.22c0-1.03.78-1.86,1.74-1.86M405.24,128.03c-1.51,0-2.74,1.28-2.74,2.86v12.22c0,1.58,1.23,2.86,2.74,2.86s2.74-1.28,2.74-2.86v-12.22c0-1.58-1.23-2.86-2.74-2.86h0Z"/>
      </g>
      <g>
        <path class="cls-3" d="M412.76,145.47c-1.23,0-2.24-1.06-2.24-2.36v-12.22c0-1.3,1-2.36,2.24-2.36s2.24,1.06,2.24,2.36v12.22c0,1.3-1,2.36-2.24,2.36Z"/>
        <path class="cls-1" d="M412.76,129.03c.96,0,1.74.83,1.74,1.86v12.22c0,1.03-.78,1.86-1.74,1.86s-1.74-.83-1.74-1.86v-12.22c0-1.03.78-1.86,1.74-1.86M412.76,128.03c-1.51,0-2.74,1.28-2.74,2.86v12.22c0,1.58,1.23,2.86,2.74,2.86s2.74-1.28,2.74-2.86v-12.22c0-1.58-1.23-2.86-2.74-2.86h0Z"/>
      </g>
    </g>
  </g>
</svg>