<?xml version="1.0" encoding="UTF-8"?>
<svg xmlns="http://www.w3.org/2000/svg" xmlns:xlink="http://www.w3.org/1999/xlink" viewBox="0 0 464 215">
  <defs>
    <style>
      .cls-1 {
        fill: none;
      }

      .cls-2 {
        clip-path: url(#clippath-17);
      }

      .cls-3 {
        clip-path: url(#clippath-19);
      }

      .cls-4 {
        clip-path: url(#clippath-11);
      }

      .cls-5 {
        clip-path: url(#clippath-16);
      }

      .cls-6 {
        clip-path: url(#clippath-18);
      }

      .cls-7 {
        clip-path: url(#clippath-10);
      }

      .cls-8 {
        clip-path: url(#clippath-15);
      }

      .cls-9 {
        clip-path: url(#clippath-13);
      }

      .cls-10 {
        clip-path: url(#clippath-14);
      }

      .cls-11 {
        clip-path: url(#clippath-12);
      }

      .cls-12 {
        clip-path: url(#clippath-61);
      }

      .cls-13 {
        clip-path: url(#clippath-67);
      }

      .cls-14 {
        clip-path: url(#clippath-68);
      }

      .cls-15 {
        clip-path: url(#clippath-60);
      }

      .cls-16 {
        clip-path: url(#clippath-65);
      }

      .cls-17 {
        clip-path: url(#clippath-62);
      }

      .cls-18 {
        clip-path: url(#clippath-64);
      }

      .cls-19 {
        clip-path: url(#clippath-66);
      }

      .cls-20 {
        clip-path: url(#clippath-63);
      }

      .cls-21 {
        clip-path: url(#clippath-76);
      }

      .cls-22 {
        clip-path: url(#clippath-78);
      }

      .cls-23 {
        clip-path: url(#clippath-75);
      }

      .cls-24 {
        clip-path: url(#clippath-79);
      }

      .cls-25 {
        clip-path: url(#clippath-50);
      }

      .cls-26 {
        clip-path: url(#clippath-55);
      }

      .cls-27 {
        clip-path: url(#clippath-52);
      }

      .cls-28 {
        clip-path: url(#clippath-57);
      }

      .cls-29 {
        clip-path: url(#clippath-54);
      }

      .cls-30 {
        clip-path: url(#clippath-56);
      }

      .cls-31 {
        clip-path: url(#clippath-53);
      }

      .cls-32 {
        clip-path: url(#clippath-70);
      }

      .cls-33 {
        clip-path: url(#clippath-77);
      }

      .cls-34 {
        clip-path: url(#clippath-74);
      }

      .cls-35 {
        clip-path: url(#clippath-71);
      }

      .cls-36 {
        clip-path: url(#clippath-73);
      }

      .cls-37 {
        clip-path: url(#clippath-72);
      }

      .cls-38 {
        clip-path: url(#clippath-51);
      }

      .cls-39 {
        clip-path: url(#clippath-58);
      }

      .cls-40 {
        clip-path: url(#clippath-59);
      }

      .cls-41 {
        clip-path: url(#clippath-31);
      }

      .cls-42 {
        clip-path: url(#clippath-32);
      }

      .cls-43 {
        clip-path: url(#clippath-33);
      }

      .cls-44 {
        clip-path: url(#clippath-34);
      }

      .cls-45 {
        clip-path: url(#clippath-35);
      }

      .cls-46 {
        clip-path: url(#clippath-39);
      }

      .cls-47 {
        clip-path: url(#clippath-30);
      }

      .cls-48 {
        clip-path: url(#clippath-36);
      }

      .cls-49 {
        clip-path: url(#clippath-37);
      }

      .cls-50 {
        clip-path: url(#clippath-38);
      }

      .cls-51 {
        clip-path: url(#clippath-27);
      }

      .cls-52 {
        clip-path: url(#clippath-29);
      }

      .cls-53 {
        clip-path: url(#clippath-26);
      }

      .cls-54 {
        clip-path: url(#clippath-28);
      }

      .cls-55 {
        clip-path: url(#clippath-20);
      }

      .cls-56 {
        clip-path: url(#clippath-21);
      }

      .cls-57 {
        clip-path: url(#clippath-22);
      }

      .cls-58 {
        clip-path: url(#clippath-23);
      }

      .cls-59 {
        clip-path: url(#clippath-24);
      }

      .cls-60 {
        clip-path: url(#clippath-25);
      }

      .cls-61 {
        clip-path: url(#clippath-69);
      }

      .cls-62 {
        clip-path: url(#clippath-41);
      }

      .cls-63 {
        clip-path: url(#clippath-42);
      }

      .cls-64 {
        clip-path: url(#clippath-43);
      }

      .cls-65 {
        clip-path: url(#clippath-44);
      }

      .cls-66 {
        clip-path: url(#clippath-45);
      }

      .cls-67 {
        clip-path: url(#clippath-49);
      }

      .cls-68 {
        clip-path: url(#clippath-40);
      }

      .cls-69 {
        clip-path: url(#clippath-46);
      }

      .cls-70 {
        clip-path: url(#clippath-47);
      }

      .cls-71 {
        clip-path: url(#clippath-48);
      }

      .cls-72 {
        clip-path: url(#clippath-90);
      }

      .cls-73 {
        clip-path: url(#clippath-95);
      }

      .cls-74 {
        clip-path: url(#clippath-93);
      }

      .cls-75 {
        clip-path: url(#clippath-99);
      }

      .cls-76 {
        clip-path: url(#clippath-94);
      }

      .cls-77 {
        clip-path: url(#clippath-96);
      }

      .cls-78 {
        clip-path: url(#clippath-85);
      }

      .cls-79 {
        clip-path: url(#clippath-86);
      }

      .cls-80 {
        clip-path: url(#clippath-87);
      }

      .cls-81 {
        clip-path: url(#clippath-80);
      }

      .cls-82 {
        clip-path: url(#clippath-89);
      }

      .cls-83 {
        clip-path: url(#clippath-81);
      }

      .cls-84 {
        clip-path: url(#clippath-82);
      }

      .cls-85 {
        clip-path: url(#clippath-83);
      }

      .cls-86 {
        clip-path: url(#clippath-84);
      }

      .cls-87 {
        clip-path: url(#clippath-88);
      }

      .cls-88 {
        clip-path: url(#clippath-92);
      }

      .cls-89 {
        clip-path: url(#clippath-97);
      }

      .cls-90 {
        clip-path: url(#clippath-91);
      }

      .cls-91 {
        clip-path: url(#clippath-98);
      }

      .cls-92 {
        clip-path: url(#clippath-1);
      }

      .cls-93 {
        clip-path: url(#clippath-3);
      }

      .cls-94 {
        clip-path: url(#clippath-4);
      }

      .cls-95 {
        clip-path: url(#clippath-2);
      }

      .cls-96 {
        clip-path: url(#clippath-7);
      }

      .cls-97 {
        clip-path: url(#clippath-6);
      }

      .cls-98 {
        clip-path: url(#clippath-9);
      }

      .cls-99 {
        clip-path: url(#clippath-8);
      }

      .cls-100 {
        clip-path: url(#clippath-5);
      }

      .cls-101 {
        clip-path: url(#clippath-102);
      }

      .cls-102 {
        clip-path: url(#clippath-101);
      }

      .cls-103 {
        clip-path: url(#clippath-104);
      }

      .cls-104 {
        clip-path: url(#clippath-109);
      }

      .cls-105 {
        clip-path: url(#clippath-106);
      }

      .cls-106 {
        clip-path: url(#clippath-103);
      }

      .cls-107 {
        clip-path: url(#clippath-105);
      }

      .cls-108 {
        clip-path: url(#clippath-100);
      }

      .cls-109 {
        clip-path: url(#clippath-108);
      }

      .cls-110 {
        clip-path: url(#clippath-107);
      }

      .cls-111 {
        clip-path: url(#clippath-118);
      }

      .cls-112 {
        clip-path: url(#clippath-114);
      }

      .cls-113 {
        clip-path: url(#clippath-119);
      }

      .cls-114 {
        clip-path: url(#clippath-111);
      }

      .cls-115 {
        clip-path: url(#clippath-110);
      }

      .cls-116 {
        clip-path: url(#clippath-113);
      }

      .cls-117 {
        clip-path: url(#clippath-112);
      }

      .cls-118 {
        clip-path: url(#clippath-117);
      }

      .cls-119 {
        clip-path: url(#clippath-115);
      }

      .cls-120 {
        clip-path: url(#clippath-116);
      }

      .cls-121 {
        clip-path: url(#clippath-120);
      }

      .cls-122 {
        clip-path: url(#clippath-125);
      }

      .cls-123 {
        clip-path: url(#clippath-122);
      }

      .cls-124 {
        clip-path: url(#clippath-121);
      }

      .cls-125 {
        clip-path: url(#clippath-123);
      }

      .cls-126 {
        clip-path: url(#clippath-124);
      }

      .cls-127 {
        clip-path: url(#clippath-129);
      }

      .cls-128 {
        clip-path: url(#clippath-126);
      }

      .cls-129 {
        clip-path: url(#clippath-128);
      }

      .cls-130 {
        clip-path: url(#clippath-127);
      }

      .cls-131 {
        fill: #fff;
      }

      .cls-132 {
        stroke: #fff;
        stroke-miterlimit: 10;
      }

      .cls-132, .cls-133 {
        fill: #fa5004;
      }

      .cls-134 {
        clip-path: url(#clippath);
      }
    </style>
    <clipPath id="clippath">
      <rect class="cls-1" x="153" y="19" width="147" height="82" rx="7" ry="7"/>
    </clipPath>
    <clipPath id="clippath-1">
      <rect class="cls-1" x="299" y="19" width="147" height="82" rx="7" ry="7"/>
    </clipPath>
    <clipPath id="clippath-2">
      <circle class="cls-1" cx="20.5" cy="40.5" r="4.5"/>
    </clipPath>
    <clipPath id="clippath-3">
      <circle class="cls-1" cx="20.5" cy="54.5" r="4.5"/>
    </clipPath>
    <clipPath id="clippath-4">
      <circle class="cls-1" cx="20.5" cy="68.5" r="4.5"/>
    </clipPath>
    <clipPath id="clippath-5">
      <circle class="cls-1" cx="20.5" cy="82.5" r="4.5"/>
    </clipPath>
    <clipPath id="clippath-6">
      <circle class="cls-1" cx="20.5" cy="96.5" r="4.5"/>
    </clipPath>
    <clipPath id="clippath-7">
      <circle class="cls-1" cx="20.5" cy="110.5" r="4.5"/>
    </clipPath>
    <clipPath id="clippath-8">
      <circle class="cls-1" cx="20.5" cy="124.5" r="4.5"/>
    </clipPath>
    <clipPath id="clippath-9">
      <circle class="cls-1" cx="20.5" cy="138.5" r="4.5"/>
    </clipPath>
    <clipPath id="clippath-10">
      <circle class="cls-1" cx="20.5" cy="152.5" r="4.5"/>
    </clipPath>
    <clipPath id="clippath-11">
      <circle class="cls-1" cx="20.5" cy="166.5" r="4.5"/>
    </clipPath>
    <clipPath id="clippath-12">
      <circle class="cls-1" cx="20.5" cy="180.5" r="4.5"/>
    </clipPath>
    <clipPath id="clippath-13">
      <circle class="cls-1" cx="20.5" cy="194.5" r="4.5"/>
    </clipPath>
    <clipPath id="clippath-14">
      <circle class="cls-1" cx="34.5" cy="40.5" r="4.5"/>
    </clipPath>
    <clipPath id="clippath-15">
      <circle class="cls-1" cx="34.5" cy="54.5" r="4.5"/>
    </clipPath>
    <clipPath id="clippath-16">
      <circle class="cls-1" cx="34.5" cy="68.5" r="4.5"/>
    </clipPath>
    <clipPath id="clippath-17">
      <circle class="cls-1" cx="34.5" cy="82.5" r="4.5"/>
    </clipPath>
    <clipPath id="clippath-18">
      <circle class="cls-1" cx="34.5" cy="96.5" r="4.5"/>
    </clipPath>
    <clipPath id="clippath-19">
      <circle class="cls-1" cx="34.5" cy="110.5" r="4.5"/>
    </clipPath>
    <clipPath id="clippath-20">
      <circle class="cls-1" cx="34.5" cy="124.5" r="4.5"/>
    </clipPath>
    <clipPath id="clippath-21">
      <circle class="cls-1" cx="34.5" cy="138.5" r="4.5"/>
    </clipPath>
    <clipPath id="clippath-22">
      <circle class="cls-1" cx="34.5" cy="152.5" r="4.5"/>
    </clipPath>
    <clipPath id="clippath-23">
      <circle class="cls-1" cx="34.5" cy="166.5" r="4.5"/>
    </clipPath>
    <clipPath id="clippath-24">
      <circle class="cls-1" cx="34.5" cy="180.5" r="4.5"/>
    </clipPath>
    <clipPath id="clippath-25">
      <circle class="cls-1" cx="34.5" cy="194.5" r="4.5"/>
    </clipPath>
    <clipPath id="clippath-26">
      <circle class="cls-1" cx="48.5" cy="40.5" r="4.5"/>
    </clipPath>
    <clipPath id="clippath-27">
      <circle class="cls-1" cx="48.5" cy="54.5" r="4.5"/>
    </clipPath>
    <clipPath id="clippath-28">
      <circle class="cls-1" cx="48.5" cy="68.5" r="4.5"/>
    </clipPath>
    <clipPath id="clippath-29">
      <circle class="cls-1" cx="48.5" cy="82.5" r="4.5"/>
    </clipPath>
    <clipPath id="clippath-30">
      <circle class="cls-1" cx="48.5" cy="96.5" r="4.5"/>
    </clipPath>
    <clipPath id="clippath-31">
      <circle class="cls-1" cx="48.5" cy="110.5" r="4.5"/>
    </clipPath>
    <clipPath id="clippath-32">
      <circle class="cls-1" cx="48.5" cy="124.5" r="4.5"/>
    </clipPath>
    <clipPath id="clippath-33">
      <circle class="cls-1" cx="48.5" cy="138.5" r="4.5"/>
    </clipPath>
    <clipPath id="clippath-34">
      <circle class="cls-1" cx="48.5" cy="152.5" r="4.5"/>
    </clipPath>
    <clipPath id="clippath-35">
      <circle class="cls-1" cx="48.5" cy="166.5" r="4.5"/>
    </clipPath>
    <clipPath id="clippath-36">
      <circle class="cls-1" cx="48.5" cy="180.5" r="4.5"/>
    </clipPath>
    <clipPath id="clippath-37">
      <circle class="cls-1" cx="48.5" cy="194.5" r="4.5"/>
    </clipPath>
    <clipPath id="clippath-38">
      <circle class="cls-1" cx="62.5" cy="40.5" r="4.5"/>
    </clipPath>
    <clipPath id="clippath-39">
      <circle class="cls-1" cx="62.5" cy="54.5" r="4.5"/>
    </clipPath>
    <clipPath id="clippath-40">
      <circle class="cls-1" cx="62.5" cy="68.5" r="4.5"/>
    </clipPath>
    <clipPath id="clippath-41">
      <circle class="cls-1" cx="62.5" cy="82.5" r="4.5"/>
    </clipPath>
    <clipPath id="clippath-42">
      <circle class="cls-1" cx="62.5" cy="96.5" r="4.5"/>
    </clipPath>
    <clipPath id="clippath-43">
      <circle class="cls-1" cx="62.5" cy="110.5" r="4.5"/>
    </clipPath>
    <clipPath id="clippath-44">
      <circle class="cls-1" cx="62.5" cy="124.5" r="4.5"/>
    </clipPath>
    <clipPath id="clippath-45">
      <circle class="cls-1" cx="62.5" cy="138.5" r="4.5"/>
    </clipPath>
    <clipPath id="clippath-46">
      <circle class="cls-1" cx="62.5" cy="152.5" r="4.5"/>
    </clipPath>
    <clipPath id="clippath-47">
      <circle class="cls-1" cx="62.5" cy="166.5" r="4.5"/>
    </clipPath>
    <clipPath id="clippath-48">
      <circle class="cls-1" cx="62.5" cy="180.5" r="4.5"/>
    </clipPath>
    <clipPath id="clippath-49">
      <circle class="cls-1" cx="62.5" cy="194.5" r="4.5"/>
    </clipPath>
    <clipPath id="clippath-50">
      <circle class="cls-1" cx="76.5" cy="40.5" r="4.5"/>
    </clipPath>
    <clipPath id="clippath-51">
      <circle class="cls-1" cx="76.5" cy="54.5" r="4.5"/>
    </clipPath>
    <clipPath id="clippath-52">
      <circle class="cls-1" cx="76.5" cy="68.5" r="4.5"/>
    </clipPath>
    <clipPath id="clippath-53">
      <circle class="cls-1" cx="76.5" cy="82.5" r="4.5"/>
    </clipPath>
    <clipPath id="clippath-54">
      <circle class="cls-1" cx="76.5" cy="96.5" r="4.5"/>
    </clipPath>
    <clipPath id="clippath-55">
      <circle class="cls-1" cx="76.5" cy="110.5" r="4.5"/>
    </clipPath>
    <clipPath id="clippath-56">
      <circle class="cls-1" cx="76.5" cy="124.5" r="4.5"/>
    </clipPath>
    <clipPath id="clippath-57">
      <circle class="cls-1" cx="76.5" cy="138.5" r="4.5"/>
    </clipPath>
    <clipPath id="clippath-58">
      <circle class="cls-1" cx="76.5" cy="152.5" r="4.5"/>
    </clipPath>
    <clipPath id="clippath-59">
      <circle class="cls-1" cx="76.5" cy="166.5" r="4.5"/>
    </clipPath>
    <clipPath id="clippath-60">
      <circle class="cls-1" cx="76.5" cy="180.5" r="4.5"/>
    </clipPath>
    <clipPath id="clippath-61">
      <circle class="cls-1" cx="76.5" cy="194.5" r="4.5"/>
    </clipPath>
    <clipPath id="clippath-62">
      <circle class="cls-1" cx="90.5" cy="40.5" r="4.5"/>
    </clipPath>
    <clipPath id="clippath-63">
      <circle class="cls-1" cx="90.5" cy="54.5" r="4.5"/>
    </clipPath>
    <clipPath id="clippath-64">
      <circle class="cls-1" cx="90.5" cy="68.5" r="4.5"/>
    </clipPath>
    <clipPath id="clippath-65">
      <circle class="cls-1" cx="90.5" cy="82.5" r="4.5"/>
    </clipPath>
    <clipPath id="clippath-66">
      <circle class="cls-1" cx="90.5" cy="96.5" r="4.5"/>
    </clipPath>
    <clipPath id="clippath-67">
      <circle class="cls-1" cx="90.5" cy="110.5" r="4.5"/>
    </clipPath>
    <clipPath id="clippath-68">
      <circle class="cls-1" cx="90.5" cy="124.5" r="4.5"/>
    </clipPath>
    <clipPath id="clippath-69">
      <circle class="cls-1" cx="90.5" cy="138.5" r="4.5"/>
    </clipPath>
    <clipPath id="clippath-70">
      <circle class="cls-1" cx="90.5" cy="152.5" r="4.5"/>
    </clipPath>
    <clipPath id="clippath-71">
      <circle class="cls-1" cx="90.5" cy="166.5" r="4.5"/>
    </clipPath>
    <clipPath id="clippath-72">
      <circle class="cls-1" cx="90.5" cy="180.5" r="4.5"/>
    </clipPath>
    <clipPath id="clippath-73">
      <circle class="cls-1" cx="90.5" cy="194.5" r="4.5"/>
    </clipPath>
    <clipPath id="clippath-74">
      <circle class="cls-1" cx="104.5" cy="40.5" r="4.5"/>
    </clipPath>
    <clipPath id="clippath-75">
      <circle class="cls-1" cx="104.5" cy="54.5" r="4.5"/>
    </clipPath>
    <clipPath id="clippath-76">
      <circle class="cls-1" cx="104.5" cy="68.5" r="4.5"/>
    </clipPath>
    <clipPath id="clippath-77">
      <circle class="cls-1" cx="104.5" cy="82.5" r="4.5"/>
    </clipPath>
    <clipPath id="clippath-78">
      <circle class="cls-1" cx="104.5" cy="96.5" r="4.5"/>
    </clipPath>
    <clipPath id="clippath-79">
      <circle class="cls-1" cx="104.5" cy="110.5" r="4.5"/>
    </clipPath>
    <clipPath id="clippath-80">
      <circle class="cls-1" cx="104.5" cy="124.5" r="4.5"/>
    </clipPath>
    <clipPath id="clippath-81">
      <circle class="cls-1" cx="104.5" cy="138.5" r="4.5"/>
    </clipPath>
    <clipPath id="clippath-82">
      <circle class="cls-1" cx="104.5" cy="152.5" r="4.5"/>
    </clipPath>
    <clipPath id="clippath-83">
      <circle class="cls-1" cx="104.5" cy="166.5" r="4.5"/>
    </clipPath>
    <clipPath id="clippath-84">
      <circle class="cls-1" cx="104.5" cy="180.5" r="4.5"/>
    </clipPath>
    <clipPath id="clippath-85">
      <circle class="cls-1" cx="104.5" cy="194.5" r="4.5"/>
    </clipPath>
    <clipPath id="clippath-86">
      <circle class="cls-1" cx="118.5" cy="40.5" r="4.5"/>
    </clipPath>
    <clipPath id="clippath-87">
      <circle class="cls-1" cx="118.5" cy="54.5" r="4.5"/>
    </clipPath>
    <clipPath id="clippath-88">
      <circle class="cls-1" cx="118.5" cy="68.5" r="4.5"/>
    </clipPath>
    <clipPath id="clippath-89">
      <circle class="cls-1" cx="118.5" cy="82.5" r="4.5"/>
    </clipPath>
    <clipPath id="clippath-90">
      <circle class="cls-1" cx="118.5" cy="96.5" r="4.5"/>
    </clipPath>
    <clipPath id="clippath-91">
      <circle class="cls-1" cx="118.5" cy="110.5" r="4.5"/>
    </clipPath>
    <clipPath id="clippath-92">
      <circle class="cls-1" cx="118.5" cy="124.5" r="4.5"/>
    </clipPath>
    <clipPath id="clippath-93">
      <circle class="cls-1" cx="118.5" cy="138.5" r="4.5"/>
    </clipPath>
    <clipPath id="clippath-94">
      <circle class="cls-1" cx="118.5" cy="152.5" r="4.5"/>
    </clipPath>
    <clipPath id="clippath-95">
      <circle class="cls-1" cx="118.5" cy="166.5" r="4.5"/>
    </clipPath>
    <clipPath id="clippath-96">
      <circle class="cls-1" cx="118.5" cy="40.5" r="4.5"/>
    </clipPath>
    <clipPath id="clippath-97">
      <circle class="cls-1" cx="118.5" cy="54.5" r="4.5"/>
    </clipPath>
    <clipPath id="clippath-98">
      <circle class="cls-1" cx="118.5" cy="68.5" r="4.5"/>
    </clipPath>
    <clipPath id="clippath-99">
      <circle class="cls-1" cx="118.5" cy="82.5" r="4.5"/>
    </clipPath>
    <clipPath id="clippath-100">
      <circle class="cls-1" cx="118.5" cy="96.5" r="4.5"/>
    </clipPath>
    <clipPath id="clippath-101">
      <circle class="cls-1" cx="118.5" cy="110.5" r="4.5"/>
    </clipPath>
    <clipPath id="clippath-102">
      <circle class="cls-1" cx="118.5" cy="124.5" r="4.5"/>
    </clipPath>
    <clipPath id="clippath-103">
      <circle class="cls-1" cx="118.5" cy="138.5" r="4.5"/>
    </clipPath>
    <clipPath id="clippath-104">
      <circle class="cls-1" cx="118.5" cy="152.5" r="4.5"/>
    </clipPath>
    <clipPath id="clippath-105">
      <circle class="cls-1" cx="118.5" cy="166.5" r="4.5"/>
    </clipPath>
    <clipPath id="clippath-106">
      <circle class="cls-1" cx="118.5" cy="40.5" r="4.5"/>
    </clipPath>
    <clipPath id="clippath-107">
      <circle class="cls-1" cx="132.5" cy="40.5" r="4.5"/>
    </clipPath>
    <clipPath id="clippath-108">
      <circle class="cls-1" cx="118.5" cy="54.5" r="4.5"/>
    </clipPath>
    <clipPath id="clippath-109">
      <circle class="cls-1" cx="132.5" cy="54.5" r="4.5"/>
    </clipPath>
    <clipPath id="clippath-110">
      <circle class="cls-1" cx="118.5" cy="68.5" r="4.5"/>
    </clipPath>
    <clipPath id="clippath-111">
      <circle class="cls-1" cx="132.5" cy="68.5" r="4.5"/>
    </clipPath>
    <clipPath id="clippath-112">
      <circle class="cls-1" cx="118.5" cy="82.5" r="4.5"/>
    </clipPath>
    <clipPath id="clippath-113">
      <circle class="cls-1" cx="132.5" cy="82.5" r="4.5"/>
    </clipPath>
    <clipPath id="clippath-114">
      <circle class="cls-1" cx="118.5" cy="96.5" r="4.5"/>
    </clipPath>
    <clipPath id="clippath-115">
      <circle class="cls-1" cx="132.5" cy="96.5" r="4.5"/>
    </clipPath>
    <clipPath id="clippath-116">
      <circle class="cls-1" cx="118.5" cy="110.5" r="4.5"/>
    </clipPath>
    <clipPath id="clippath-117">
      <circle class="cls-1" cx="132.5" cy="110.5" r="4.5"/>
    </clipPath>
    <clipPath id="clippath-118">
      <circle class="cls-1" cx="118.5" cy="124.5" r="4.5"/>
    </clipPath>
    <clipPath id="clippath-119">
      <circle class="cls-1" cx="132.5" cy="124.5" r="4.5"/>
    </clipPath>
    <clipPath id="clippath-120">
      <circle class="cls-1" cx="118.5" cy="138.5" r="4.5"/>
    </clipPath>
    <clipPath id="clippath-121">
      <circle class="cls-1" cx="132.5" cy="138.5" r="4.5"/>
    </clipPath>
    <clipPath id="clippath-122">
      <circle class="cls-1" cx="118.5" cy="152.5" r="4.5"/>
    </clipPath>
    <clipPath id="clippath-123">
      <circle class="cls-1" cx="132.5" cy="152.5" r="4.5"/>
    </clipPath>
    <clipPath id="clippath-124">
      <circle class="cls-1" cx="118.5" cy="166.5" r="4.5"/>
    </clipPath>
    <clipPath id="clippath-125">
      <circle class="cls-1" cx="132.5" cy="166.5" r="4.5"/>
    </clipPath>
    <clipPath id="clippath-126">
      <circle class="cls-1" cx="118.5" cy="180.5" r="4.5"/>
    </clipPath>
    <clipPath id="clippath-127">
      <circle class="cls-1" cx="132.5" cy="180.5" r="4.5"/>
    </clipPath>
    <clipPath id="clippath-128">
      <circle class="cls-1" cx="118.5" cy="194.5" r="4.5"/>
    </clipPath>
    <clipPath id="clippath-129">
      <circle class="cls-1" cx="132.5" cy="194.5" r="4.5"/>
    </clipPath>
  </defs>
  <g id="non-toccare">
    <g id="tracciat-base">
      <path class="cls-131" d="M153,26h1c0-3.87-3.13-7-7-7v1c3.31,0,6,2.69,6,6Z"/>
      <rect class="cls-131" y="19" width="147" height="1"/>
      <path class="cls-1" d="M153,26h1c0-3.87-3.13-7-7-7H0v1h147c3.31,0,6,2.69,6,6Z"/>
      <path class="cls-133" d="M154,26v150.41c1.22-2.04,3.45-3.41,6-3.41h279c3.87,0,7,3.13,7,7v35h17V23c0-12.15-9.85-22-22-22H0v18h147c3.87,0,7,3.13,7,7Z"/>
      <path class="cls-133" d="M445,180c0-3.31-2.69-6-6-6H160c-3.31,0-6,2.69-6,6v35h291v-35Z"/>
      <path class="cls-133" d="M153,215V26c0-3.31-2.69-6-6-6H0v195h153Z"/>
      <path class="cls-131" d="M463.5,23v192h.5V23c0-12.68-10.32-23-23-23H0v.5h441c12.43,0,22.5,10.07,22.5,22.5Z"/>
      <path class="cls-131" d="M463,23v192h.5V23c0-12.43-10.07-22.5-22.5-22.5H0v.5h441c12.15,0,22,9.85,22,22Z"/>
      <path class="cls-131" d="M154,26h-1v154c0-1.32.37-2.54,1-3.59V26Z"/>
      <path class="cls-131" d="M445,180h1c0-3.87-3.13-7-7-7v1c3.31,0,6,2.69,6,6Z"/>
      <rect class="cls-131" x="445" y="180" width="1" height="35"/>
      <rect class="cls-131" x="160" y="173" width="279" height="1"/>
      <path class="cls-131" d="M160,174v-1c-2.55,0-4.78,1.37-6,3.41v3.59c0-3.31,2.69-6,6-6Z"/>
      <rect class="cls-131" x="153" y="180" width="1" height="35"/>
      <path class="cls-131" d="M154,176.41c-.63,1.05-1,2.28-1,3.59h1v-3.59Z"/>
    </g>
    <g id="base-txt1">
      <g class="cls-134">
        <path class="cls-131" d="M160,19v-1c-4.42,0-8,3.58-8,8h2c0-3.31,2.69-6,6-6v-1ZM293,19v1c3.31,0,6,2.69,6,6h2c0-4.42-3.58-8-8-8v1ZM300,94h-1c0,3.31-2.69,6-6,6v2c4.42,0,8-3.58,8-8h-1ZM160,101v-1c-3.31,0-6-2.69-6-6h-2c0,4.42,3.58,8,8,8v-1ZM153,94h1V26h-2v68h1ZM293,101v-1h-133v2h133v-1ZM300,26h-1v68h2V26h-1ZM160,19v1h133v-2h-133v1Z"/>
      </g>
    </g>
    <g id="base-txt2">
      <g class="cls-92">
        <path class="cls-131" d="M306,19v-1c-4.42,0-8,3.58-8,8h2c0-3.31,2.69-6,6-6v-1ZM439,19v1c3.31,0,6,2.69,6,6h2c0-4.42-3.58-8-8-8v1ZM446,94h-1c0,3.31-2.69,6-6,6v2c4.42,0,8-3.58,8-8h-1ZM306,101v-1c-3.31,0-6-2.69-6-6h-2c0,4.42,3.58,8,8,8v-1ZM299,94h1V26h-2v68h1ZM439,101v-1h-133v2h133v-1ZM446,26h-1v68h2V26h-1ZM306,19v1h133v-2h-133v1Z"/>
      </g>
    </g>
    <path id="txt-1" class="cls-131" d="M284.42,76.02c0,1.78-1.2,2.98-2.98,2.98h-4.48c-1.78,0-2.98-1.2-2.98-2.98v-8.04c0-1.8,1.2-2.98,2.98-2.98h4.48c1.78,0,2.98,1.18,2.98,2.98v8.04ZM282.76,75.94v-7.9c0-.98-.62-1.6-1.6-1.6h-3.92c-.98,0-1.6.62-1.6,1.6v7.9c0,.98.62,1.62,1.6,1.62h3.92c.98,0,1.6-.64,1.6-1.62ZM261.27,66.44v-1.44h11.3v1.44h-4.82v12.56h-1.66v-12.56h-4.82,0ZM256.67,66.76l-2.7,7.2h5.4l-2.7-7.2h0ZM257.71,65l5.16,14h-1.74l-1.32-3.6h-6.28l-1.32,3.6h-1.7l5.18-14h2.02ZM247.54,79l-7.22-10.98v10.98h-1.66v-14h1.56l7.22,10.96v-10.96h1.66v14h-1.56ZM235.86,76.02c0,1.78-1.2,2.98-2.98,2.98h-4.48c-1.78,0-2.98-1.2-2.98-2.98v-8.04c0-1.8,1.2-2.98,2.98-2.98h4.48c1.78,0,2.98,1.18,2.98,2.98v8.04ZM234.2,75.94v-7.9c0-.98-.62-1.6-1.6-1.6h-3.92c-.98,0-1.6.62-1.6,1.6v7.9c0,.98.62,1.62,1.6,1.62h3.92c.98,0,1.6-.64,1.6-1.62ZM220.97,79v-14h1.66v14h-1.66ZM218.87,70.72c0,1.78-1.2,2.98-2.98,2.98h-5.2v5.3h-1.66v-14h6.86c1.78,0,2.98,1.18,2.98,2.98,0,0,0,2.74,0,2.74ZM217.21,70.66v-2.62c0-.98-.62-1.6-1.6-1.6h-4.92v5.82h4.92c.98,0,1.6-.62,1.6-1.6ZM204.59,79v-10.74l-4.38,8.18-4.36-8.18v10.74h-1.66v-14h1.6l4.42,8.28,4.42-8.28h1.6v14h-1.64ZM186.59,66.76l-2.7,7.2h5.4l-2.7-7.2ZM187.63,65l5.16,14h-1.74l-1.32-3.6h-6.28l-1.32,3.6h-1.7l5.18-14h2.02ZM179.02,69.5h-1.66v-1.46c0-.98-.62-1.6-1.6-1.6h-3.92c-.98,0-1.6.62-1.6,1.6v7.9c0,.98.62,1.62,1.6,1.62h3.92c.98,0,1.6-.64,1.6-1.62v-1.44h1.66v1.52c0,1.78-1.2,2.98-2.98,2.98h-4.48c-1.78,0-2.98-1.2-2.98-2.98v-8.04c0-1.8,1.2-2.98,2.98-2.98h4.48c1.78,0,2.98,1.18,2.98,2.98v1.52ZM258.11,52.02c0,1.78-1.2,2.98-2.98,2.98h-4.48c-1.78,0-2.98-1.2-2.98-2.98v-8.04c0-1.8,1.2-2.98,2.98-2.98h4.48c1.78,0,2.98,1.18,2.98,2.98v8.04ZM256.45,51.94v-7.9c0-.98-.62-1.6-1.6-1.6h-3.92c-.98,0-1.6.62-1.6,1.6v7.9c0,.98.62,1.62,1.6,1.62h3.92c.98,0,1.6-.64,1.6-1.62ZM243.3,55l-7.22-10.98v10.98h-1.66v-14h1.56l7.22,10.96v-10.96h1.66v14h-1.56ZM231.62,52.02c0,1.78-1.2,2.98-2.98,2.98h-4.48c-1.78,0-2.98-1.2-2.98-2.98v-8.04c0-1.8,1.2-2.98,2.98-2.98h4.48c1.78,0,2.98,1.18,2.98,2.98v8.04ZM229.96,51.94v-7.9c0-.98-.62-1.6-1.6-1.6h-3.92c-.98,0-1.6.62-1.6,1.6v7.9c0,.98.62,1.62,1.6,1.62h3.92c.98,0,1.6-.64,1.6-1.62ZM216.72,41h1.66v11.02c0,1.78-1.2,2.98-2.98,2.98h-4.48c-1.78,0-2.98-1.2-2.98-2.98v-11.02h1.66v10.94c0,.98.62,1.62,1.6,1.62h3.92c.98,0,1.6-.64,1.6-1.62v-10.94h0ZM202.15,47.26c1.78,0,2.98,1.2,2.98,2.98v1.78c0,1.78-1.2,2.98-2.98,2.98h-4.28c-1.78,0-2.98-1.2-2.98-2.98v-1.22h1.66v1.14c0,1,.62,1.62,1.6,1.62h3.72c.98,0,1.6-.62,1.6-1.62v-1.62c0-.98-.62-1.62-1.6-1.62h-4c-1.78,0-2.98-1.2-2.98-2.98v-1.74c0-1.8,1.2-2.98,2.98-2.98h4.28c1.78,0,2.98,1.18,2.98,2.98v1.22h-1.66v-1.16c0-.98-.62-1.6-1.6-1.6h-3.72c-.98,0-1.6.62-1.6,1.6v1.62c0,.98.62,1.6,1.6,1.6,0,0,4,0,4,0Z"/>
    <path id="txt-2" class="cls-131" d="M384.56,54.44v-1.44h11.3v1.44h-4.82v12.56h-1.66v-12.56h-4.82,0ZM379.96,54.76l-2.7,7.2h5.4l-2.7-7.2h0ZM381,53l5.16,14h-1.74l-1.32-3.6h-6.28l-1.32,3.6h-1.7l5.18-14h2.02ZM363.97,67v-14h9.04v1.44h-7.38v4.82h6.38v1.44h-6.38v4.86h7.38v1.44h-9.04ZM360.01,57.66v-1.62c0-.98-.62-1.6-1.6-1.6h-5.22v4.82h5.22c.98,0,1.6-.62,1.6-1.6ZM360.11,63.94v-1.62c0-1-.62-1.62-1.6-1.62h-5.32v4.86h5.32c.98,0,1.6-.64,1.6-1.62ZM361.67,55.98v1.28c0,1.32-.68,2.32-1.72,2.72,1.1.38,1.82,1.38,1.82,2.74v1.3c0,1.78-1.2,2.98-2.98,2.98h-7.26v-14h7.16c1.78,0,2.98,1.18,2.98,2.98Z"/>
    <g id="pallini">
      <g class="cls-95">
        <path class="cls-131" d="M20.5,36v1c1.93,0,3.5,1.57,3.5,3.5h2c0-3.04-2.46-5.5-5.5-5.5v1ZM16,40.5h1c0-1.93,1.57-3.5,3.5-3.5v-2c-3.04,0-5.5,2.46-5.5,5.5h1ZM20.5,45v-1c-1.93,0-3.5-1.57-3.5-3.5h-2c0,3.04,2.46,5.5,5.5,5.5v-1ZM25,40.5h-1c0,1.93-1.57,3.5-3.5,3.5v2c3.04,0,5.5-2.46,5.5-5.5h-1Z"/>
      </g>
      <g class="cls-93">
        <path class="cls-131" d="M20.5,50v1c1.93,0,3.5,1.57,3.5,3.5h2c0-3.04-2.46-5.5-5.5-5.5v1ZM16,54.5h1c0-1.93,1.57-3.5,3.5-3.5v-2c-3.04,0-5.5,2.46-5.5,5.5h1ZM20.5,59v-1c-1.93,0-3.5-1.57-3.5-3.5h-2c0,3.04,2.46,5.5,5.5,5.5v-1ZM25,54.5h-1c0,1.93-1.57,3.5-3.5,3.5v2c3.04,0,5.5-2.46,5.5-5.5h-1Z"/>
      </g>
      <g class="cls-94">
        <path class="cls-131" d="M20.5,64v1c1.93,0,3.5,1.57,3.5,3.5h2c0-3.04-2.46-5.5-5.5-5.5v1ZM16,68.5h1c0-1.93,1.57-3.5,3.5-3.5v-2c-3.04,0-5.5,2.46-5.5,5.5h1ZM20.5,73v-1c-1.93,0-3.5-1.57-3.5-3.5h-2c0,3.04,2.46,5.5,5.5,5.5v-1ZM25,68.5h-1c0,1.93-1.57,3.5-3.5,3.5v2c3.04,0,5.5-2.46,5.5-5.5h-1Z"/>
      </g>
      <g class="cls-100">
        <path class="cls-131" d="M20.5,78v1c1.93,0,3.5,1.57,3.5,3.5h2c0-3.04-2.46-5.5-5.5-5.5v1ZM16,82.5h1c0-1.93,1.57-3.5,3.5-3.5v-2c-3.04,0-5.5,2.46-5.5,5.5h1ZM20.5,87v-1c-1.93,0-3.5-1.57-3.5-3.5h-2c0,3.04,2.46,5.5,5.5,5.5v-1ZM25,82.5h-1c0,1.93-1.57,3.5-3.5,3.5v2c3.04,0,5.5-2.46,5.5-5.5h-1Z"/>
      </g>
      <g class="cls-97">
        <path class="cls-131" d="M20.5,92v1c1.93,0,3.5,1.57,3.5,3.5h2c0-3.04-2.46-5.5-5.5-5.5v1ZM16,96.5h1c0-1.93,1.57-3.5,3.5-3.5v-2c-3.04,0-5.5,2.46-5.5,5.5h1ZM20.5,101v-1c-1.93,0-3.5-1.57-3.5-3.5h-2c0,3.04,2.46,5.5,5.5,5.5v-1ZM25,96.5h-1c0,1.93-1.57,3.5-3.5,3.5v2c3.04,0,5.5-2.46,5.5-5.5h-1Z"/>
      </g>
      <g class="cls-96">
        <path class="cls-131" d="M20.5,106v1c1.93,0,3.5,1.57,3.5,3.5h2c0-3.04-2.46-5.5-5.5-5.5v1ZM16,110.5h1c0-1.93,1.57-3.5,3.5-3.5v-2c-3.04,0-5.5,2.46-5.5,5.5h1ZM20.5,115v-1c-1.93,0-3.5-1.57-3.5-3.5h-2c0,3.04,2.46,5.5,5.5,5.5v-1ZM25,110.5h-1c0,1.93-1.57,3.5-3.5,3.5v2c3.04,0,5.5-2.46,5.5-5.5h-1Z"/>
      </g>
      <g class="cls-99">
        <path class="cls-131" d="M20.5,120v1c1.93,0,3.5,1.57,3.5,3.5h2c0-3.04-2.46-5.5-5.5-5.5v1ZM16,124.5h1c0-1.93,1.57-3.5,3.5-3.5v-2c-3.04,0-5.5,2.46-5.5,5.5h1ZM20.5,129v-1c-1.93,0-3.5-1.57-3.5-3.5h-2c0,3.04,2.46,5.5,5.5,5.5v-1ZM25,124.5h-1c0,1.93-1.57,3.5-3.5,3.5v2c3.04,0,5.5-2.46,5.5-5.5h-1Z"/>
      </g>
      <g class="cls-98">
        <path class="cls-131" d="M20.5,134v1c1.93,0,3.5,1.57,3.5,3.5h2c0-3.04-2.46-5.5-5.5-5.5v1ZM16,138.5h1c0-1.93,1.57-3.5,3.5-3.5v-2c-3.04,0-5.5,2.46-5.5,5.5h1ZM20.5,143v-1c-1.93,0-3.5-1.57-3.5-3.5h-2c0,3.04,2.46,5.5,5.5,5.5v-1ZM25,138.5h-1c0,1.93-1.57,3.5-3.5,3.5v2c3.04,0,5.5-2.46,5.5-5.5h-1Z"/>
      </g>
      <g class="cls-7">
        <path class="cls-131" d="M20.5,148v1c1.93,0,3.5,1.57,3.5,3.5h2c0-3.04-2.46-5.5-5.5-5.5v1ZM16,152.5h1c0-1.93,1.57-3.5,3.5-3.5v-2c-3.04,0-5.5,2.46-5.5,5.5h1ZM20.5,157v-1c-1.93,0-3.5-1.57-3.5-3.5h-2c0,3.04,2.46,5.5,5.5,5.5v-1ZM25,152.5h-1c0,1.93-1.57,3.5-3.5,3.5v2c3.04,0,5.5-2.46,5.5-5.5h-1Z"/>
      </g>
      <g class="cls-4">
        <path class="cls-131" d="M20.5,162v1c1.93,0,3.5,1.57,3.5,3.5h2c0-3.04-2.46-5.5-5.5-5.5v1ZM16,166.5h1c0-1.93,1.57-3.5,3.5-3.5v-2c-3.04,0-5.5,2.46-5.5,5.5h1ZM20.5,171v-1c-1.93,0-3.5-1.57-3.5-3.5h-2c0,3.04,2.46,5.5,5.5,5.5v-1ZM25,166.5h-1c0,1.93-1.57,3.5-3.5,3.5v2c3.04,0,5.5-2.46,5.5-5.5h-1Z"/>
      </g>
      <g class="cls-11">
        <path class="cls-131" d="M20.5,176v1c1.93,0,3.5,1.57,3.5,3.5h2c0-3.04-2.46-5.5-5.5-5.5v1ZM16,180.5h1c0-1.93,1.57-3.5,3.5-3.5v-2c-3.04,0-5.5,2.46-5.5,5.5h1ZM20.5,185v-1c-1.93,0-3.5-1.57-3.5-3.5h-2c0,3.04,2.46,5.5,5.5,5.5v-1ZM25,180.5h-1c0,1.93-1.57,3.5-3.5,3.5v2c3.04,0,5.5-2.46,5.5-5.5h-1Z"/>
      </g>
      <g class="cls-9">
        <path class="cls-131" d="M20.5,190v1c1.93,0,3.5,1.57,3.5,3.5h2c0-3.04-2.46-5.5-5.5-5.5v1ZM16,194.5h1c0-1.93,1.57-3.5,3.5-3.5v-2c-3.04,0-5.5,2.46-5.5,5.5h1ZM20.5,199v-1c-1.93,0-3.5-1.57-3.5-3.5h-2c0,3.04,2.46,5.5,5.5,5.5v-1ZM25,194.5h-1c0,1.93-1.57,3.5-3.5,3.5v2c3.04,0,5.5-2.46,5.5-5.5h-1Z"/>
      </g>
      <g class="cls-10">
        <path class="cls-131" d="M34.5,36v1c1.93,0,3.5,1.57,3.5,3.5h2c0-3.04-2.46-5.5-5.5-5.5v1ZM30,40.5h1c0-1.93,1.57-3.5,3.5-3.5v-2c-3.04,0-5.5,2.46-5.5,5.5h1ZM34.5,45v-1c-1.93,0-3.5-1.57-3.5-3.5h-2c0,3.04,2.46,5.5,5.5,5.5v-1ZM39,40.5h-1c0,1.93-1.57,3.5-3.5,3.5v2c3.04,0,5.5-2.46,5.5-5.5h-1Z"/>
      </g>
      <g class="cls-8">
        <path class="cls-131" d="M34.5,50v1c1.93,0,3.5,1.57,3.5,3.5h2c0-3.04-2.46-5.5-5.5-5.5v1ZM30,54.5h1c0-1.93,1.57-3.5,3.5-3.5v-2c-3.04,0-5.5,2.46-5.5,5.5h1ZM34.5,59v-1c-1.93,0-3.5-1.57-3.5-3.5h-2c0,3.04,2.46,5.5,5.5,5.5v-1ZM39,54.5h-1c0,1.93-1.57,3.5-3.5,3.5v2c3.04,0,5.5-2.46,5.5-5.5h-1Z"/>
      </g>
      <g class="cls-5">
        <path class="cls-131" d="M34.5,64v1c1.93,0,3.5,1.57,3.5,3.5h2c0-3.04-2.46-5.5-5.5-5.5v1ZM30,68.5h1c0-1.93,1.57-3.5,3.5-3.5v-2c-3.04,0-5.5,2.46-5.5,5.5h1ZM34.5,73v-1c-1.93,0-3.5-1.57-3.5-3.5h-2c0,3.04,2.46,5.5,5.5,5.5v-1ZM39,68.5h-1c0,1.93-1.57,3.5-3.5,3.5v2c3.04,0,5.5-2.46,5.5-5.5h-1Z"/>
      </g>
      <g class="cls-2">
        <path class="cls-131" d="M34.5,78v1c1.93,0,3.5,1.57,3.5,3.5h2c0-3.04-2.46-5.5-5.5-5.5v1ZM30,82.5h1c0-1.93,1.57-3.5,3.5-3.5v-2c-3.04,0-5.5,2.46-5.5,5.5h1ZM34.5,87v-1c-1.93,0-3.5-1.57-3.5-3.5h-2c0,3.04,2.46,5.5,5.5,5.5v-1ZM39,82.5h-1c0,1.93-1.57,3.5-3.5,3.5v2c3.04,0,5.5-2.46,5.5-5.5h-1Z"/>
      </g>
      <g class="cls-6">
        <path class="cls-131" d="M34.5,92v1c1.93,0,3.5,1.57,3.5,3.5h2c0-3.04-2.46-5.5-5.5-5.5v1ZM30,96.5h1c0-1.93,1.57-3.5,3.5-3.5v-2c-3.04,0-5.5,2.46-5.5,5.5h1ZM34.5,101v-1c-1.93,0-3.5-1.57-3.5-3.5h-2c0,3.04,2.46,5.5,5.5,5.5v-1ZM39,96.5h-1c0,1.93-1.57,3.5-3.5,3.5v2c3.04,0,5.5-2.46,5.5-5.5h-1Z"/>
      </g>
      <g class="cls-3">
        <path class="cls-131" d="M34.5,106v1c1.93,0,3.5,1.57,3.5,3.5h2c0-3.04-2.46-5.5-5.5-5.5v1ZM30,110.5h1c0-1.93,1.57-3.5,3.5-3.5v-2c-3.04,0-5.5,2.46-5.5,5.5h1ZM34.5,115v-1c-1.93,0-3.5-1.57-3.5-3.5h-2c0,3.04,2.46,5.5,5.5,5.5v-1ZM39,110.5h-1c0,1.93-1.57,3.5-3.5,3.5v2c3.04,0,5.5-2.46,5.5-5.5h-1Z"/>
      </g>
      <g class="cls-55">
        <path class="cls-131" d="M34.5,120v1c1.93,0,3.5,1.57,3.5,3.5h2c0-3.04-2.46-5.5-5.5-5.5v1ZM30,124.5h1c0-1.93,1.57-3.5,3.5-3.5v-2c-3.04,0-5.5,2.46-5.5,5.5h1ZM34.5,129v-1c-1.93,0-3.5-1.57-3.5-3.5h-2c0,3.04,2.46,5.5,5.5,5.5v-1ZM39,124.5h-1c0,1.93-1.57,3.5-3.5,3.5v2c3.04,0,5.5-2.46,5.5-5.5h-1Z"/>
      </g>
      <g class="cls-56">
        <path class="cls-131" d="M34.5,134v1c1.93,0,3.5,1.57,3.5,3.5h2c0-3.04-2.46-5.5-5.5-5.5v1ZM30,138.5h1c0-1.93,1.57-3.5,3.5-3.5v-2c-3.04,0-5.5,2.46-5.5,5.5h1ZM34.5,143v-1c-1.93,0-3.5-1.57-3.5-3.5h-2c0,3.04,2.46,5.5,5.5,5.5v-1ZM39,138.5h-1c0,1.93-1.57,3.5-3.5,3.5v2c3.04,0,5.5-2.46,5.5-5.5h-1Z"/>
      </g>
      <g class="cls-57">
        <path class="cls-131" d="M34.5,148v1c1.93,0,3.5,1.57,3.5,3.5h2c0-3.04-2.46-5.5-5.5-5.5v1ZM30,152.5h1c0-1.93,1.57-3.5,3.5-3.5v-2c-3.04,0-5.5,2.46-5.5,5.5h1ZM34.5,157v-1c-1.93,0-3.5-1.57-3.5-3.5h-2c0,3.04,2.46,5.5,5.5,5.5v-1ZM39,152.5h-1c0,1.93-1.57,3.5-3.5,3.5v2c3.04,0,5.5-2.46,5.5-5.5h-1Z"/>
      </g>
      <g class="cls-58">
        <path class="cls-131" d="M34.5,162v1c1.93,0,3.5,1.57,3.5,3.5h2c0-3.04-2.46-5.5-5.5-5.5v1ZM30,166.5h1c0-1.93,1.57-3.5,3.5-3.5v-2c-3.04,0-5.5,2.46-5.5,5.5h1ZM34.5,171v-1c-1.93,0-3.5-1.57-3.5-3.5h-2c0,3.04,2.46,5.5,5.5,5.5v-1ZM39,166.5h-1c0,1.93-1.57,3.5-3.5,3.5v2c3.04,0,5.5-2.46,5.5-5.5h-1Z"/>
      </g>
      <g class="cls-59">
        <path class="cls-131" d="M34.5,176v1c1.93,0,3.5,1.57,3.5,3.5h2c0-3.04-2.46-5.5-5.5-5.5v1ZM30,180.5h1c0-1.93,1.57-3.5,3.5-3.5v-2c-3.04,0-5.5,2.46-5.5,5.5h1ZM34.5,185v-1c-1.93,0-3.5-1.57-3.5-3.5h-2c0,3.04,2.46,5.5,5.5,5.5v-1ZM39,180.5h-1c0,1.93-1.57,3.5-3.5,3.5v2c3.04,0,5.5-2.46,5.5-5.5h-1Z"/>
      </g>
      <g class="cls-60">
        <path class="cls-131" d="M34.5,190v1c1.93,0,3.5,1.57,3.5,3.5h2c0-3.04-2.46-5.5-5.5-5.5v1ZM30,194.5h1c0-1.93,1.57-3.5,3.5-3.5v-2c-3.04,0-5.5,2.46-5.5,5.5h1ZM34.5,199v-1c-1.93,0-3.5-1.57-3.5-3.5h-2c0,3.04,2.46,5.5,5.5,5.5v-1ZM39,194.5h-1c0,1.93-1.57,3.5-3.5,3.5v2c3.04,0,5.5-2.46,5.5-5.5h-1Z"/>
      </g>
      <g class="cls-53">
        <path class="cls-131" d="M48.5,36v1c1.93,0,3.5,1.57,3.5,3.5h2c0-3.04-2.46-5.5-5.5-5.5v1ZM44,40.5h1c0-1.93,1.57-3.5,3.5-3.5v-2c-3.04,0-5.5,2.46-5.5,5.5h1ZM48.5,45v-1c-1.93,0-3.5-1.57-3.5-3.5h-2c0,3.04,2.46,5.5,5.5,5.5v-1ZM53,40.5h-1c0,1.93-1.57,3.5-3.5,3.5v2c3.04,0,5.5-2.46,5.5-5.5h-1Z"/>
      </g>
      <g class="cls-51">
        <path class="cls-131" d="M48.5,50v1c1.93,0,3.5,1.57,3.5,3.5h2c0-3.04-2.46-5.5-5.5-5.5v1ZM44,54.5h1c0-1.93,1.57-3.5,3.5-3.5v-2c-3.04,0-5.5,2.46-5.5,5.5h1ZM48.5,59v-1c-1.93,0-3.5-1.57-3.5-3.5h-2c0,3.04,2.46,5.5,5.5,5.5v-1ZM53,54.5h-1c0,1.93-1.57,3.5-3.5,3.5v2c3.04,0,5.5-2.46,5.5-5.5h-1Z"/>
      </g>
      <g class="cls-54">
        <path class="cls-131" d="M48.5,64v1c1.93,0,3.5,1.57,3.5,3.5h2c0-3.04-2.46-5.5-5.5-5.5v1ZM44,68.5h1c0-1.93,1.57-3.5,3.5-3.5v-2c-3.04,0-5.5,2.46-5.5,5.5h1ZM48.5,73v-1c-1.93,0-3.5-1.57-3.5-3.5h-2c0,3.04,2.46,5.5,5.5,5.5v-1ZM53,68.5h-1c0,1.93-1.57,3.5-3.5,3.5v2c3.04,0,5.5-2.46,5.5-5.5h-1Z"/>
      </g>
      <g class="cls-52">
        <path class="cls-131" d="M48.5,78v1c1.93,0,3.5,1.57,3.5,3.5h2c0-3.04-2.46-5.5-5.5-5.5v1ZM44,82.5h1c0-1.93,1.57-3.5,3.5-3.5v-2c-3.04,0-5.5,2.46-5.5,5.5h1ZM48.5,87v-1c-1.93,0-3.5-1.57-3.5-3.5h-2c0,3.04,2.46,5.5,5.5,5.5v-1ZM53,82.5h-1c0,1.93-1.57,3.5-3.5,3.5v2c3.04,0,5.5-2.46,5.5-5.5h-1Z"/>
      </g>
      <g class="cls-47">
        <path class="cls-131" d="M48.5,92v1c1.93,0,3.5,1.57,3.5,3.5h2c0-3.04-2.46-5.5-5.5-5.5v1ZM44,96.5h1c0-1.93,1.57-3.5,3.5-3.5v-2c-3.04,0-5.5,2.46-5.5,5.5h1ZM48.5,101v-1c-1.93,0-3.5-1.57-3.5-3.5h-2c0,3.04,2.46,5.5,5.5,5.5v-1ZM53,96.5h-1c0,1.93-1.57,3.5-3.5,3.5v2c3.04,0,5.5-2.46,5.5-5.5h-1Z"/>
      </g>
      <g class="cls-41">
        <path class="cls-131" d="M48.5,106v1c1.93,0,3.5,1.57,3.5,3.5h2c0-3.04-2.46-5.5-5.5-5.5v1ZM44,110.5h1c0-1.93,1.57-3.5,3.5-3.5v-2c-3.04,0-5.5,2.46-5.5,5.5h1ZM48.5,115v-1c-1.93,0-3.5-1.57-3.5-3.5h-2c0,3.04,2.46,5.5,5.5,5.5v-1ZM53,110.5h-1c0,1.93-1.57,3.5-3.5,3.5v2c3.04,0,5.5-2.46,5.5-5.5h-1Z"/>
      </g>
      <g class="cls-42">
        <path class="cls-131" d="M48.5,120v1c1.93,0,3.5,1.57,3.5,3.5h2c0-3.04-2.46-5.5-5.5-5.5v1ZM44,124.5h1c0-1.93,1.57-3.5,3.5-3.5v-2c-3.04,0-5.5,2.46-5.5,5.5h1ZM48.5,129v-1c-1.93,0-3.5-1.57-3.5-3.5h-2c0,3.04,2.46,5.5,5.5,5.5v-1ZM53,124.5h-1c0,1.93-1.57,3.5-3.5,3.5v2c3.04,0,5.5-2.46,5.5-5.5h-1Z"/>
      </g>
      <g class="cls-43">
        <path class="cls-131" d="M48.5,134v1c1.93,0,3.5,1.57,3.5,3.5h2c0-3.04-2.46-5.5-5.5-5.5v1ZM44,138.5h1c0-1.93,1.57-3.5,3.5-3.5v-2c-3.04,0-5.5,2.46-5.5,5.5h1ZM48.5,143v-1c-1.93,0-3.5-1.57-3.5-3.5h-2c0,3.04,2.46,5.5,5.5,5.5v-1ZM53,138.5h-1c0,1.93-1.57,3.5-3.5,3.5v2c3.04,0,5.5-2.46,5.5-5.5h-1Z"/>
      </g>
      <g class="cls-44">
        <path class="cls-131" d="M48.5,148v1c1.93,0,3.5,1.57,3.5,3.5h2c0-3.04-2.46-5.5-5.5-5.5v1ZM44,152.5h1c0-1.93,1.57-3.5,3.5-3.5v-2c-3.04,0-5.5,2.46-5.5,5.5h1ZM48.5,157v-1c-1.93,0-3.5-1.57-3.5-3.5h-2c0,3.04,2.46,5.5,5.5,5.5v-1ZM53,152.5h-1c0,1.93-1.57,3.5-3.5,3.5v2c3.04,0,5.5-2.46,5.5-5.5h-1Z"/>
      </g>
      <g class="cls-45">
        <path class="cls-131" d="M48.5,162v1c1.93,0,3.5,1.57,3.5,3.5h2c0-3.04-2.46-5.5-5.5-5.5v1ZM44,166.5h1c0-1.93,1.57-3.5,3.5-3.5v-2c-3.04,0-5.5,2.46-5.5,5.5h1ZM48.5,171v-1c-1.93,0-3.5-1.57-3.5-3.5h-2c0,3.04,2.46,5.5,5.5,5.5v-1ZM53,166.5h-1c0,1.93-1.57,3.5-3.5,3.5v2c3.04,0,5.5-2.46,5.5-5.5h-1Z"/>
      </g>
      <g class="cls-48">
        <path class="cls-131" d="M48.5,176v1c1.93,0,3.5,1.57,3.5,3.5h2c0-3.04-2.46-5.5-5.5-5.5v1ZM44,180.5h1c0-1.93,1.57-3.5,3.5-3.5v-2c-3.04,0-5.5,2.46-5.5,5.5h1ZM48.5,185v-1c-1.93,0-3.5-1.57-3.5-3.5h-2c0,3.04,2.46,5.5,5.5,5.5v-1ZM53,180.5h-1c0,1.93-1.57,3.5-3.5,3.5v2c3.04,0,5.5-2.46,5.5-5.5h-1Z"/>
      </g>
      <g class="cls-49">
        <path class="cls-131" d="M48.5,190v1c1.93,0,3.5,1.57,3.5,3.5h2c0-3.04-2.46-5.5-5.5-5.5v1ZM44,194.5h1c0-1.93,1.57-3.5,3.5-3.5v-2c-3.04,0-5.5,2.46-5.5,5.5h1ZM48.5,199v-1c-1.93,0-3.5-1.57-3.5-3.5h-2c0,3.04,2.46,5.5,5.5,5.5v-1ZM53,194.5h-1c0,1.93-1.57,3.5-3.5,3.5v2c3.04,0,5.5-2.46,5.5-5.5h-1Z"/>
      </g>
      <g class="cls-50">
        <path class="cls-131" d="M62.5,36v1c1.93,0,3.5,1.57,3.5,3.5h2c0-3.04-2.46-5.5-5.5-5.5v1ZM58,40.5h1c0-1.93,1.57-3.5,3.5-3.5v-2c-3.04,0-5.5,2.46-5.5,5.5h1ZM62.5,45v-1c-1.93,0-3.5-1.57-3.5-3.5h-2c0,3.04,2.46,5.5,5.5,5.5v-1ZM67,40.5h-1c0,1.93-1.57,3.5-3.5,3.5v2c3.04,0,5.5-2.46,5.5-5.5h-1Z"/>
      </g>
      <g class="cls-46">
        <path class="cls-131" d="M62.5,50v1c1.93,0,3.5,1.57,3.5,3.5h2c0-3.04-2.46-5.5-5.5-5.5v1ZM58,54.5h1c0-1.93,1.57-3.5,3.5-3.5v-2c-3.04,0-5.5,2.46-5.5,5.5h1ZM62.5,59v-1c-1.93,0-3.5-1.57-3.5-3.5h-2c0,3.04,2.46,5.5,5.5,5.5v-1ZM67,54.5h-1c0,1.93-1.57,3.5-3.5,3.5v2c3.04,0,5.5-2.46,5.5-5.5h-1Z"/>
      </g>
      <g class="cls-68">
        <path class="cls-131" d="M62.5,64v1c1.93,0,3.5,1.57,3.5,3.5h2c0-3.04-2.46-5.5-5.5-5.5v1ZM58,68.5h1c0-1.93,1.57-3.5,3.5-3.5v-2c-3.04,0-5.5,2.46-5.5,5.5h1ZM62.5,73v-1c-1.93,0-3.5-1.57-3.5-3.5h-2c0,3.04,2.46,5.5,5.5,5.5v-1ZM67,68.5h-1c0,1.93-1.57,3.5-3.5,3.5v2c3.04,0,5.5-2.46,5.5-5.5h-1Z"/>
      </g>
      <g class="cls-62">
        <path class="cls-131" d="M62.5,78v1c1.93,0,3.5,1.57,3.5,3.5h2c0-3.04-2.46-5.5-5.5-5.5v1ZM58,82.5h1c0-1.93,1.57-3.5,3.5-3.5v-2c-3.04,0-5.5,2.46-5.5,5.5h1ZM62.5,87v-1c-1.93,0-3.5-1.57-3.5-3.5h-2c0,3.04,2.46,5.5,5.5,5.5v-1ZM67,82.5h-1c0,1.93-1.57,3.5-3.5,3.5v2c3.04,0,5.5-2.46,5.5-5.5h-1Z"/>
      </g>
      <g class="cls-63">
        <path class="cls-131" d="M62.5,92v1c1.93,0,3.5,1.57,3.5,3.5h2c0-3.04-2.46-5.5-5.5-5.5v1ZM58,96.5h1c0-1.93,1.57-3.5,3.5-3.5v-2c-3.04,0-5.5,2.46-5.5,5.5h1ZM62.5,101v-1c-1.93,0-3.5-1.57-3.5-3.5h-2c0,3.04,2.46,5.5,5.5,5.5v-1ZM67,96.5h-1c0,1.93-1.57,3.5-3.5,3.5v2c3.04,0,5.5-2.46,5.5-5.5h-1Z"/>
      </g>
      <g class="cls-64">
        <path class="cls-131" d="M62.5,106v1c1.93,0,3.5,1.57,3.5,3.5h2c0-3.04-2.46-5.5-5.5-5.5v1ZM58,110.5h1c0-1.93,1.57-3.5,3.5-3.5v-2c-3.04,0-5.5,2.46-5.5,5.5h1ZM62.5,115v-1c-1.93,0-3.5-1.57-3.5-3.5h-2c0,3.04,2.46,5.5,5.5,5.5v-1ZM67,110.5h-1c0,1.93-1.57,3.5-3.5,3.5v2c3.04,0,5.5-2.46,5.5-5.5h-1Z"/>
      </g>
      <g class="cls-65">
        <path class="cls-131" d="M62.5,120v1c1.93,0,3.5,1.57,3.5,3.5h2c0-3.04-2.46-5.5-5.5-5.5v1ZM58,124.5h1c0-1.93,1.57-3.5,3.5-3.5v-2c-3.04,0-5.5,2.46-5.5,5.5h1ZM62.5,129v-1c-1.93,0-3.5-1.57-3.5-3.5h-2c0,3.04,2.46,5.5,5.5,5.5v-1ZM67,124.5h-1c0,1.93-1.57,3.5-3.5,3.5v2c3.04,0,5.5-2.46,5.5-5.5h-1Z"/>
      </g>
      <g class="cls-66">
        <path class="cls-131" d="M62.5,134v1c1.93,0,3.5,1.57,3.5,3.5h2c0-3.04-2.46-5.5-5.5-5.5v1ZM58,138.5h1c0-1.93,1.57-3.5,3.5-3.5v-2c-3.04,0-5.5,2.46-5.5,5.5h1ZM62.5,143v-1c-1.93,0-3.5-1.57-3.5-3.5h-2c0,3.04,2.46,5.5,5.5,5.5v-1ZM67,138.5h-1c0,1.93-1.57,3.5-3.5,3.5v2c3.04,0,5.5-2.46,5.5-5.5h-1Z"/>
      </g>
      <g class="cls-69">
        <path class="cls-131" d="M62.5,148v1c1.93,0,3.5,1.57,3.5,3.5h2c0-3.04-2.46-5.5-5.5-5.5v1ZM58,152.5h1c0-1.93,1.57-3.5,3.5-3.5v-2c-3.04,0-5.5,2.46-5.5,5.5h1ZM62.5,157v-1c-1.93,0-3.5-1.57-3.5-3.5h-2c0,3.04,2.46,5.5,5.5,5.5v-1ZM67,152.5h-1c0,1.93-1.57,3.5-3.5,3.5v2c3.04,0,5.5-2.46,5.5-5.5h-1Z"/>
      </g>
      <g class="cls-70">
        <path class="cls-131" d="M62.5,162v1c1.93,0,3.5,1.57,3.5,3.5h2c0-3.04-2.46-5.5-5.5-5.5v1ZM58,166.5h1c0-1.93,1.57-3.5,3.5-3.5v-2c-3.04,0-5.5,2.46-5.5,5.5h1ZM62.5,171v-1c-1.93,0-3.5-1.57-3.5-3.5h-2c0,3.04,2.46,5.5,5.5,5.5v-1ZM67,166.5h-1c0,1.93-1.57,3.5-3.5,3.5v2c3.04,0,5.5-2.46,5.5-5.5h-1Z"/>
      </g>
      <g class="cls-71">
        <path class="cls-131" d="M62.5,176v1c1.93,0,3.5,1.57,3.5,3.5h2c0-3.04-2.46-5.5-5.5-5.5v1ZM58,180.5h1c0-1.93,1.57-3.5,3.5-3.5v-2c-3.04,0-5.5,2.46-5.5,5.5h1ZM62.5,185v-1c-1.93,0-3.5-1.57-3.5-3.5h-2c0,3.04,2.46,5.5,5.5,5.5v-1ZM67,180.5h-1c0,1.93-1.57,3.5-3.5,3.5v2c3.04,0,5.5-2.46,5.5-5.5h-1Z"/>
      </g>
      <g class="cls-67">
        <path class="cls-131" d="M62.5,190v1c1.93,0,3.5,1.57,3.5,3.5h2c0-3.04-2.46-5.5-5.5-5.5v1ZM58,194.5h1c0-1.93,1.57-3.5,3.5-3.5v-2c-3.04,0-5.5,2.46-5.5,5.5h1ZM62.5,199v-1c-1.93,0-3.5-1.57-3.5-3.5h-2c0,3.04,2.46,5.5,5.5,5.5v-1ZM67,194.5h-1c0,1.93-1.57,3.5-3.5,3.5v2c3.04,0,5.5-2.46,5.5-5.5h-1Z"/>
      </g>
      <g class="cls-25">
        <path class="cls-131" d="M76.5,36v1c1.93,0,3.5,1.57,3.5,3.5h2c0-3.04-2.46-5.5-5.5-5.5v1ZM72,40.5h1c0-1.93,1.57-3.5,3.5-3.5v-2c-3.04,0-5.5,2.46-5.5,5.5h1ZM76.5,45v-1c-1.93,0-3.5-1.57-3.5-3.5h-2c0,3.04,2.46,5.5,5.5,5.5v-1ZM81,40.5h-1c0,1.93-1.57,3.5-3.5,3.5v2c3.04,0,5.5-2.46,5.5-5.5h-1Z"/>
      </g>
      <g class="cls-38">
        <path class="cls-131" d="M76.5,50v1c1.93,0,3.5,1.57,3.5,3.5h2c0-3.04-2.46-5.5-5.5-5.5v1ZM72,54.5h1c0-1.93,1.57-3.5,3.5-3.5v-2c-3.04,0-5.5,2.46-5.5,5.5h1ZM76.5,59v-1c-1.93,0-3.5-1.57-3.5-3.5h-2c0,3.04,2.46,5.5,5.5,5.5v-1ZM81,54.5h-1c0,1.93-1.57,3.5-3.5,3.5v2c3.04,0,5.5-2.46,5.5-5.5h-1Z"/>
      </g>
      <g class="cls-27">
        <path class="cls-131" d="M76.5,64v1c1.93,0,3.5,1.57,3.5,3.5h2c0-3.04-2.46-5.5-5.5-5.5v1ZM72,68.5h1c0-1.93,1.57-3.5,3.5-3.5v-2c-3.04,0-5.5,2.46-5.5,5.5h1ZM76.5,73v-1c-1.93,0-3.5-1.57-3.5-3.5h-2c0,3.04,2.46,5.5,5.5,5.5v-1ZM81,68.5h-1c0,1.93-1.57,3.5-3.5,3.5v2c3.04,0,5.5-2.46,5.5-5.5h-1Z"/>
      </g>
      <g class="cls-31">
        <path class="cls-131" d="M76.5,78v1c1.93,0,3.5,1.57,3.5,3.5h2c0-3.04-2.46-5.5-5.5-5.5v1ZM72,82.5h1c0-1.93,1.57-3.5,3.5-3.5v-2c-3.04,0-5.5,2.46-5.5,5.5h1ZM76.5,87v-1c-1.93,0-3.5-1.57-3.5-3.5h-2c0,3.04,2.46,5.5,5.5,5.5v-1ZM81,82.5h-1c0,1.93-1.57,3.5-3.5,3.5v2c3.04,0,5.5-2.46,5.5-5.5h-1Z"/>
      </g>
      <g class="cls-29">
        <path class="cls-131" d="M76.5,92v1c1.93,0,3.5,1.57,3.5,3.5h2c0-3.04-2.46-5.5-5.5-5.5v1ZM72,96.5h1c0-1.93,1.57-3.5,3.5-3.5v-2c-3.04,0-5.5,2.46-5.5,5.5h1ZM76.5,101v-1c-1.93,0-3.5-1.57-3.5-3.5h-2c0,3.04,2.46,5.5,5.5,5.5v-1ZM81,96.5h-1c0,1.93-1.57,3.5-3.5,3.5v2c3.04,0,5.5-2.46,5.5-5.5h-1Z"/>
      </g>
      <g class="cls-26">
        <path class="cls-131" d="M76.5,106v1c1.93,0,3.5,1.57,3.5,3.5h2c0-3.04-2.46-5.5-5.5-5.5v1ZM72,110.5h1c0-1.93,1.57-3.5,3.5-3.5v-2c-3.04,0-5.5,2.46-5.5,5.5h1ZM76.5,115v-1c-1.93,0-3.5-1.57-3.5-3.5h-2c0,3.04,2.46,5.5,5.5,5.5v-1ZM81,110.5h-1c0,1.93-1.57,3.5-3.5,3.5v2c3.04,0,5.5-2.46,5.5-5.5h-1Z"/>
      </g>
      <g class="cls-30">
        <path class="cls-131" d="M76.5,120v1c1.93,0,3.5,1.57,3.5,3.5h2c0-3.04-2.46-5.5-5.5-5.5v1ZM72,124.5h1c0-1.93,1.57-3.5,3.5-3.5v-2c-3.04,0-5.5,2.46-5.5,5.5h1ZM76.5,129v-1c-1.93,0-3.5-1.57-3.5-3.5h-2c0,3.04,2.46,5.5,5.5,5.5v-1ZM81,124.5h-1c0,1.93-1.57,3.5-3.5,3.5v2c3.04,0,5.5-2.46,5.5-5.5h-1Z"/>
      </g>
      <g class="cls-28">
        <path class="cls-131" d="M76.5,134v1c1.93,0,3.5,1.57,3.5,3.5h2c0-3.04-2.46-5.5-5.5-5.5v1ZM72,138.5h1c0-1.93,1.57-3.5,3.5-3.5v-2c-3.04,0-5.5,2.46-5.5,5.5h1ZM76.5,143v-1c-1.93,0-3.5-1.57-3.5-3.5h-2c0,3.04,2.46,5.5,5.5,5.5v-1ZM81,138.5h-1c0,1.93-1.57,3.5-3.5,3.5v2c3.04,0,5.5-2.46,5.5-5.5h-1Z"/>
      </g>
      <g class="cls-39">
        <path class="cls-131" d="M76.5,148v1c1.93,0,3.5,1.57,3.5,3.5h2c0-3.04-2.46-5.5-5.5-5.5v1ZM72,152.5h1c0-1.93,1.57-3.5,3.5-3.5v-2c-3.04,0-5.5,2.46-5.5,5.5h1ZM76.5,157v-1c-1.93,0-3.5-1.57-3.5-3.5h-2c0,3.04,2.46,5.5,5.5,5.5v-1ZM81,152.5h-1c0,1.93-1.57,3.5-3.5,3.5v2c3.04,0,5.5-2.46,5.5-5.5h-1Z"/>
      </g>
      <g class="cls-40">
        <path class="cls-131" d="M76.5,162v1c1.93,0,3.5,1.57,3.5,3.5h2c0-3.04-2.46-5.5-5.5-5.5v1ZM72,166.5h1c0-1.93,1.57-3.5,3.5-3.5v-2c-3.04,0-5.5,2.46-5.5,5.5h1ZM76.5,171v-1c-1.93,0-3.5-1.57-3.5-3.5h-2c0,3.04,2.46,5.5,5.5,5.5v-1ZM81,166.5h-1c0,1.93-1.57,3.5-3.5,3.5v2c3.04,0,5.5-2.46,5.5-5.5h-1Z"/>
      </g>
      <g class="cls-15">
        <path class="cls-131" d="M76.5,176v1c1.93,0,3.5,1.57,3.5,3.5h2c0-3.04-2.46-5.5-5.5-5.5v1ZM72,180.5h1c0-1.93,1.57-3.5,3.5-3.5v-2c-3.04,0-5.5,2.46-5.5,5.5h1ZM76.5,185v-1c-1.93,0-3.5-1.57-3.5-3.5h-2c0,3.04,2.46,5.5,5.5,5.5v-1ZM81,180.5h-1c0,1.93-1.57,3.5-3.5,3.5v2c3.04,0,5.5-2.46,5.5-5.5h-1Z"/>
      </g>
      <g class="cls-12">
        <path class="cls-131" d="M76.5,190v1c1.93,0,3.5,1.57,3.5,3.5h2c0-3.04-2.46-5.5-5.5-5.5v1ZM72,194.5h1c0-1.93,1.57-3.5,3.5-3.5v-2c-3.04,0-5.5,2.46-5.5,5.5h1ZM76.5,199v-1c-1.93,0-3.5-1.57-3.5-3.5h-2c0,3.04,2.46,5.5,5.5,5.5v-1ZM81,194.5h-1c0,1.93-1.57,3.5-3.5,3.5v2c3.04,0,5.5-2.46,5.5-5.5h-1Z"/>
      </g>
      <g class="cls-17">
        <path class="cls-131" d="M90.5,36v1c1.93,0,3.5,1.57,3.5,3.5h2c0-3.04-2.46-5.5-5.5-5.5v1ZM86,40.5h1c0-1.93,1.57-3.5,3.5-3.5v-2c-3.04,0-5.5,2.46-5.5,5.5h1ZM90.5,45v-1c-1.93,0-3.5-1.57-3.5-3.5h-2c0,3.04,2.46,5.5,5.5,5.5v-1ZM95,40.5h-1c0,1.93-1.57,3.5-3.5,3.5v2c3.04,0,5.5-2.46,5.5-5.5h-1Z"/>
      </g>
      <g class="cls-20">
        <path class="cls-131" d="M90.5,50v1c1.93,0,3.5,1.57,3.5,3.5h2c0-3.04-2.46-5.5-5.5-5.5v1ZM86,54.5h1c0-1.93,1.57-3.5,3.5-3.5v-2c-3.04,0-5.5,2.46-5.5,5.5h1ZM90.5,59v-1c-1.93,0-3.5-1.57-3.5-3.5h-2c0,3.04,2.46,5.5,5.5,5.5v-1ZM95,54.5h-1c0,1.93-1.57,3.5-3.5,3.5v2c3.04,0,5.5-2.46,5.5-5.5h-1Z"/>
      </g>
      <g class="cls-18">
        <path class="cls-131" d="M90.5,64v1c1.93,0,3.5,1.57,3.5,3.5h2c0-3.04-2.46-5.5-5.5-5.5v1ZM86,68.5h1c0-1.93,1.57-3.5,3.5-3.5v-2c-3.04,0-5.5,2.46-5.5,5.5h1ZM90.5,73v-1c-1.93,0-3.5-1.57-3.5-3.5h-2c0,3.04,2.46,5.5,5.5,5.5v-1ZM95,68.5h-1c0,1.93-1.57,3.5-3.5,3.5v2c3.04,0,5.5-2.46,5.5-5.5h-1Z"/>
      </g>
      <g class="cls-16">
        <path class="cls-131" d="M90.5,78v1c1.93,0,3.5,1.57,3.5,3.5h2c0-3.04-2.46-5.5-5.5-5.5v1ZM86,82.5h1c0-1.93,1.57-3.5,3.5-3.5v-2c-3.04,0-5.5,2.46-5.5,5.5h1ZM90.5,87v-1c-1.93,0-3.5-1.57-3.5-3.5h-2c0,3.04,2.46,5.5,5.5,5.5v-1ZM95,82.5h-1c0,1.93-1.57,3.5-3.5,3.5v2c3.04,0,5.5-2.46,5.5-5.5h-1Z"/>
      </g>
      <g class="cls-19">
        <path class="cls-131" d="M90.5,92v1c1.93,0,3.5,1.57,3.5,3.5h2c0-3.04-2.46-5.5-5.5-5.5v1ZM86,96.5h1c0-1.93,1.57-3.5,3.5-3.5v-2c-3.04,0-5.5,2.46-5.5,5.5h1ZM90.5,101v-1c-1.93,0-3.5-1.57-3.5-3.5h-2c0,3.04,2.46,5.5,5.5,5.5v-1ZM95,96.5h-1c0,1.93-1.57,3.5-3.5,3.5v2c3.04,0,5.5-2.46,5.5-5.5h-1Z"/>
      </g>
      <g class="cls-13">
        <path class="cls-131" d="M90.5,106v1c1.93,0,3.5,1.57,3.5,3.5h2c0-3.04-2.46-5.5-5.5-5.5v1ZM86,110.5h1c0-1.93,1.57-3.5,3.5-3.5v-2c-3.04,0-5.5,2.46-5.5,5.5h1ZM90.5,115v-1c-1.93,0-3.5-1.57-3.5-3.5h-2c0,3.04,2.46,5.5,5.5,5.5v-1ZM95,110.5h-1c0,1.93-1.57,3.5-3.5,3.5v2c3.04,0,5.5-2.46,5.5-5.5h-1Z"/>
      </g>
      <g class="cls-14">
        <path class="cls-131" d="M90.5,120v1c1.93,0,3.5,1.57,3.5,3.5h2c0-3.04-2.46-5.5-5.5-5.5v1ZM86,124.5h1c0-1.93,1.57-3.5,3.5-3.5v-2c-3.04,0-5.5,2.46-5.5,5.5h1ZM90.5,129v-1c-1.93,0-3.5-1.57-3.5-3.5h-2c0,3.04,2.46,5.5,5.5,5.5v-1ZM95,124.5h-1c0,1.93-1.57,3.5-3.5,3.5v2c3.04,0,5.5-2.46,5.5-5.5h-1Z"/>
      </g>
      <g class="cls-61">
        <path class="cls-131" d="M90.5,134v1c1.93,0,3.5,1.57,3.5,3.5h2c0-3.04-2.46-5.5-5.5-5.5v1ZM86,138.5h1c0-1.93,1.57-3.5,3.5-3.5v-2c-3.04,0-5.5,2.46-5.5,5.5h1ZM90.5,143v-1c-1.93,0-3.5-1.57-3.5-3.5h-2c0,3.04,2.46,5.5,5.5,5.5v-1ZM95,138.5h-1c0,1.93-1.57,3.5-3.5,3.5v2c3.04,0,5.5-2.46,5.5-5.5h-1Z"/>
      </g>
      <g class="cls-32">
        <path class="cls-131" d="M90.5,148v1c1.93,0,3.5,1.57,3.5,3.5h2c0-3.04-2.46-5.5-5.5-5.5v1ZM86,152.5h1c0-1.93,1.57-3.5,3.5-3.5v-2c-3.04,0-5.5,2.46-5.5,5.5h1ZM90.5,157v-1c-1.93,0-3.5-1.57-3.5-3.5h-2c0,3.04,2.46,5.5,5.5,5.5v-1ZM95,152.5h-1c0,1.93-1.57,3.5-3.5,3.5v2c3.04,0,5.5-2.46,5.5-5.5h-1Z"/>
      </g>
      <g class="cls-35">
        <path class="cls-131" d="M90.5,162v1c1.93,0,3.5,1.57,3.5,3.5h2c0-3.04-2.46-5.5-5.5-5.5v1ZM86,166.5h1c0-1.93,1.57-3.5,3.5-3.5v-2c-3.04,0-5.5,2.46-5.5,5.5h1ZM90.5,171v-1c-1.93,0-3.5-1.57-3.5-3.5h-2c0,3.04,2.46,5.5,5.5,5.5v-1ZM95,166.5h-1c0,1.93-1.57,3.5-3.5,3.5v2c3.04,0,5.5-2.46,5.5-5.5h-1Z"/>
      </g>
      <g class="cls-37">
        <path class="cls-131" d="M90.5,176v1c1.93,0,3.5,1.57,3.5,3.5h2c0-3.04-2.46-5.5-5.5-5.5v1ZM86,180.5h1c0-1.93,1.57-3.5,3.5-3.5v-2c-3.04,0-5.5,2.46-5.5,5.5h1ZM90.5,185v-1c-1.93,0-3.5-1.57-3.5-3.5h-2c0,3.04,2.46,5.5,5.5,5.5v-1ZM95,180.5h-1c0,1.93-1.57,3.5-3.5,3.5v2c3.04,0,5.5-2.46,5.5-5.5h-1Z"/>
      </g>
      <g class="cls-36">
        <path class="cls-131" d="M90.5,190v1c1.93,0,3.5,1.57,3.5,3.5h2c0-3.04-2.46-5.5-5.5-5.5v1ZM86,194.5h1c0-1.93,1.57-3.5,3.5-3.5v-2c-3.04,0-5.5,2.46-5.5,5.5h1ZM90.5,199v-1c-1.93,0-3.5-1.57-3.5-3.5h-2c0,3.04,2.46,5.5,5.5,5.5v-1ZM95,194.5h-1c0,1.93-1.57,3.5-3.5,3.5v2c3.04,0,5.5-2.46,5.5-5.5h-1Z"/>
      </g>
      <g class="cls-34">
        <path class="cls-131" d="M104.5,36v1c1.93,0,3.5,1.57,3.5,3.5h2c0-3.04-2.46-5.5-5.5-5.5v1ZM100,40.5h1c0-1.93,1.57-3.5,3.5-3.5v-2c-3.04,0-5.5,2.46-5.5,5.5h1ZM104.5,45v-1c-1.93,0-3.5-1.57-3.5-3.5h-2c0,3.04,2.46,5.5,5.5,5.5v-1ZM109,40.5h-1c0,1.93-1.57,3.5-3.5,3.5v2c3.04,0,5.5-2.46,5.5-5.5h-1Z"/>
      </g>
      <g class="cls-23">
        <path class="cls-131" d="M104.5,50v1c1.93,0,3.5,1.57,3.5,3.5h2c0-3.04-2.46-5.5-5.5-5.5v1ZM100,54.5h1c0-1.93,1.57-3.5,3.5-3.5v-2c-3.04,0-5.5,2.46-5.5,5.5h1ZM104.5,59v-1c-1.93,0-3.5-1.57-3.5-3.5h-2c0,3.04,2.46,5.5,5.5,5.5v-1ZM109,54.5h-1c0,1.93-1.57,3.5-3.5,3.5v2c3.04,0,5.5-2.46,5.5-5.5h-1Z"/>
      </g>
      <g class="cls-21">
        <path class="cls-131" d="M104.5,64v1c1.93,0,3.5,1.57,3.5,3.5h2c0-3.04-2.46-5.5-5.5-5.5v1ZM100,68.5h1c0-1.93,1.57-3.5,3.5-3.5v-2c-3.04,0-5.5,2.46-5.5,5.5h1ZM104.5,73v-1c-1.93,0-3.5-1.57-3.5-3.5h-2c0,3.04,2.46,5.5,5.5,5.5v-1ZM109,68.5h-1c0,1.93-1.57,3.5-3.5,3.5v2c3.04,0,5.5-2.46,5.5-5.5h-1Z"/>
      </g>
      <g class="cls-33">
        <path class="cls-131" d="M104.5,78v1c1.93,0,3.5,1.57,3.5,3.5h2c0-3.04-2.46-5.5-5.5-5.5v1ZM100,82.5h1c0-1.93,1.57-3.5,3.5-3.5v-2c-3.04,0-5.5,2.46-5.5,5.5h1ZM104.5,87v-1c-1.93,0-3.5-1.57-3.5-3.5h-2c0,3.04,2.46,5.5,5.5,5.5v-1ZM109,82.5h-1c0,1.93-1.57,3.5-3.5,3.5v2c3.04,0,5.5-2.46,5.5-5.5h-1Z"/>
      </g>
      <g class="cls-22">
        <path class="cls-131" d="M104.5,92v1c1.93,0,3.5,1.57,3.5,3.5h2c0-3.04-2.46-5.5-5.5-5.5v1ZM100,96.5h1c0-1.93,1.57-3.5,3.5-3.5v-2c-3.04,0-5.5,2.46-5.5,5.5h1ZM104.5,101v-1c-1.93,0-3.5-1.57-3.5-3.5h-2c0,3.04,2.46,5.5,5.5,5.5v-1ZM109,96.5h-1c0,1.93-1.57,3.5-3.5,3.5v2c3.04,0,5.5-2.46,5.5-5.5h-1Z"/>
      </g>
      <g class="cls-24">
        <path class="cls-131" d="M104.5,106v1c1.93,0,3.5,1.57,3.5,3.5h2c0-3.04-2.46-5.5-5.5-5.5v1ZM100,110.5h1c0-1.93,1.57-3.5,3.5-3.5v-2c-3.04,0-5.5,2.46-5.5,5.5h1ZM104.5,115v-1c-1.93,0-3.5-1.57-3.5-3.5h-2c0,3.04,2.46,5.5,5.5,5.5v-1ZM109,110.5h-1c0,1.93-1.57,3.5-3.5,3.5v2c3.04,0,5.5-2.46,5.5-5.5h-1Z"/>
      </g>
      <g class="cls-81">
        <path class="cls-131" d="M104.5,120v1c1.93,0,3.5,1.57,3.5,3.5h2c0-3.04-2.46-5.5-5.5-5.5v1ZM100,124.5h1c0-1.93,1.57-3.5,3.5-3.5v-2c-3.04,0-5.5,2.46-5.5,5.5h1ZM104.5,129v-1c-1.93,0-3.5-1.57-3.5-3.5h-2c0,3.04,2.46,5.5,5.5,5.5v-1ZM109,124.5h-1c0,1.93-1.57,3.5-3.5,3.5v2c3.04,0,5.5-2.46,5.5-5.5h-1Z"/>
      </g>
      <g class="cls-83">
        <path class="cls-131" d="M104.5,134v1c1.93,0,3.5,1.57,3.5,3.5h2c0-3.04-2.46-5.5-5.5-5.5v1ZM100,138.5h1c0-1.93,1.57-3.5,3.5-3.5v-2c-3.04,0-5.5,2.46-5.5,5.5h1ZM104.5,143v-1c-1.93,0-3.5-1.57-3.5-3.5h-2c0,3.04,2.46,5.5,5.5,5.5v-1ZM109,138.5h-1c0,1.93-1.57,3.5-3.5,3.5v2c3.04,0,5.5-2.46,5.5-5.5h-1Z"/>
      </g>
      <g class="cls-84">
        <path class="cls-131" d="M104.5,148v1c1.93,0,3.5,1.57,3.5,3.5h2c0-3.04-2.46-5.5-5.5-5.5v1ZM100,152.5h1c0-1.93,1.57-3.5,3.5-3.5v-2c-3.04,0-5.5,2.46-5.5,5.5h1ZM104.5,157v-1c-1.93,0-3.5-1.57-3.5-3.5h-2c0,3.04,2.46,5.5,5.5,5.5v-1ZM109,152.5h-1c0,1.93-1.57,3.5-3.5,3.5v2c3.04,0,5.5-2.46,5.5-5.5h-1Z"/>
      </g>
      <g class="cls-85">
        <path class="cls-131" d="M104.5,162v1c1.93,0,3.5,1.57,3.5,3.5h2c0-3.04-2.46-5.5-5.5-5.5v1ZM100,166.5h1c0-1.93,1.57-3.5,3.5-3.5v-2c-3.04,0-5.5,2.46-5.5,5.5h1ZM104.5,171v-1c-1.93,0-3.5-1.57-3.5-3.5h-2c0,3.04,2.46,5.5,5.5,5.5v-1ZM109,166.5h-1c0,1.93-1.57,3.5-3.5,3.5v2c3.04,0,5.5-2.46,5.5-5.5h-1Z"/>
      </g>
      <g class="cls-86">
        <path class="cls-131" d="M104.5,176v1c1.93,0,3.5,1.57,3.5,3.5h2c0-3.04-2.46-5.5-5.5-5.5v1ZM100,180.5h1c0-1.93,1.57-3.5,3.5-3.5v-2c-3.04,0-5.5,2.46-5.5,5.5h1ZM104.5,185v-1c-1.93,0-3.5-1.57-3.5-3.5h-2c0,3.04,2.46,5.5,5.5,5.5v-1ZM109,180.5h-1c0,1.93-1.57,3.5-3.5,3.5v2c3.04,0,5.5-2.46,5.5-5.5h-1Z"/>
      </g>
      <g class="cls-78">
        <path class="cls-131" d="M104.5,190v1c1.93,0,3.5,1.57,3.5,3.5h2c0-3.04-2.46-5.5-5.5-5.5v1ZM100,194.5h1c0-1.93,1.57-3.5,3.5-3.5v-2c-3.04,0-5.5,2.46-5.5,5.5h1ZM104.5,199v-1c-1.93,0-3.5-1.57-3.5-3.5h-2c0,3.04,2.46,5.5,5.5,5.5v-1ZM109,194.5h-1c0,1.93-1.57,3.5-3.5,3.5v2c3.04,0,5.5-2.46,5.5-5.5h-1Z"/>
      </g>
      <g class="cls-79">
        <path class="cls-131" d="M118.5,36v1c1.93,0,3.5,1.57,3.5,3.5h2c0-3.04-2.46-5.5-5.5-5.5v1ZM114,40.5h1c0-1.93,1.57-3.5,3.5-3.5v-2c-3.04,0-5.5,2.46-5.5,5.5h1ZM118.5,45v-1c-1.93,0-3.5-1.57-3.5-3.5h-2c0,3.04,2.46,5.5,5.5,5.5v-1ZM123,40.5h-1c0,1.93-1.57,3.5-3.5,3.5v2c3.04,0,5.5-2.46,5.5-5.5h-1Z"/>
      </g>
      <g class="cls-80">
        <path class="cls-131" d="M118.5,50v1c1.93,0,3.5,1.57,3.5,3.5h2c0-3.04-2.46-5.5-5.5-5.5v1ZM114,54.5h1c0-1.93,1.57-3.5,3.5-3.5v-2c-3.04,0-5.5,2.46-5.5,5.5h1ZM118.5,59v-1c-1.93,0-3.5-1.57-3.5-3.5h-2c0,3.04,2.46,5.5,5.5,5.5v-1ZM123,54.5h-1c0,1.93-1.57,3.5-3.5,3.5v2c3.04,0,5.5-2.46,5.5-5.5h-1Z"/>
      </g>
      <g class="cls-87">
        <path class="cls-131" d="M118.5,64v1c1.93,0,3.5,1.57,3.5,3.5h2c0-3.04-2.46-5.5-5.5-5.5v1ZM114,68.5h1c0-1.93,1.57-3.5,3.5-3.5v-2c-3.04,0-5.5,2.46-5.5,5.5h1ZM118.5,73v-1c-1.93,0-3.5-1.57-3.5-3.5h-2c0,3.04,2.46,5.5,5.5,5.5v-1ZM123,68.5h-1c0,1.93-1.57,3.5-3.5,3.5v2c3.04,0,5.5-2.46,5.5-5.5h-1Z"/>
      </g>
      <g class="cls-82">
        <path class="cls-131" d="M118.5,78v1c1.93,0,3.5,1.57,3.5,3.5h2c0-3.04-2.46-5.5-5.5-5.5v1ZM114,82.5h1c0-1.93,1.57-3.5,3.5-3.5v-2c-3.04,0-5.5,2.46-5.5,5.5h1ZM118.5,87v-1c-1.93,0-3.5-1.57-3.5-3.5h-2c0,3.04,2.46,5.5,5.5,5.5v-1ZM123,82.5h-1c0,1.93-1.57,3.5-3.5,3.5v2c3.04,0,5.5-2.46,5.5-5.5h-1Z"/>
      </g>
      <g class="cls-72">
        <path class="cls-131" d="M118.5,92v1c1.93,0,3.5,1.57,3.5,3.5h2c0-3.04-2.46-5.5-5.5-5.5v1ZM114,96.5h1c0-1.93,1.57-3.5,3.5-3.5v-2c-3.04,0-5.5,2.46-5.5,5.5h1ZM118.5,101v-1c-1.93,0-3.5-1.57-3.5-3.5h-2c0,3.04,2.46,5.5,5.5,5.5v-1ZM123,96.5h-1c0,1.93-1.57,3.5-3.5,3.5v2c3.04,0,5.5-2.46,5.5-5.5h-1Z"/>
      </g>
      <g class="cls-90">
        <path class="cls-131" d="M118.5,106v1c1.93,0,3.5,1.57,3.5,3.5h2c0-3.04-2.46-5.5-5.5-5.5v1ZM114,110.5h1c0-1.93,1.57-3.5,3.5-3.5v-2c-3.04,0-5.5,2.46-5.5,5.5h1ZM118.5,115v-1c-1.93,0-3.5-1.57-3.5-3.5h-2c0,3.04,2.46,5.5,5.5,5.5v-1ZM123,110.5h-1c0,1.93-1.57,3.5-3.5,3.5v2c3.04,0,5.5-2.46,5.5-5.5h-1Z"/>
      </g>
      <g class="cls-88">
        <path class="cls-131" d="M118.5,120v1c1.93,0,3.5,1.57,3.5,3.5h2c0-3.04-2.46-5.5-5.5-5.5v1ZM114,124.5h1c0-1.93,1.57-3.5,3.5-3.5v-2c-3.04,0-5.5,2.46-5.5,5.5h1ZM118.5,129v-1c-1.93,0-3.5-1.57-3.5-3.5h-2c0,3.04,2.46,5.5,5.5,5.5v-1ZM123,124.5h-1c0,1.93-1.57,3.5-3.5,3.5v2c3.04,0,5.5-2.46,5.5-5.5h-1Z"/>
      </g>
      <g class="cls-74">
        <path class="cls-131" d="M118.5,134v1c1.93,0,3.5,1.57,3.5,3.5h2c0-3.04-2.46-5.5-5.5-5.5v1ZM114,138.5h1c0-1.93,1.57-3.5,3.5-3.5v-2c-3.04,0-5.5,2.46-5.5,5.5h1ZM118.5,143v-1c-1.93,0-3.5-1.57-3.5-3.5h-2c0,3.04,2.46,5.5,5.5,5.5v-1ZM123,138.5h-1c0,1.93-1.57,3.5-3.5,3.5v2c3.04,0,5.5-2.46,5.5-5.5h-1Z"/>
      </g>
      <g class="cls-76">
        <path class="cls-131" d="M118.5,148v1c1.93,0,3.5,1.57,3.5,3.5h2c0-3.04-2.46-5.5-5.5-5.5v1ZM114,152.5h1c0-1.93,1.57-3.5,3.5-3.5v-2c-3.04,0-5.5,2.46-5.5,5.5h1ZM118.5,157v-1c-1.93,0-3.5-1.57-3.5-3.5h-2c0,3.04,2.46,5.5,5.5,5.5v-1ZM123,152.5h-1c0,1.93-1.57,3.5-3.5,3.5v2c3.04,0,5.5-2.46,5.5-5.5h-1Z"/>
      </g>
      <g class="cls-73">
        <path class="cls-131" d="M118.5,162v1c1.93,0,3.5,1.57,3.5,3.5h2c0-3.04-2.46-5.5-5.5-5.5v1ZM114,166.5h1c0-1.93,1.57-3.5,3.5-3.5v-2c-3.04,0-5.5,2.46-5.5,5.5h1ZM118.5,171v-1c-1.93,0-3.5-1.57-3.5-3.5h-2c0,3.04,2.46,5.5,5.5,5.5v-1ZM123,166.5h-1c0,1.93-1.57,3.5-3.5,3.5v2c3.04,0,5.5-2.46,5.5-5.5h-1Z"/>
      </g>
      <g class="cls-77">
        <path class="cls-131" d="M118.5,36v1c1.93,0,3.5,1.57,3.5,3.5h2c0-3.04-2.46-5.5-5.5-5.5v1ZM114,40.5h1c0-1.93,1.57-3.5,3.5-3.5v-2c-3.04,0-5.5,2.46-5.5,5.5h1ZM118.5,45v-1c-1.93,0-3.5-1.57-3.5-3.5h-2c0,3.04,2.46,5.5,5.5,5.5v-1ZM123,40.5h-1c0,1.93-1.57,3.5-3.5,3.5v2c3.04,0,5.5-2.46,5.5-5.5h-1Z"/>
      </g>
      <g class="cls-89">
        <path class="cls-131" d="M118.5,50v1c1.93,0,3.5,1.57,3.5,3.5h2c0-3.04-2.46-5.5-5.5-5.5v1ZM114,54.5h1c0-1.93,1.57-3.5,3.5-3.5v-2c-3.04,0-5.5,2.46-5.5,5.5h1ZM118.5,59v-1c-1.93,0-3.5-1.57-3.5-3.5h-2c0,3.04,2.46,5.5,5.5,5.5v-1ZM123,54.5h-1c0,1.93-1.57,3.5-3.5,3.5v2c3.04,0,5.5-2.46,5.5-5.5h-1Z"/>
      </g>
      <g class="cls-91">
        <path class="cls-131" d="M118.5,64v1c1.93,0,3.5,1.57,3.5,3.5h2c0-3.04-2.46-5.5-5.5-5.5v1ZM114,68.5h1c0-1.93,1.57-3.5,3.5-3.5v-2c-3.04,0-5.5,2.46-5.5,5.5h1ZM118.5,73v-1c-1.93,0-3.5-1.57-3.5-3.5h-2c0,3.04,2.46,5.5,5.5,5.5v-1ZM123,68.5h-1c0,1.93-1.57,3.5-3.5,3.5v2c3.04,0,5.5-2.46,5.5-5.5h-1Z"/>
      </g>
      <g class="cls-75">
        <path class="cls-131" d="M118.5,78v1c1.93,0,3.5,1.57,3.5,3.5h2c0-3.04-2.46-5.5-5.5-5.5v1ZM114,82.5h1c0-1.93,1.57-3.5,3.5-3.5v-2c-3.04,0-5.5,2.46-5.5,5.5h1ZM118.5,87v-1c-1.93,0-3.5-1.57-3.5-3.5h-2c0,3.04,2.46,5.5,5.5,5.5v-1ZM123,82.5h-1c0,1.93-1.57,3.5-3.5,3.5v2c3.04,0,5.5-2.46,5.5-5.5h-1Z"/>
      </g>
      <g class="cls-108">
        <path class="cls-131" d="M118.5,92v1c1.93,0,3.5,1.57,3.5,3.5h2c0-3.04-2.46-5.5-5.5-5.5v1ZM114,96.5h1c0-1.93,1.57-3.5,3.5-3.5v-2c-3.04,0-5.5,2.46-5.5,5.5h1ZM118.5,101v-1c-1.93,0-3.5-1.57-3.5-3.5h-2c0,3.04,2.46,5.5,5.5,5.5v-1ZM123,96.5h-1c0,1.93-1.57,3.5-3.5,3.5v2c3.04,0,5.5-2.46,5.5-5.5h-1Z"/>
      </g>
      <g class="cls-102">
        <path class="cls-131" d="M118.5,106v1c1.93,0,3.5,1.57,3.5,3.5h2c0-3.04-2.46-5.5-5.5-5.5v1ZM114,110.5h1c0-1.93,1.57-3.5,3.5-3.5v-2c-3.04,0-5.5,2.46-5.5,5.5h1ZM118.5,115v-1c-1.93,0-3.5-1.57-3.5-3.5h-2c0,3.04,2.46,5.5,5.5,5.5v-1ZM123,110.5h-1c0,1.93-1.57,3.5-3.5,3.5v2c3.04,0,5.5-2.46,5.5-5.5h-1Z"/>
      </g>
      <g class="cls-101">
        <path class="cls-131" d="M118.5,120v1c1.93,0,3.5,1.57,3.5,3.5h2c0-3.04-2.46-5.5-5.5-5.5v1ZM114,124.5h1c0-1.93,1.57-3.5,3.5-3.5v-2c-3.04,0-5.5,2.46-5.5,5.5h1ZM118.5,129v-1c-1.93,0-3.5-1.57-3.5-3.5h-2c0,3.04,2.46,5.5,5.5,5.5v-1ZM123,124.5h-1c0,1.93-1.57,3.5-3.5,3.5v2c3.04,0,5.5-2.46,5.5-5.5h-1Z"/>
      </g>
      <g class="cls-106">
        <path class="cls-131" d="M118.5,134v1c1.93,0,3.5,1.57,3.5,3.5h2c0-3.04-2.46-5.5-5.5-5.5v1ZM114,138.5h1c0-1.93,1.57-3.5,3.5-3.5v-2c-3.04,0-5.5,2.46-5.5,5.5h1ZM118.5,143v-1c-1.93,0-3.5-1.57-3.5-3.5h-2c0,3.04,2.46,5.5,5.5,5.5v-1ZM123,138.5h-1c0,1.93-1.57,3.5-3.5,3.5v2c3.04,0,5.5-2.46,5.5-5.5h-1Z"/>
      </g>
      <g class="cls-103">
        <path class="cls-131" d="M118.5,148v1c1.93,0,3.5,1.57,3.5,3.5h2c0-3.04-2.46-5.5-5.5-5.5v1ZM114,152.5h1c0-1.93,1.57-3.5,3.5-3.5v-2c-3.04,0-5.5,2.46-5.5,5.5h1ZM118.5,157v-1c-1.93,0-3.5-1.57-3.5-3.5h-2c0,3.04,2.46,5.5,5.5,5.5v-1ZM123,152.5h-1c0,1.93-1.57,3.5-3.5,3.5v2c3.04,0,5.5-2.46,5.5-5.5h-1Z"/>
      </g>
      <g class="cls-107">
        <path class="cls-131" d="M118.5,162v1c1.93,0,3.5,1.57,3.5,3.5h2c0-3.04-2.46-5.5-5.5-5.5v1ZM114,166.5h1c0-1.93,1.57-3.5,3.5-3.5v-2c-3.04,0-5.5,2.46-5.5,5.5h1ZM118.5,171v-1c-1.93,0-3.5-1.57-3.5-3.5h-2c0,3.04,2.46,5.5,5.5,5.5v-1ZM123,166.5h-1c0,1.93-1.57,3.5-3.5,3.5v2c3.04,0,5.5-2.46,5.5-5.5h-1Z"/>
      </g>
      <g class="cls-105">
        <path class="cls-131" d="M118.5,36v1c1.93,0,3.5,1.57,3.5,3.5h2c0-3.04-2.46-5.5-5.5-5.5v1ZM114,40.5h1c0-1.93,1.57-3.5,3.5-3.5v-2c-3.04,0-5.5,2.46-5.5,5.5h1ZM118.5,45v-1c-1.93,0-3.5-1.57-3.5-3.5h-2c0,3.04,2.46,5.5,5.5,5.5v-1ZM123,40.5h-1c0,1.93-1.57,3.5-3.5,3.5v2c3.04,0,5.5-2.46,5.5-5.5h-1Z"/>
      </g>
      <g class="cls-110">
        <path class="cls-131" d="M132.5,36v1c1.93,0,3.5,1.57,3.5,3.5h2c0-3.04-2.46-5.5-5.5-5.5v1ZM128,40.5h1c0-1.93,1.57-3.5,3.5-3.5v-2c-3.04,0-5.5,2.46-5.5,5.5h1ZM132.5,45v-1c-1.93,0-3.5-1.57-3.5-3.5h-2c0,3.04,2.46,5.5,5.5,5.5v-1ZM137,40.5h-1c0,1.93-1.57,3.5-3.5,3.5v2c3.04,0,5.5-2.46,5.5-5.5h-1Z"/>
      </g>
      <g class="cls-109">
        <path class="cls-131" d="M118.5,50v1c1.93,0,3.5,1.57,3.5,3.5h2c0-3.04-2.46-5.5-5.5-5.5v1ZM114,54.5h1c0-1.93,1.57-3.5,3.5-3.5v-2c-3.04,0-5.5,2.46-5.5,5.5h1ZM118.5,59v-1c-1.93,0-3.5-1.57-3.5-3.5h-2c0,3.04,2.46,5.5,5.5,5.5v-1ZM123,54.5h-1c0,1.93-1.57,3.5-3.5,3.5v2c3.04,0,5.5-2.46,5.5-5.5h-1Z"/>
      </g>
      <g class="cls-104">
        <path class="cls-131" d="M132.5,50v1c1.93,0,3.5,1.57,3.5,3.5h2c0-3.04-2.46-5.5-5.5-5.5v1ZM128,54.5h1c0-1.93,1.57-3.5,3.5-3.5v-2c-3.04,0-5.5,2.46-5.5,5.5h1ZM132.5,59v-1c-1.93,0-3.5-1.57-3.5-3.5h-2c0,3.04,2.46,5.5,5.5,5.5v-1ZM137,54.5h-1c0,1.93-1.57,3.5-3.5,3.5v2c3.04,0,5.5-2.46,5.5-5.5h-1Z"/>
      </g>
      <g class="cls-115">
        <path class="cls-131" d="M118.5,64v1c1.93,0,3.5,1.57,3.5,3.5h2c0-3.04-2.46-5.5-5.5-5.5v1ZM114,68.5h1c0-1.93,1.57-3.5,3.5-3.5v-2c-3.04,0-5.5,2.46-5.5,5.5h1ZM118.5,73v-1c-1.93,0-3.5-1.57-3.5-3.5h-2c0,3.04,2.46,5.5,5.5,5.5v-1ZM123,68.5h-1c0,1.93-1.57,3.5-3.5,3.5v2c3.04,0,5.5-2.46,5.5-5.5h-1Z"/>
      </g>
      <g class="cls-114">
        <path class="cls-131" d="M132.5,64v1c1.93,0,3.5,1.57,3.5,3.5h2c0-3.04-2.46-5.5-5.5-5.5v1ZM128,68.5h1c0-1.93,1.57-3.5,3.5-3.5v-2c-3.04,0-5.5,2.46-5.5,5.5h1ZM132.5,73v-1c-1.93,0-3.5-1.57-3.5-3.5h-2c0,3.04,2.46,5.5,5.5,5.5v-1ZM137,68.5h-1c0,1.93-1.57,3.5-3.5,3.5v2c3.04,0,5.5-2.46,5.5-5.5h-1Z"/>
      </g>
      <g class="cls-117">
        <path class="cls-131" d="M118.5,78v1c1.93,0,3.5,1.57,3.5,3.5h2c0-3.04-2.46-5.5-5.5-5.5v1ZM114,82.5h1c0-1.93,1.57-3.5,3.5-3.5v-2c-3.04,0-5.5,2.46-5.5,5.5h1ZM118.5,87v-1c-1.93,0-3.5-1.57-3.5-3.5h-2c0,3.04,2.46,5.5,5.5,5.5v-1ZM123,82.5h-1c0,1.93-1.57,3.5-3.5,3.5v2c3.04,0,5.5-2.46,5.5-5.5h-1Z"/>
      </g>
      <g class="cls-116">
        <path class="cls-131" d="M132.5,78v1c1.93,0,3.5,1.57,3.5,3.5h2c0-3.04-2.46-5.5-5.5-5.5v1ZM128,82.5h1c0-1.93,1.57-3.5,3.5-3.5v-2c-3.04,0-5.5,2.46-5.5,5.5h1ZM132.5,87v-1c-1.93,0-3.5-1.57-3.5-3.5h-2c0,3.04,2.46,5.5,5.5,5.5v-1ZM137,82.5h-1c0,1.93-1.57,3.5-3.5,3.5v2c3.04,0,5.5-2.46,5.5-5.5h-1Z"/>
      </g>
      <g class="cls-112">
        <path class="cls-131" d="M118.5,92v1c1.93,0,3.5,1.57,3.5,3.5h2c0-3.04-2.46-5.5-5.5-5.5v1ZM114,96.5h1c0-1.93,1.57-3.5,3.5-3.5v-2c-3.04,0-5.5,2.46-5.5,5.5h1ZM118.5,101v-1c-1.93,0-3.5-1.57-3.5-3.5h-2c0,3.04,2.46,5.5,5.5,5.5v-1ZM123,96.5h-1c0,1.93-1.57,3.5-3.5,3.5v2c3.04,0,5.5-2.46,5.5-5.5h-1Z"/>
      </g>
      <g class="cls-119">
        <path class="cls-131" d="M132.5,92v1c1.93,0,3.5,1.57,3.5,3.5h2c0-3.04-2.46-5.5-5.5-5.5v1ZM128,96.5h1c0-1.93,1.57-3.5,3.5-3.5v-2c-3.04,0-5.5,2.46-5.5,5.5h1ZM132.5,101v-1c-1.93,0-3.5-1.57-3.5-3.5h-2c0,3.04,2.46,5.5,5.5,5.5v-1ZM137,96.5h-1c0,1.93-1.57,3.5-3.5,3.5v2c3.04,0,5.5-2.46,5.5-5.5h-1Z"/>
      </g>
      <g class="cls-120">
        <path class="cls-131" d="M118.5,106v1c1.93,0,3.5,1.57,3.5,3.5h2c0-3.04-2.46-5.5-5.5-5.5v1ZM114,110.5h1c0-1.93,1.57-3.5,3.5-3.5v-2c-3.04,0-5.5,2.46-5.5,5.5h1ZM118.5,115v-1c-1.93,0-3.5-1.57-3.5-3.5h-2c0,3.04,2.46,5.5,5.5,5.5v-1ZM123,110.5h-1c0,1.93-1.57,3.5-3.5,3.5v2c3.04,0,5.5-2.46,5.5-5.5h-1Z"/>
      </g>
      <g class="cls-118">
        <path class="cls-131" d="M132.5,106v1c1.93,0,3.5,1.57,3.5,3.5h2c0-3.04-2.46-5.5-5.5-5.5v1ZM128,110.5h1c0-1.93,1.57-3.5,3.5-3.5v-2c-3.04,0-5.5,2.46-5.5,5.5h1ZM132.5,115v-1c-1.93,0-3.5-1.57-3.5-3.5h-2c0,3.04,2.46,5.5,5.5,5.5v-1ZM137,110.5h-1c0,1.93-1.57,3.5-3.5,3.5v2c3.04,0,5.5-2.46,5.5-5.5h-1Z"/>
      </g>
      <g class="cls-111">
        <path class="cls-131" d="M118.5,120v1c1.93,0,3.5,1.57,3.5,3.5h2c0-3.04-2.46-5.5-5.5-5.5v1ZM114,124.5h1c0-1.93,1.57-3.5,3.5-3.5v-2c-3.04,0-5.5,2.46-5.5,5.5h1ZM118.5,129v-1c-1.93,0-3.5-1.57-3.5-3.5h-2c0,3.04,2.46,5.5,5.5,5.5v-1ZM123,124.5h-1c0,1.93-1.57,3.5-3.5,3.5v2c3.04,0,5.5-2.46,5.5-5.5h-1Z"/>
      </g>
      <g class="cls-113">
        <path class="cls-131" d="M132.5,120v1c1.93,0,3.5,1.57,3.5,3.5h2c0-3.04-2.46-5.5-5.5-5.5v1ZM128,124.5h1c0-1.93,1.57-3.5,3.5-3.5v-2c-3.04,0-5.5,2.46-5.5,5.5h1ZM132.5,129v-1c-1.93,0-3.5-1.57-3.5-3.5h-2c0,3.04,2.46,5.5,5.5,5.5v-1ZM137,124.5h-1c0,1.93-1.57,3.5-3.5,3.5v2c3.04,0,5.5-2.46,5.5-5.5h-1Z"/>
      </g>
      <g class="cls-121">
        <path class="cls-131" d="M118.5,134v1c1.93,0,3.5,1.57,3.5,3.5h2c0-3.04-2.46-5.5-5.5-5.5v1ZM114,138.5h1c0-1.93,1.57-3.5,3.5-3.5v-2c-3.04,0-5.5,2.46-5.5,5.5h1ZM118.5,143v-1c-1.93,0-3.5-1.57-3.5-3.5h-2c0,3.04,2.46,5.5,5.5,5.5v-1ZM123,138.5h-1c0,1.93-1.57,3.5-3.5,3.5v2c3.04,0,5.5-2.46,5.5-5.5h-1Z"/>
      </g>
      <g class="cls-124">
        <path class="cls-131" d="M132.5,134v1c1.93,0,3.5,1.57,3.5,3.5h2c0-3.04-2.46-5.5-5.5-5.5v1ZM128,138.5h1c0-1.93,1.57-3.5,3.5-3.5v-2c-3.04,0-5.5,2.46-5.5,5.5h1ZM132.5,143v-1c-1.93,0-3.5-1.57-3.5-3.5h-2c0,3.04,2.46,5.5,5.5,5.5v-1ZM137,138.5h-1c0,1.93-1.57,3.5-3.5,3.5v2c3.04,0,5.5-2.46,5.5-5.5h-1Z"/>
      </g>
      <g class="cls-123">
        <path class="cls-131" d="M118.5,148v1c1.93,0,3.5,1.57,3.5,3.5h2c0-3.04-2.46-5.5-5.5-5.5v1ZM114,152.5h1c0-1.93,1.57-3.5,3.5-3.5v-2c-3.04,0-5.5,2.46-5.5,5.5h1ZM118.5,157v-1c-1.93,0-3.5-1.57-3.5-3.5h-2c0,3.04,2.46,5.5,5.5,5.5v-1ZM123,152.5h-1c0,1.93-1.57,3.5-3.5,3.5v2c3.04,0,5.5-2.46,5.5-5.5h-1Z"/>
      </g>
      <g class="cls-125">
        <path class="cls-131" d="M132.5,148v1c1.93,0,3.5,1.57,3.5,3.5h2c0-3.04-2.46-5.5-5.5-5.5v1ZM128,152.5h1c0-1.93,1.57-3.5,3.5-3.5v-2c-3.04,0-5.5,2.46-5.5,5.5h1ZM132.5,157v-1c-1.93,0-3.5-1.57-3.5-3.5h-2c0,3.04,2.46,5.5,5.5,5.5v-1ZM137,152.5h-1c0,1.93-1.57,3.5-3.5,3.5v2c3.04,0,5.5-2.46,5.5-5.5h-1Z"/>
      </g>
      <g class="cls-126">
        <path class="cls-131" d="M118.5,162v1c1.93,0,3.5,1.57,3.5,3.5h2c0-3.04-2.46-5.5-5.5-5.5v1ZM114,166.5h1c0-1.93,1.57-3.5,3.5-3.5v-2c-3.04,0-5.5,2.46-5.5,5.5h1ZM118.5,171v-1c-1.93,0-3.5-1.57-3.5-3.5h-2c0,3.04,2.46,5.5,5.5,5.5v-1ZM123,166.5h-1c0,1.93-1.57,3.5-3.5,3.5v2c3.04,0,5.5-2.46,5.5-5.5h-1Z"/>
      </g>
      <g class="cls-122">
        <path class="cls-131" d="M132.5,162v1c1.93,0,3.5,1.57,3.5,3.5h2c0-3.04-2.46-5.5-5.5-5.5v1ZM128,166.5h1c0-1.93,1.57-3.5,3.5-3.5v-2c-3.04,0-5.5,2.46-5.5,5.5h1ZM132.5,171v-1c-1.93,0-3.5-1.57-3.5-3.5h-2c0,3.04,2.46,5.5,5.5,5.5v-1ZM137,166.5h-1c0,1.93-1.57,3.5-3.5,3.5v2c3.04,0,5.5-2.46,5.5-5.5h-1Z"/>
      </g>
      <g class="cls-128">
        <path class="cls-131" d="M118.5,176v1c1.93,0,3.5,1.57,3.5,3.5h2c0-3.04-2.46-5.5-5.5-5.5v1ZM114,180.5h1c0-1.93,1.57-3.5,3.5-3.5v-2c-3.04,0-5.5,2.46-5.5,5.5h1ZM118.5,185v-1c-1.93,0-3.5-1.57-3.5-3.5h-2c0,3.04,2.46,5.5,5.5,5.5v-1ZM123,180.5h-1c0,1.93-1.57,3.5-3.5,3.5v2c3.04,0,5.5-2.46,5.5-5.5h-1Z"/>
      </g>
      <g class="cls-130">
        <path class="cls-131" d="M132.5,176v1c1.93,0,3.5,1.57,3.5,3.5h2c0-3.04-2.46-5.5-5.5-5.5v1ZM128,180.5h1c0-1.93,1.57-3.5,3.5-3.5v-2c-3.04,0-5.5,2.46-5.5,5.5h1ZM132.5,185v-1c-1.93,0-3.5-1.57-3.5-3.5h-2c0,3.04,2.46,5.5,5.5,5.5v-1ZM137,180.5h-1c0,1.93-1.57,3.5-3.5,3.5v2c3.04,0,5.5-2.46,5.5-5.5h-1Z"/>
      </g>
      <g class="cls-129">
        <path class="cls-131" d="M118.5,190v1c1.93,0,3.5,1.57,3.5,3.5h2c0-3.04-2.46-5.5-5.5-5.5v1ZM114,194.5h1c0-1.93,1.57-3.5,3.5-3.5v-2c-3.04,0-5.5,2.46-5.5,5.5h1ZM118.5,199v-1c-1.93,0-3.5-1.57-3.5-3.5h-2c0,3.04,2.46,5.5,5.5,5.5v-1ZM123,194.5h-1c0,1.93-1.57,3.5-3.5,3.5v2c3.04,0,5.5-2.46,5.5-5.5h-1Z"/>
      </g>
      <g class="cls-127">
        <path class="cls-131" d="M132.5,190v1c1.93,0,3.5,1.57,3.5,3.5h2c0-3.04-2.46-5.5-5.5-5.5v1ZM128,194.5h1c0-1.93,1.57-3.5,3.5-3.5v-2c-3.04,0-5.5,2.46-5.5,5.5h1ZM132.5,199v-1c-1.93,0-3.5-1.57-3.5-3.5h-2c0,3.04,2.46,5.5,5.5,5.5v-1ZM137,194.5h-1c0,1.93-1.57,3.5-3.5,3.5v2c3.04,0,5.5-2.46,5.5-5.5h-1Z"/>
      </g>
    </g>
  </g>
  <g id="bottone-1">
    <rect id="BASE1" class="cls-132" x="153.5" y="100.5" width="73" height="73" rx="10" ry="10"/>
    <g id="CERCHIO1">
      <path class="cls-131" d="M190,160.5c-12.96,0-23.5-10.54-23.5-23.5s10.54-23.5,23.5-23.5,23.5,10.54,23.5,23.5-10.54,23.5-23.5,23.5Z"/>
      <path class="cls-133" d="M190,114c12.7,0,23,10.3,23,23s-10.3,23-23,23-23-10.3-23-23,10.3-23,23-23M190,113c-13.23,0-24,10.77-24,24s10.77,24,24,24,24-10.77,24-24-10.77-24-24-24h0Z"/>
    </g>
    <g id="PLAY1">
      <path class="cls-133" d="M185.59,145.47c-.83,0-1.5-.67-1.5-1.5v-13.94c0-.83.67-1.5,1.5-1.5.26,0,.52.07.75.2l12.07,6.97c.47.27.75.76.75,1.3s-.28,1.03-.75,1.3l-12.07,6.97c-.23.13-.49.2-.75.2Z"/>
      <path class="cls-131" d="M185.59,129.03c.17,0,.34.04.5.14l12.07,6.97c.67.38.67,1.35,0,1.73l-12.07,6.97c-.16.09-.33.14-.5.14-.52,0-1-.42-1-1v-13.94c0-.58.48-1,1-1M185.59,128.03h0c-1.1,0-2,.9-2,2v13.94c0,1.1.9,2,2,2,.35,0,.69-.09,1-.27l12.07-6.97c.63-.36,1-1.01,1-1.73s-.37-1.37-1-1.73l-12.07-6.97c-.31-.18-.65-.27-1-.27h0Z"/>
    </g>
  </g>
  <g id="bottone-2">
    <rect id="BASE2" class="cls-132" x="226.5" y="100.5" width="73" height="73" rx="10" ry="10"/>
    <g id="CERCHIO2">
      <path class="cls-131" d="M263,160.5c-12.96,0-23.5-10.54-23.5-23.5s10.54-23.5,23.5-23.5,23.5,10.54,23.5,23.5-10.54,23.5-23.5,23.5Z"/>
      <path class="cls-133" d="M263,114c12.7,0,23,10.3,23,23s-10.3,23-23,23-23-10.3-23-23,10.3-23,23-23M263,113c-13.23,0-24,10.77-24,24s10.77,24,24,24,24-10.77,24-24-10.77-24-24-24h0Z"/>
    </g>
    <g id="PAUSA2">
      <g>
        <path class="cls-133" d="M259.24,145.47c-1.23,0-2.24-1.06-2.24-2.36v-12.22c0-1.3,1-2.36,2.24-2.36s2.24,1.06,2.24,2.36v12.22c0,1.3-1,2.36-2.24,2.36Z"/>
        <path class="cls-131" d="M259.24,129.03c.96,0,1.74.83,1.74,1.86v12.22c0,1.03-.78,1.86-1.74,1.86s-1.74-.83-1.74-1.86v-12.22c0-1.03.78-1.86,1.74-1.86M259.24,128.03c-1.51,0-2.74,1.28-2.74,2.86v12.22c0,1.58,1.23,2.86,2.74,2.86s2.74-1.28,2.74-2.86v-12.22c0-1.58-1.23-2.86-2.74-2.86h0Z"/>
      </g>
      <g>
        <path class="cls-133" d="M266.76,145.47c-1.23,0-2.24-1.06-2.24-2.36v-12.22c0-1.3,1-2.36,2.24-2.36s2.24,1.06,2.24,2.36v12.22c0,1.3-1,2.36-2.24,2.36Z"/>
        <path class="cls-131" d="M266.76,129.03c.96,0,1.74.83,1.74,1.86v12.22c0,1.03-.78,1.86-1.74,1.86s-1.74-.83-1.74-1.86v-12.22c0-1.03.78-1.86,1.74-1.86M266.76,128.03c-1.51,0-2.74,1.28-2.74,2.86v12.22c0,1.58,1.23,2.86,2.74,2.86s2.74-1.28,2.74-2.86v-12.22c0-1.58-1.23-2.86-2.74-2.86h0Z"/>
      </g>
    </g>
  </g>
  <g id="bottone-3">
    <rect id="BASE3" class="cls-132" x="299.5" y="100.5" width="73" height="73" rx="10" ry="10"/>
    <g id="CERCHIO3">
      <path class="cls-131" d="M336,160.5c-12.96,0-23.5-10.54-23.5-23.5s10.54-23.5,23.5-23.5,23.5,10.54,23.5,23.5-10.54,23.5-23.5,23.5Z"/>
      <path class="cls-133" d="M336,114c12.7,0,23,10.3,23,23s-10.3,23-23,23-23-10.3-23-23,10.3-23,23-23M336,113c-13.23,0-24,10.77-24,24s10.77,24,24,24,24-10.77,24-24-10.77-24-24-24h0Z"/>
    </g>
    <g id="PLAY3">
      <path class="cls-133" d="M331.59,145.47c-.83,0-1.5-.67-1.5-1.5v-13.94c0-.83.67-1.5,1.5-1.5.26,0,.52.07.75.2l12.07,6.97c.47.27.75.76.75,1.3s-.28,1.03-.75,1.3l-12.07,6.97c-.23.13-.49.2-.75.2Z"/>
      <path class="cls-131" d="M331.59,129.03c.17,0,.34.04.5.14l12.07,6.97c.67.38.67,1.35,0,1.73l-12.07,6.97c-.16.09-.33.14-.5.14-.52,0-1-.42-1-1v-13.94c0-.58.48-1,1-1M331.59,128.03h0c-1.1,0-2,.9-2,2v13.94c0,1.1.9,2,2,2,.35,0,.69-.09,1-.27l12.07-6.97c.63-.36,1-1.01,1-1.73s-.37-1.37-1-1.73l-12.07-6.97c-.31-.18-.65-.27-1-.27h0Z"/>
    </g>
  </g>
  <g id="bottone-4">
    <rect id="BASE4" class="cls-132" x="372.5" y="100.5" width="73" height="73" rx="10" ry="10"/>
    <g id="CERCHIO4">
      <path class="cls-131" d="M409,160.5c-12.96,0-23.5-10.54-23.5-23.5s10.54-23.5,23.5-23.5,23.5,10.54,23.5,23.5-10.54,23.5-23.5,23.5Z"/>
      <path class="cls-133" d="M409,114c12.7,0,23,10.3,23,23s-10.3,23-23,23-23-10.3-23-23,10.3-23,23-23M409,113c-13.23,0-24,10.77-24,24s10.77,24,24,24,24-10.77,24-24-10.77-24-24-24h0Z"/>
    </g>
    <g id="PAUSA4">
      <g>
        <path class="cls-133" d="M405.24,145.47c-1.23,0-2.24-1.06-2.24-2.36v-12.22c0-1.3,1-2.36,2.24-2.36s2.24,1.06,2.24,2.36v12.22c0,1.3-1,2.36-2.24,2.36Z"/>
        <path class="cls-131" d="M405.24,129.03c.96,0,1.74.83,1.74,1.86v12.22c0,1.03-.78,1.86-1.74,1.86s-1.74-.83-1.74-1.86v-12.22c0-1.03.78-1.86,1.74-1.86M405.24,128.03c-1.51,0-2.74,1.28-2.74,2.86v12.22c0,1.58,1.23,2.86,2.74,2.86s2.74-1.28,2.74-2.86v-12.22c0-1.58-1.23-2.86-2.74-2.86h0Z"/>
      </g>
      <g>
        <path class="cls-133" d="M412.76,145.47c-1.23,0-2.24-1.06-2.24-2.36v-12.22c0-1.3,1-2.36,2.24-2.36s2.24,1.06,2.24,2.36v12.22c0,1.3-1,2.36-2.24,2.36Z"/>
        <path class="cls-131" d="M412.76,129.03c.96,0,1.74.83,1.74,1.86v12.22c0,1.03-.78,1.86-1.74,1.86s-1.74-.83-1.74-1.86v-12.22c0-1.03.78-1.86,1.74-1.86M412.76,128.03c-1.51,0-2.74,1.28-2.74,2.86v12.22c0,1.58,1.23,2.86,2.74,2.86s2.74-1.28,2.74-2.86v-12.22c0-1.58-1.23-2.86-2.74-2.86h0Z"/>
      </g>
    </g>
  </g>
</svg>